STARTFONT 2.3
FONT -FontForge-Open Sans-Book-I-Normal-Sans--8-80-72-72-P-43-ISO10646-1
SIZE 8 72 72  4
FONTBOUNDINGBOX 14 12 -4 -3
COMMENT "Generated by fontforge, http://fontforge.sourceforge.net"
COMMENT "Digitized data copyright (c) 2010-2011, Google Corporation."
STARTPROPERTIES 42
FOUNDRY "FontForge"
FAMILY_NAME "Open Sans"
WEIGHT_NAME "Book"
SLANT "I"
SETWIDTH_NAME "Normal"
ADD_STYLE_NAME "Sans"
PIXEL_SIZE 8
POINT_SIZE 80
RESOLUTION_X 72
RESOLUTION_Y 72
SPACING "P"
AVERAGE_WIDTH 43
CHARSET_REGISTRY "ISO10646"
CHARSET_ENCODING "1"
FONTNAME_REGISTRY ""
CHARSET_COLLECTIONS "ISO8859-2 ISO8859-5 ISO8859-7 ISO8859-9 ISO8859-4 ISO10646-1"
BITS_PER_PIXEL 4
FONT_NAME "OpenSans-Italic"
FACE_NAME "Open Sans Italic"
COPYRIGHT "Digitized data copyright (c) 2010-2011, Google Corporation."
FONT_VERSION "1.10"
FONT_ASCENT 6
FONT_DESCENT 2
UNDERLINE_POSITION -1
UNDERLINE_THICKNESS 1
X_HEIGHT 4
CAP_HEIGHT 5
RAW_ASCENT 799
RAW_DESCENT 200
ITALIC_ANGLE 4992
NORM_SPACE 2
RELATIVE_WEIGHT 40
RELATIVE_SETWIDTH 50
SUPERSCRIPT_X 0
SUPERSCRIPT_Y 3
SUPERSCRIPT_SIZE 5
SUBSCRIPT_X 0
SUBSCRIPT_Y 1
SUBSCRIPT_SIZE 5
FIGURE_WIDTH 4
AVG_LOWERCASE_WIDTH 43
AVG_UPPERCASE_WIDTH 48
ENDPROPERTIES
CHARS 936
STARTCHAR space
ENCODING 32
SWIDTH 259 0
DWIDTH 2 0
BBX 1 1 0 0
BITMAP
00
ENDCHAR
STARTCHAR exclam
ENCODING 33
SWIDTH 258 0
DWIDTH 2 0
BBX 3 6 0 0
BITMAP
0810
0B00
0900
3500
2100
A100
ENDCHAR
STARTCHAR quotedbl
ENCODING 34
SWIDTH 386 0
DWIDTH 3 0
BBX 3 3 1 3
BITMAP
7620
8800
2200
ENDCHAR
STARTCHAR numbersign
ENCODING 35
SWIDTH 645 0
DWIDTH 5 0
BBX 6 6 0 0
BITMAP
006060
008350
299B71
294920
3A6930
175300
ENDCHAR
STARTCHAR dollar
ENCODING 36
SWIDTH 550 0
DWIDTH 4 0
BBX 4 7 0 -1
BITMAP
0195
0AA5
0A90
02C6
2468
5C71
0400
ENDCHAR
STARTCHAR percent
ENCODING 37
SWIDTH 792 0
DWIDTH 6 0
BBX 6 6 0 0
BITMAP
078025
267180
548775
298779
018628
081595
ENDCHAR
STARTCHAR ampersand
ENCODING 38
SWIDTH 669 0
DWIDTH 5 0
BBX 5 6 0 0
BITMAP
029900
081820
069600
38A160
902B60
698970
ENDCHAR
STARTCHAR quotesingle
ENCODING 39
SWIDTH 216 0
DWIDTH 2 0
BBX 1 3 1 3
BITMAP
70
80
20
ENDCHAR
STARTCHAR parenleft
ENCODING 40
SWIDTH 285 0
DWIDTH 2 0
BBX 3 8 0 -2
BITMAP
0160
0910
3700
7200
9000
9000
6300
1100
ENDCHAR
STARTCHAR parenright
ENCODING 41
SWIDTH 285 0
DWIDTH 2 0
BBX 3 8 -1 -2
BITMAP
0050
0090
00A0
00A0
0190
0640
2800
2000
ENDCHAR
STARTCHAR asterisk
ENCODING 42
SWIDTH 551 0
DWIDTH 4 0
BBX 5 4 0 2
BITMAP
016300
17B740
078300
011400
ENDCHAR
STARTCHAR plus
ENCODING 43
SWIDTH 550 0
DWIDTH 4 0
BBX 5 4 0 1
BITMAP
005000
119100
37B710
008000
ENDCHAR
STARTCHAR comma
ENCODING 44
SWIDTH 240 0
DWIDTH 2 0
BBX 3 2 -1 -1
BITMAP
0A10
3600
ENDCHAR
STARTCHAR hyphen
ENCODING 45
SWIDTH 312 0
DWIDTH 3 0
BBX 3 2 0 1
BITMAP
5710
2300
ENDCHAR
STARTCHAR period
ENCODING 46
SWIDTH 252 0
DWIDTH 2 0
BBX 2 1 0 0
BITMAP
A1
ENDCHAR
STARTCHAR slash
ENCODING 47
SWIDTH 350 0
DWIDTH 3 0
BBX 5 6 -1 0
BITMAP
000430
000A00
006400
019000
082000
280000
ENDCHAR
STARTCHAR zero
ENCODING 48
SWIDTH 550 0
DWIDTH 4 0
BBX 5 6 0 0
BITMAP
039800
0A0730
560730
730910
730A00
3AA300
ENDCHAR
STARTCHAR one
ENCODING 49
SWIDTH 550 0
DWIDTH 4 0
BBX 3 6 1 0
BITMAP
0750
7940
0910
0A00
1900
4600
ENDCHAR
STARTCHAR two
ENCODING 50
SWIDTH 550 0
DWIDTH 4 0
BBX 5 6 0 0
BITMAP
069900
010830
000A00
009300
192000
CA9600
ENDCHAR
STARTCHAR three
ENCODING 51
SWIDTH 550 0
DWIDTH 4 0
BBX 5 7 0 -1
BITMAP
069800
010920
025800
037500
000A00
789400
010000
ENDCHAR
STARTCHAR four
ENCODING 52
SWIDTH 550 0
DWIDTH 4 0
BBX 5 6 0 0
BITMAP
000910
008B00
074900
552800
99BB20
008100
ENDCHAR
STARTCHAR five
ENCODING 53
SWIDTH 550 0
DWIDTH 4 0
BBX 5 7 0 -1
BITMAP
059920
090000
0C7200
022A00
000A00
689400
010000
ENDCHAR
STARTCHAR six
ENCODING 54
SWIDTH 550 0
DWIDTH 4 0
BBX 5 6 0 0
BITMAP
018930
092000
2A8400
581B00
740A00
2A9500
ENDCHAR
STARTCHAR seven
ENCODING 55
SWIDTH 550 0
DWIDTH 4 0
BBX 5 6 0 0
BITMAP
199A40
000910
004600
00A000
074000
190000
ENDCHAR
STARTCHAR eight
ENCODING 56
SWIDTH 550 0
DWIDTH 4 0
BBX 5 6 0 0
BITMAP
039910
0A0640
077910
297700
920A00
5A8600
ENDCHAR
STARTCHAR nine
ENCODING 57
SWIDTH 550 0
DWIDTH 4 0
BBX 5 7 0 -1
BITMAP
059700
190920
470A10
0A8C00
002800
58A100
010000
ENDCHAR
STARTCHAR colon
ENCODING 58
SWIDTH 252 0
DWIDTH 2 0
BBX 2 5 0 0
BITMAP
03
16
00
00
A1
ENDCHAR
STARTCHAR semicolon
ENCODING 59
SWIDTH 252 0
DWIDTH 2 0
BBX 3 6 -1 -1
BITMAP
0030
0160
0000
0000
0A10
3600
ENDCHAR
STARTCHAR less
ENCODING 60
SWIDTH 550 0
DWIDTH 4 0
BBX 5 4 0 1
BITMAP
001710
177100
493000
005900
ENDCHAR
STARTCHAR equal
ENCODING 61
SWIDTH 550 0
DWIDTH 4 0
BBX 5 3 0 1
BITMAP
488810
244400
244400
ENDCHAR
STARTCHAR greater
ENCODING 62
SWIDTH 550 0
DWIDTH 4 0
BBX 4 4 0 1
BITMAP
5500
0484
0169
5820
ENDCHAR
STARTCHAR question
ENCODING 63
SWIDTH 426 0
DWIDTH 3 0
BBX 4 6 0 0
BITMAP
19A3
0029
0083
0730
0300
4700
ENDCHAR
STARTCHAR at
ENCODING 64
SWIDTH 847 0
DWIDTH 7 0
BBX 7 7 0 -1
BITMAP
00478500
07411640
3567B180
71909260
71A79910
38101000
04886000
ENDCHAR
STARTCHAR A
ENCODING 65
SWIDTH 555 0
DWIDTH 4 0
BBX 5 6 -1 0
BITMAP
000640
001A70
008390
02C6B0
0943A0
3800A0
ENDCHAR
STARTCHAR B
ENCODING 66
SWIDTH 598 0
DWIDTH 5 0
BBX 5 6 0 0
BITMAP
069930
0A01A0
0B4750
2A5910
550740
8A9900
ENDCHAR
STARTCHAR C
ENCODING 67
SWIDTH 584 0
DWIDTH 5 0
BBX 5 7 0 -1
BITMAP
008980
0A3000
280000
550000
560000
0A9900
001000
ENDCHAR
STARTCHAR D
ENCODING 68
SWIDTH 666 0
DWIDTH 5 0
BBX 6 6 0 0
BITMAP
069920
0A01B0
0A00A1
2800B0
550480
8A9800
ENDCHAR
STARTCHAR E
ENCODING 69
SWIDTH 511 0
DWIDTH 4 0
BBX 5 6 0 0
BITMAP
069930
0A0000
0B4300
2A5300
550000
8A9200
ENDCHAR
STARTCHAR F
ENCODING 70
SWIDTH 472 0
DWIDTH 4 0
BBX 5 6 0 0
BITMAP
069930
0A0000
0A0000
2C8500
550000
820000
ENDCHAR
STARTCHAR G
ENCODING 71
SWIDTH 676 0
DWIDTH 5 0
BBX 6 7 0 -1
BITMAP
008992
0A3000
280000
5508C0
5600A0
0A9A60
001000
ENDCHAR
STARTCHAR H
ENCODING 72
SWIDTH 678 0
DWIDTH 5 0
BBX 6 6 0 0
BITMAP
061034
0A0073
0B44B0
2A55B0
550280
820550
ENDCHAR
STARTCHAR I
ENCODING 73
SWIDTH 272 0
DWIDTH 2 0
BBX 3 6 0 0
BITMAP
0610
0A00
0A00
2800
5500
8200
ENDCHAR
STARTCHAR J
ENCODING 74
SWIDTH 267 0
DWIDTH 2 0
BBX 5 8 -2 -2
BITMAP
000610
000A00
000A00
002800
005500
008200
13B000
272000
ENDCHAR
STARTCHAR K
ENCODING 75
SWIDTH 557 0
DWIDTH 4 0
BBX 5 6 0 0
BITMAP
061180
0A1A20
0BA200
2BA100
555600
820B00
ENDCHAR
STARTCHAR L
ENCODING 76
SWIDTH 474 0
DWIDTH 4 0
BBX 4 6 0 0
BITMAP
0610
0A00
0A00
2800
5500
8A92
ENDCHAR
STARTCHAR M
ENCODING 77
SWIDTH 836 0
DWIDTH 7 0
BBX 7 6 0 0
BITMAP
06600570
09901B70
09907840
27927910
54891A00
81661900
ENDCHAR
STARTCHAR N
ENCODING 78
SWIDTH 702 0
DWIDTH 6 0
BBX 6 6 0 0
BITMAP
064016
099046
0A8173
283790
540A90
810780
ENDCHAR
STARTCHAR O
ENCODING 79
SWIDTH 720 0
DWIDTH 6 0
BBX 6 7 0 -1
BITMAP
018970
0A2075
380037
650056
5600B2
0A9A50
001000
ENDCHAR
STARTCHAR P
ENCODING 80
SWIDTH 565 0
DWIDTH 5 0
BBX 5 6 0 0
BITMAP
069810
0A0470
0A0650
2C8600
550000
820000
ENDCHAR
STARTCHAR Q
ENCODING 81
SWIDTH 720 0
DWIDTH 6 0
BBX 6 8 0 -2
BITMAP
018970
0A2075
380037
650056
5600A1
0A9A40
001B10
000220
ENDCHAR
STARTCHAR R
ENCODING 82
SWIDTH 568 0
DWIDTH 5 0
BBX 5 6 0 0
BITMAP
069910
0A0470
0A0750
2CC600
553700
820B00
ENDCHAR
STARTCHAR S
ENCODING 83
SWIDTH 501 0
DWIDTH 4 0
BBX 4 7 0 -1
BITMAP
0699
1A00
0B20
02A3
0038
88A2
0100
ENDCHAR
STARTCHAR T
ENCODING 84
SWIDTH 498 0
DWIDTH 4 0
BBX 5 6 0 0
BITMAP
29A960
00A000
01A000
047000
073000
0A0000
ENDCHAR
STARTCHAR U
ENCODING 85
SWIDTH 675 0
DWIDTH 5 0
BBX 6 7 0 -1
BITMAP
071035
0A0074
0A00A1
3700A0
550280
1B8A10
001000
ENDCHAR
STARTCHAR V
ENCODING 86
SWIDTH 547 0
DWIDTH 4 0
BBX 5 6 0 0
BITMAP
250080
280470
090A10
0A4600
09A000
0A5000
ENDCHAR
STARTCHAR W
ENCODING 87
SWIDTH 852 0
DWIDTH 7 0
BBX 8 6 0 0
BITMAP
16046044
190980A0
19369370
0A909810
0B709800
0D10B200
ENDCHAR
STARTCHAR X
ENCODING 88
SWIDTH 519 0
DWIDTH 4 0
BBX 6 6 -1 0
BITMAP
007026
009191
004C20
007B00
047730
290280
ENDCHAR
STARTCHAR Y
ENCODING 89
SWIDTH 502 0
DWIDTH 4 0
BBX 5 6 0 0
BITMAP
250260
090A10
097400
068000
073000
0A0000
ENDCHAR
STARTCHAR Z
ENCODING 90
SWIDTH 530 0
DWIDTH 4 0
BBX 5 6 0 0
BITMAP
089A50
000A10
009300
065000
380000
D99500
ENDCHAR
STARTCHAR bracketleft
ENCODING 91
SWIDTH 286 0
DWIDTH 2 0
BBX 3 8 0 -2
BITMAP
0770
0A00
1900
4600
7200
9000
B200
4200
ENDCHAR
STARTCHAR backslash
ENCODING 92
SWIDTH 350 0
DWIDTH 3 0
BBX 3 6 0 0
BITMAP
1600
0900
0900
0900
0810
0540
ENDCHAR
STARTCHAR bracketright
ENCODING 93
SWIDTH 286 0
DWIDTH 2 0
BBX 4 8 -1 -2
BITMAP
0194
0072
0090
0090
0280
0550
2A10
2400
ENDCHAR
STARTCHAR asciicircum
ENCODING 94
SWIDTH 517 0
DWIDTH 4 0
BBX 4 4 0 2
BITMAP
0081
0475
1808
6107
ENDCHAR
STARTCHAR underscore
ENCODING 95
SWIDTH 394 0
DWIDTH 3 0
BBX 4 2 -1 -2
BITMAP
3442
3442
ENDCHAR
STARTCHAR grave
ENCODING 96
SWIDTH 554 0
DWIDTH 4 0
BBX 2 3 2 4
BITMAP
10
64
01
ENDCHAR
STARTCHAR a
ENCODING 97
SWIDTH 564 0
DWIDTH 5 0
BBX 5 5 0 0
BITMAP
014110
1B4B30
740B00
922B00
5A7800
ENDCHAR
STARTCHAR b
ENCODING 98
SWIDTH 577 0
DWIDTH 5 0
BBX 5 7 0 0
BITMAP
010000
091000
0A3300
1D5A20
480830
750A00
989500
ENDCHAR
STARTCHAR c
ENCODING 99
SWIDTH 450 0
DWIDTH 4 0
BBX 4 5 0 0
BITMAP
0152
1B43
7400
9200
4A80
ENDCHAR
STARTCHAR d
ENCODING 100
SWIDTH 577 0
DWIDTH 5 0
BBX 5 7 0 0
BITMAP
000010
000090
014460
1A4C30
740B00
922B00
5A7900
ENDCHAR
STARTCHAR e
ENCODING 101
SWIDTH 493 0
DWIDTH 4 0
BBX 4 5 0 0
BITMAP
0151
1A49
7994
9300
4A82
ENDCHAR
STARTCHAR f
ENCODING 102
SWIDTH 312 0
DWIDTH 3 0
BBX 5 9 -1 -2
BITMAP
000100
005930
01B400
02B200
028000
055000
082000
0A0000
860000
ENDCHAR
STARTCHAR g
ENCODING 103
SWIDTH 500 0
DWIDTH 4 0
BBX 6 7 -1 -2
BITMAP
002541
039590
055650
038500
09A810
650740
398800
ENDCHAR
STARTCHAR h
ENCODING 104
SWIDTH 577 0
DWIDTH 5 0
BBX 5 7 0 0
BITMAP
010000
091000
0A3400
1D5A10
480910
730A00
A01900
ENDCHAR
STARTCHAR i
ENCODING 105
SWIDTH 253 0
DWIDTH 2 0
BBX 3 6 0 0
BITMAP
0710
0300
1900
4600
7300
9000
ENDCHAR
STARTCHAR j
ENCODING 106
SWIDTH 253 0
DWIDTH 2 0
BBX 4 8 -1 -2
BITMAP
0071
0030
0190
0460
0730
0900
0A00
9500
ENDCHAR
STARTCHAR k
ENCODING 107
SWIDTH 487 0
DWIDTH 4 0
BBX 4 7 0 0
BITMAP
0100
0910
0A03
1965
4B70
75A0
A083
ENDCHAR
STARTCHAR l
ENCODING 108
SWIDTH 253 0
DWIDTH 2 0
BBX 3 7 0 0
BITMAP
0100
0910
0A00
1900
4600
7300
A000
ENDCHAR
STARTCHAR m
ENCODING 109
SWIDTH 872 0
DWIDTH 7 0
BBX 7 5 0 0
BITMAP
02321510
1C5A7670
480B1460
730A0730
90370A00
ENDCHAR
STARTCHAR n
ENCODING 110
SWIDTH 577 0
DWIDTH 5 0
BBX 5 5 0 0
BITMAP
023400
1C5A20
480910
730A00
901900
ENDCHAR
STARTCHAR o
ENCODING 111
SWIDTH 561 0
DWIDTH 4 0
BBX 5 5 0 0
BITMAP
015100
1A4B00
730910
920B00
4A9400
ENDCHAR
STARTCHAR p
ENCODING 112
SWIDTH 577 0
DWIDTH 5 0
BBX 6 7 -1 -2
BITMAP
002330
01C5A2
048083
0750A0
098960
0A0000
180000
ENDCHAR
STARTCHAR q
ENCODING 113
SWIDTH 577 0
DWIDTH 5 0
BBX 5 7 0 -2
BITMAP
014110
1A4B30
740B00
922B00
5A8900
004500
007200
ENDCHAR
STARTCHAR r
ENCODING 114
SWIDTH 395 0
DWIDTH 3 0
BBX 4 5 0 0
BITMAP
0232
1C61
4800
7300
9000
ENDCHAR
STARTCHAR s
ENCODING 115
SWIDTH 428 0
DWIDTH 3 0
BBX 4 6 0 -1
BITMAP
0440
5851
3A10
02A0
8880
0100
ENDCHAR
STARTCHAR t
ENCODING 116
SWIDTH 324 0
DWIDTH 3 0
BBX 3 6 0 0
BITMAP
0200
2B30
3A30
4600
7300
6910
ENDCHAR
STARTCHAR u
ENCODING 117
SWIDTH 577 0
DWIDTH 5 0
BBX 5 5 0 0
BITMAP
030110
190730
460A00
731B00
698900
ENDCHAR
STARTCHAR v
ENCODING 118
SWIDTH 461 0
DWIDTH 4 0
BBX 4 5 0 0
BITMAP
2003
8219
6382
4780
3D10
ENDCHAR
STARTCHAR w
ENCODING 119
SWIDTH 716 0
DWIDTH 6 0
BBX 6 5 0 0
BITMAP
201203
827819
738873
792890
690B40
ENDCHAR
STARTCHAR x
ENCODING 120
SWIDTH 478 0
DWIDTH 4 0
BBX 5 5 -1 0
BITMAP
011030
019560
009800
029800
1A1910
ENDCHAR
STARTCHAR y
ENCODING 121
SWIDTH 461 0
DWIDTH 4 0
BBX 5 7 -1 -2
BITMAP
020030
072190
054820
038800
01D100
037000
690000
ENDCHAR
STARTCHAR z
ENCODING 122
SWIDTH 443 0
DWIDTH 4 0
BBX 4 5 0 0
BITMAP
0442
03A3
0650
3800
D750
ENDCHAR
STARTCHAR braceleft
ENCODING 123
SWIDTH 349 0
DWIDTH 3 0
BBX 4 8 0 -2
BITMAP
0191
0640
0900
8600
3700
4500
5700
0300
ENDCHAR
STARTCHAR bar
ENCODING 124
SWIDTH 550 0
DWIDTH 4 0
BBX 1 9 2 -2
BITMAP
10
80
80
80
80
80
80
80
80
ENDCHAR
STARTCHAR braceright
ENCODING 125
SWIDTH 349 0
DWIDTH 3 0
BBX 4 8 -1 -2
BITMAP
0091
0063
0080
0066
0092
0360
1A20
1200
ENDCHAR
STARTCHAR asciitilde
ENCODING 126
SWIDTH 550 0
DWIDTH 4 0
BBX 5 2 0 2
BITMAP
141010
448810
ENDCHAR
STARTCHAR nonbreakingspace
ENCODING 160
SWIDTH 259 0
DWIDTH 2 0
BBX 1 1 0 0
BITMAP
00
ENDCHAR
STARTCHAR exclamdown
ENCODING 161
SWIDTH 258 0
DWIDTH 2 0
BBX 2 7 0 -2
BITMAP
03
08
14
44
81
B0
50
ENDCHAR
STARTCHAR cent
ENCODING 162
SWIDTH 550 0
DWIDTH 4 0
BBX 5 6 0 0
BITMAP
002500
049710
0A0000
190000
0B4300
038100
ENDCHAR
STARTCHAR sterling
ENCODING 163
SWIDTH 550 0
DWIDTH 4 0
BBX 5 6 0 0
BITMAP
008940
055000
092000
4C7200
190000
CA9600
ENDCHAR
STARTCHAR currency
ENCODING 164
SWIDTH 550 0
DWIDTH 4 0
BBX 4 4 0 1
BITMAP
2344
0A49
1808
2888
ENDCHAR
STARTCHAR yen
ENCODING 165
SWIDTH 550 0
DWIDTH 4 0
BBX 5 6 0 0
BITMAP
070170
090820
076600
2AD500
39A300
072000
ENDCHAR
STARTCHAR brokenbar
ENCODING 166
SWIDTH 550 0
DWIDTH 4 0
BBX 1 9 2 -2
BITMAP
10
80
80
80
00
10
80
80
80
ENDCHAR
STARTCHAR section
ENCODING 167
SWIDTH 485 0
DWIDTH 4 0
BBX 4 7 0 0
BITMAP
0010
0976
0960
2766
2A73
02B0
6890
ENDCHAR
STARTCHAR dieresis
ENCODING 168
SWIDTH 554 0
DWIDTH 4 0
BBX 3 1 1 5
BITMAP
1460
ENDCHAR
STARTCHAR copyright
ENCODING 169
SWIDTH 832 0
DWIDTH 7 0
BBX 7 7 0 -1
BITMAP
01666100
18384800
51A00250
60900160
26683610
04757400
00010000
ENDCHAR
STARTCHAR ordfeminine
ENCODING 170
SWIDTH 334 0
DWIDTH 3 0
BBX 3 3 0 3
BITMAP
0680
3370
3770
ENDCHAR
STARTCHAR guillemotleft
ENCODING 171
SWIDTH 467 0
DWIDTH 4 0
BBX 4 4 0 0
BITMAP
0514
6591
5590
0431
ENDCHAR
STARTCHAR logicalnot
ENCODING 172
SWIDTH 550 0
DWIDTH 4 0
BBX 5 3 0 1
BITMAP
111100
377B10
000710
ENDCHAR
STARTCHAR uni00AD
ENCODING 173
SWIDTH 312 0
DWIDTH 3 0
BBX 3 2 0 1
BITMAP
5710
2300
ENDCHAR
STARTCHAR registered
ENCODING 174
SWIDTH 832 0
DWIDTH 7 0
BBX 7 7 0 -1
BITMAP
01666100
18483800
51718250
607A3160
26617610
04757400
00010000
ENDCHAR
STARTCHAR overscore
ENCODING 175
SWIDTH 381 0
DWIDTH 3 0
BBX 3 1 1 6
BITMAP
8880
ENDCHAR
STARTCHAR degree
ENCODING 176
SWIDTH 428 0
DWIDTH 3 0
BBX 4 3 0 3
BITMAP
0770
2643
0670
ENDCHAR
STARTCHAR plusminus
ENCODING 177
SWIDTH 550 0
DWIDTH 4 0
BBX 5 5 0 0
BITMAP
005000
019100
47C710
008000
488810
ENDCHAR
STARTCHAR twosuperior
ENCODING 178
SWIDTH 350 0
DWIDTH 3 0
BBX 3 4 0 2
BITMAP
0670
0080
0720
5840
ENDCHAR
STARTCHAR threesuperior
ENCODING 179
SWIDTH 350 0
DWIDTH 3 0
BBX 3 4 0 2
BITMAP
0670
0470
0280
4740
ENDCHAR
STARTCHAR acute
ENCODING 180
SWIDTH 554 0
DWIDTH 4 0
BBX 2 3 2 4
BITMAP
01
74
10
ENDCHAR
STARTCHAR mu
ENCODING 181
SWIDTH 583 0
DWIDTH 5 0
BBX 6 7 -1 -2
BITMAP
003012
019064
046091
0731B0
099790
090000
180000
ENDCHAR
STARTCHAR paragraph
ENCODING 182
SWIDTH 654 0
DWIDTH 5 0
BBX 5 8 0 -1
BITMAP
001110
0BFB90
2FF770
2FF770
09D770
000770
000770
000770
ENDCHAR
STARTCHAR periodcentered
ENCODING 183
SWIDTH 252 0
DWIDTH 2 0
BBX 2 2 0 2
BITMAP
13
35
ENDCHAR
STARTCHAR cedilla
ENCODING 184
SWIDTH 205 0
DWIDTH 2 0
BBX 2 2 -1 -2
BITMAP
17
47
ENDCHAR
STARTCHAR onesuperior
ENCODING 185
SWIDTH 350 0
DWIDTH 3 0
BBX 2 4 1 2
BITMAP
55
54
61
50
ENDCHAR
STARTCHAR ordmasculine
ENCODING 186
SWIDTH 335 0
DWIDTH 3 0
BBX 3 3 0 3
BITMAP
0660
4370
2750
ENDCHAR
STARTCHAR guillemotright
ENCODING 187
SWIDTH 467 0
DWIDTH 4 0
BBX 4 4 0 0
BITMAP
3250
1972
5692
3210
ENDCHAR
STARTCHAR onequarter
ENCODING 188
SWIDTH 741 0
DWIDTH 6 0
BBX 6 6 0 0
BITMAP
073051
181360
081831
0583B1
064991
361391
ENDCHAR
STARTCHAR onehalf
ENCODING 189
SWIDTH 741 0
DWIDTH 6 0
BBX 6 6 0 0
BITMAP
181060
180630
083762
168118
081072
530A82
ENDCHAR
STARTCHAR threequarters
ENCODING 190
SWIDTH 764 0
DWIDTH 6 0
BBX 6 6 0 0
BITMAP
076006
046081
037544
475768
008588
072274
ENDCHAR
STARTCHAR questiondown
ENCODING 191
SWIDTH 426 0
DWIDTH 3 0
BBX 3 7 0 -2
BITMAP
0030
0080
0140
1920
A100
B120
4840
ENDCHAR
STARTCHAR Agrave
ENCODING 192
SWIDTH 555 0
DWIDTH 4 0
BBX 5 8 -1 0
BITMAP
000500
000530
000640
001A70
008390
02C6B0
0943A0
3800A0
ENDCHAR
STARTCHAR Aacute
ENCODING 193
SWIDTH 555 0
DWIDTH 4 0
BBX 6 8 -1 0
BITMAP
000041
000260
000640
001A70
008390
02C6B0
0943A0
3800A0
ENDCHAR
STARTCHAR Acircumflex
ENCODING 194
SWIDTH 555 0
DWIDTH 4 0
BBX 6 8 -1 0
BITMAP
000250
000771
000640
001A70
008390
02C6B0
0943A0
3800A0
ENDCHAR
STARTCHAR Atilde
ENCODING 195
SWIDTH 555 0
DWIDTH 4 0
BBX 6 8 -1 0
BITMAP
000201
002893
000640
001A70
008390
02C6B0
0943A0
3800A0
ENDCHAR
STARTCHAR Adieresis
ENCODING 196
SWIDTH 555 0
DWIDTH 4 0
BBX 6 8 -1 0
BITMAP
000110
000541
000640
001A70
008390
02C6B0
0943A0
3800A0
ENDCHAR
STARTCHAR Aring
ENCODING 197
SWIDTH 555 0
DWIDTH 4 0
BBX 5 7 -1 0
BITMAP
000670
000A90
001A70
008390
02C6B0
0943A0
3800A0
ENDCHAR
STARTCHAR AE
ENCODING 198
SWIDTH 816 0
DWIDTH 7 0
BBX 8 6 -1 0
BITMAP
0001AA97
00087600
00387741
00C7C441
0853B000
3902D960
ENDCHAR
STARTCHAR Ccedilla
ENCODING 199
SWIDTH 584 0
DWIDTH 5 0
BBX 5 8 0 -2
BITMAP
008980
0A3000
280000
550000
560000
0A9900
009000
038000
ENDCHAR
STARTCHAR Egrave
ENCODING 200
SWIDTH 511 0
DWIDTH 4 0
BBX 5 8 0 0
BITMAP
004000
003400
069930
0A0000
0B4300
2A5300
550000
8A9200
ENDCHAR
STARTCHAR Eacute
ENCODING 201
SWIDTH 511 0
DWIDTH 4 0
BBX 5 8 0 0
BITMAP
000510
002500
069930
0A0000
0B4300
2A5300
550000
8A9200
ENDCHAR
STARTCHAR Ecircumflex
ENCODING 202
SWIDTH 511 0
DWIDTH 4 0
BBX 5 8 0 0
BITMAP
001500
007710
069930
0A0000
0B4300
2A5300
550000
8A9200
ENDCHAR
STARTCHAR Edieresis
ENCODING 203
SWIDTH 511 0
DWIDTH 4 0
BBX 5 8 0 0
BITMAP
001100
005410
069930
0A0000
0B4300
2A5300
550000
8A9200
ENDCHAR
STARTCHAR Igrave
ENCODING 204
SWIDTH 272 0
DWIDTH 2 0
BBX 3 8 0 0
BITMAP
0500
0520
0610
0A00
0A00
2800
5500
8200
ENDCHAR
STARTCHAR Iacute
ENCODING 205
SWIDTH 272 0
DWIDTH 2 0
BBX 4 8 0 0
BITMAP
0041
0260
0610
0A00
0A00
2800
5500
8200
ENDCHAR
STARTCHAR Icircumflex
ENCODING 206
SWIDTH 272 0
DWIDTH 2 0
BBX 4 8 0 0
BITMAP
0240
1771
0610
0A00
0A00
2800
5500
8200
ENDCHAR
STARTCHAR Idieresis
ENCODING 207
SWIDTH 272 0
DWIDTH 2 0
BBX 4 8 0 0
BITMAP
0110
0541
0610
0A00
0A00
2800
5500
8200
ENDCHAR
STARTCHAR Eth
ENCODING 208
SWIDTH 666 0
DWIDTH 5 0
BBX 6 6 0 0
BITMAP
069920
0A01B0
1B20A1
6B60B0
550480
8A9800
ENDCHAR
STARTCHAR Ntilde
ENCODING 209
SWIDTH 702 0
DWIDTH 6 0
BBX 6 8 0 0
BITMAP
000110
005880
064016
099046
0A8173
283790
540A90
810780
ENDCHAR
STARTCHAR Ograve
ENCODING 210
SWIDTH 720 0
DWIDTH 6 0
BBX 6 9 0 -1
BITMAP
002300
000700
018970
0A2075
380037
650056
5600B2
0A9A50
001000
ENDCHAR
STARTCHAR Oacute
ENCODING 211
SWIDTH 720 0
DWIDTH 6 0
BBX 6 9 0 -1
BITMAP
000050
000620
018970
0A2075
380037
650056
5600B2
0A9A50
001000
ENDCHAR
STARTCHAR Ocircumflex
ENCODING 212
SWIDTH 720 0
DWIDTH 6 0
BBX 6 9 0 -1
BITMAP
000520
003560
018970
0A2075
380037
650056
5600B2
0A9A50
001000
ENDCHAR
STARTCHAR Otilde
ENCODING 213
SWIDTH 720 0
DWIDTH 6 0
BBX 6 9 0 -1
BITMAP
001110
006870
018970
0A2075
380037
650056
5600B2
0A9A50
001000
ENDCHAR
STARTCHAR Odieresis
ENCODING 214
SWIDTH 720 0
DWIDTH 6 0
BBX 6 9 0 -1
BITMAP
000010
003250
018970
0A2075
380037
650056
5600B2
0A9A50
001000
ENDCHAR
STARTCHAR multiply
ENCODING 215
SWIDTH 550 0
DWIDTH 4 0
BBX 4 4 0 1
BITMAP
1203
1975
07B2
2517
ENDCHAR
STARTCHAR Oslash
ENCODING 216
SWIDTH 720 0
DWIDTH 6 0
BBX 6 7 0 -1
BITMAP
018986
0A21D5
380957
658356
5B60B2
3D9A50
101000
ENDCHAR
STARTCHAR Ugrave
ENCODING 217
SWIDTH 675 0
DWIDTH 5 0
BBX 6 9 0 -1
BITMAP
002300
000700
071035
0A0074
0A00A1
3700A0
550280
1B8A10
001000
ENDCHAR
STARTCHAR Uacute
ENCODING 218
SWIDTH 675 0
DWIDTH 5 0
BBX 6 9 0 -1
BITMAP
000050
000620
071035
0A0074
0A00A1
3700A0
550280
1B8A10
001000
ENDCHAR
STARTCHAR Ucircumflex
ENCODING 219
SWIDTH 675 0
DWIDTH 5 0
BBX 6 9 0 -1
BITMAP
000510
004560
071035
0A0074
0A00A1
3700A0
550280
1B8A10
001000
ENDCHAR
STARTCHAR Udieresis
ENCODING 220
SWIDTH 675 0
DWIDTH 5 0
BBX 6 9 0 -1
BITMAP
001010
004150
071035
0A0074
0A00A1
3700A0
550280
1B8A10
001000
ENDCHAR
STARTCHAR Yacute
ENCODING 221
SWIDTH 502 0
DWIDTH 4 0
BBX 5 8 0 0
BITMAP
000500
004400
250260
090A10
097400
068000
073000
0A0000
ENDCHAR
STARTCHAR Thorn
ENCODING 222
SWIDTH 565 0
DWIDTH 5 0
BBX 5 6 0 0
BITMAP
061000
0A9800
0A0740
280920
5B9500
820000
ENDCHAR
STARTCHAR germandbls
ENCODING 223
SWIDTH 577 0
DWIDTH 5 0
BBX 6 9 -1 -2
BITMAP
000110
0059A3
009092
019830
046660
0730A0
0A5890
0A0100
950000
ENDCHAR
STARTCHAR agrave
ENCODING 224
SWIDTH 564 0
DWIDTH 5 0
BBX 5 7 0 0
BITMAP
001000
009100
015210
1B4B30
740B00
922B00
5A7800
ENDCHAR
STARTCHAR aacute
ENCODING 225
SWIDTH 564 0
DWIDTH 5 0
BBX 5 7 0 0
BITMAP
000100
004700
016110
1B4B30
740B00
922B00
5A7800
ENDCHAR
STARTCHAR acircumflex
ENCODING 226
SWIDTH 564 0
DWIDTH 5 0
BBX 5 7 0 0
BITMAP
001100
018800
025210
1B4B30
740B00
922B00
5A7800
ENDCHAR
STARTCHAR atilde
ENCODING 227
SWIDTH 564 0
DWIDTH 5 0
BBX 5 6 0 0
BITMAP
049810
024210
1B4B30
740B00
922B00
5A7800
ENDCHAR
STARTCHAR adieresis
ENCODING 228
SWIDTH 564 0
DWIDTH 5 0
BBX 5 6 0 0
BITMAP
024600
014110
1B4B30
740B00
922B00
5A7800
ENDCHAR
STARTCHAR aring
ENCODING 229
SWIDTH 564 0
DWIDTH 5 0
BBX 5 7 0 0
BITMAP
004300
008600
015110
1B4B30
740B00
922B00
5A7800
ENDCHAR
STARTCHAR ae
ENCODING 230
SWIDTH 814 0
DWIDTH 7 0
BBX 7 6 0 -1
BITMAP
01422400
1B4D7840
740D7910
924C1000
699C8700
00001000
ENDCHAR
STARTCHAR ccedilla
ENCODING 231
SWIDTH 450 0
DWIDTH 4 0
BBX 4 7 0 -2
BITMAP
0152
1B43
7400
9200
4A80
0810
1820
ENDCHAR
STARTCHAR egrave
ENCODING 232
SWIDTH 493 0
DWIDTH 4 0
BBX 4 7 0 0
BITMAP
0010
0190
0161
1A49
7994
9300
4A82
ENDCHAR
STARTCHAR eacute
ENCODING 233
SWIDTH 493 0
DWIDTH 4 0
BBX 4 7 0 0
BITMAP
0001
0046
0161
1A49
7994
9300
4A82
ENDCHAR
STARTCHAR ecircumflex
ENCODING 234
SWIDTH 493 0
DWIDTH 4 0
BBX 4 7 0 0
BITMAP
0010
0296
0252
1A49
7994
9300
4A82
ENDCHAR
STARTCHAR edieresis
ENCODING 235
SWIDTH 493 0
DWIDTH 4 0
BBX 4 6 0 0
BITMAP
0336
0151
1A49
7994
9300
4A82
ENDCHAR
STARTCHAR igrave
ENCODING 236
SWIDTH 253 0
DWIDTH 2 0
BBX 2 7 0 0
BITMAP
11
18
04
19
46
73
90
ENDCHAR
STARTCHAR iacute
ENCODING 237
SWIDTH 253 0
DWIDTH 2 0
BBX 3 7 0 0
BITMAP
0010
0460
0400
1900
4600
7300
9000
ENDCHAR
STARTCHAR icircumflex
ENCODING 238
SWIDTH 253 0
DWIDTH 2 0
BBX 3 7 0 0
BITMAP
0100
2960
1310
1900
4600
7300
9000
ENDCHAR
STARTCHAR idieresis
ENCODING 239
SWIDTH 253 0
DWIDTH 2 0
BBX 3 6 0 0
BITMAP
3360
0300
1900
4600
7300
9000
ENDCHAR
STARTCHAR eth
ENCODING 240
SWIDTH 568 0
DWIDTH 5 0
BBX 5 6 0 0
BITMAP
009920
016A00
078B20
550B10
910A00
5A9400
ENDCHAR
STARTCHAR ntilde
ENCODING 241
SWIDTH 577 0
DWIDTH 5 0
BBX 5 6 0 0
BITMAP
049820
033500
1C5A20
480910
730A00
901900
ENDCHAR
STARTCHAR ograve
ENCODING 242
SWIDTH 561 0
DWIDTH 4 0
BBX 5 7 0 0
BITMAP
001000
009000
015100
1A4B00
730910
920B00
4A9400
ENDCHAR
STARTCHAR oacute
ENCODING 243
SWIDTH 561 0
DWIDTH 4 0
BBX 5 7 0 0
BITMAP
000100
004600
016100
1A4B00
730910
920B00
4A9400
ENDCHAR
STARTCHAR ocircumflex
ENCODING 244
SWIDTH 561 0
DWIDTH 4 0
BBX 5 7 0 0
BITMAP
001000
018800
025200
1A4B00
730910
920B00
4A9400
ENDCHAR
STARTCHAR otilde
ENCODING 245
SWIDTH 561 0
DWIDTH 4 0
BBX 5 6 0 0
BITMAP
049810
025200
1A4B00
730910
920B00
4A9400
ENDCHAR
STARTCHAR odieresis
ENCODING 246
SWIDTH 561 0
DWIDTH 4 0
BBX 5 6 0 0
BITMAP
023600
015100
1A4B00
730910
920B00
4A9400
ENDCHAR
STARTCHAR divide
ENCODING 247
SWIDTH 550 0
DWIDTH 4 0
BBX 5 4 0 1
BITMAP
016000
124100
377710
018000
ENDCHAR
STARTCHAR oslash
ENCODING 248
SWIDTH 561 0
DWIDTH 4 0
BBX 5 6 0 -1
BITMAP
015410
1A5E00
739A10
892A00
7B9400
100000
ENDCHAR
STARTCHAR ugrave
ENCODING 249
SWIDTH 577 0
DWIDTH 5 0
BBX 5 7 0 0
BITMAP
001000
009000
031210
190730
460A00
731B00
698900
ENDCHAR
STARTCHAR uacute
ENCODING 250
SWIDTH 577 0
DWIDTH 5 0
BBX 5 7 0 0
BITMAP
000100
002800
031110
190730
460A00
731B00
698900
ENDCHAR
STARTCHAR ucircumflex
ENCODING 251
SWIDTH 577 0
DWIDTH 5 0
BBX 5 7 0 0
BITMAP
001100
018800
040210
190730
460A00
731B00
698900
ENDCHAR
STARTCHAR udieresis
ENCODING 252
SWIDTH 577 0
DWIDTH 5 0
BBX 5 6 0 0
BITMAP
014600
030110
190730
460A00
731B00
698900
ENDCHAR
STARTCHAR yacute
ENCODING 253
SWIDTH 461 0
DWIDTH 4 0
BBX 5 9 -1 -2
BITMAP
000010
000820
020130
072190
054820
038800
01D100
037000
690000
ENDCHAR
STARTCHAR thorn
ENCODING 254
SWIDTH 577 0
DWIDTH 5 0
BBX 6 9 -1 -2
BITMAP
001000
009100
00A330
01D5A2
048083
0750A0
098960
0A0000
180000
ENDCHAR
STARTCHAR ydieresis
ENCODING 255
SWIDTH 461 0
DWIDTH 4 0
BBX 5 8 -1 -2
BITMAP
006240
020030
072190
054820
038800
01D100
037000
690000
ENDCHAR
STARTCHAR Amacron
ENCODING 256
SWIDTH 555 0
DWIDTH 4 0
BBX 6 7 -1 0
BITMAP
000881
000640
001A70
008390
02C6B0
0943A0
3800A0
ENDCHAR
STARTCHAR amacron
ENCODING 257
SWIDTH 564 0
DWIDTH 5 0
BBX 5 6 0 0
BITMAP
016600
027310
1B4B30
740B00
922B00
5A7800
ENDCHAR
STARTCHAR Abreve
ENCODING 258
SWIDTH 555 0
DWIDTH 4 0
BBX 6 8 -1 0
BITMAP
000111
000781
000640
001A70
008390
02C6B0
0943A0
3800A0
ENDCHAR
STARTCHAR abreve
ENCODING 259
SWIDTH 564 0
DWIDTH 5 0
BBX 5 6 0 0
BITMAP
019800
015210
1B4B30
740B00
922B00
5A7800
ENDCHAR
STARTCHAR Aogonek
ENCODING 260
SWIDTH 555 0
DWIDTH 4 0
BBX 5 8 -1 -2
BITMAP
000640
001A70
008390
02C6B0
0943A0
3800A0
000250
000350
ENDCHAR
STARTCHAR aogonek
ENCODING 261
SWIDTH 564 0
DWIDTH 5 0
BBX 5 7 0 -2
BITMAP
014110
1B4B30
740B00
922B00
5A7800
007100
007100
ENDCHAR
STARTCHAR Cacute
ENCODING 262
SWIDTH 584 0
DWIDTH 5 0
BBX 5 9 0 -1
BITMAP
000050
000530
008980
0A3000
280000
550000
560000
0A9900
001000
ENDCHAR
STARTCHAR cacute
ENCODING 263
SWIDTH 450 0
DWIDTH 4 0
BBX 4 7 0 0
BITMAP
0001
0037
0162
1B43
7400
9200
4A80
ENDCHAR
STARTCHAR Ccircumflex
ENCODING 264
SWIDTH 584 0
DWIDTH 5 0
BBX 5 9 0 -1
BITMAP
000520
003560
008980
0A3000
280000
550000
560000
0A9900
001000
ENDCHAR
STARTCHAR ccircumflex
ENCODING 265
SWIDTH 450 0
DWIDTH 4 0
BBX 4 7 0 0
BITMAP
0010
0296
0253
1B43
7400
9200
4A80
ENDCHAR
STARTCHAR Cdot
ENCODING 266
SWIDTH 584 0
DWIDTH 5 0
BBX 5 9 0 -1
BITMAP
000100
000600
008980
0A3000
280000
550000
560000
0A9900
001000
ENDCHAR
STARTCHAR cdot
ENCODING 267
SWIDTH 450 0
DWIDTH 4 0
BBX 4 6 0 0
BITMAP
0061
0152
1B43
7400
9200
4A80
ENDCHAR
STARTCHAR Ccaron
ENCODING 268
SWIDTH 584 0
DWIDTH 5 0
BBX 5 9 0 -1
BITMAP
003140
001A20
008980
0A3000
280000
550000
560000
0A9900
001000
ENDCHAR
STARTCHAR ccaron
ENCODING 269
SWIDTH 450 0
DWIDTH 4 0
BBX 4 7 0 0
BITMAP
0101
02A6
0162
1B43
7400
9200
4A80
ENDCHAR
STARTCHAR Dcaron
ENCODING 270
SWIDTH 666 0
DWIDTH 5 0
BBX 6 8 0 0
BITMAP
003130
004900
069920
0A01B0
0A00A1
2800B0
550480
8A9800
ENDCHAR
STARTCHAR dcaron
ENCODING 271
SWIDTH 577 0
DWIDTH 5 0
BBX 6 7 0 0
BITMAP
000011
000099
014471
1A4C30
740B00
922B00
5A7900
ENDCHAR
STARTCHAR Dcroat
ENCODING 272
SWIDTH 666 0
DWIDTH 5 0
BBX 6 6 0 0
BITMAP
069920
0A01B0
1B20A1
6B60B0
550480
8A9800
ENDCHAR
STARTCHAR dcroat
ENCODING 273
SWIDTH 577 0
DWIDTH 5 0
BBX 6 7 0 0
BITMAP
000010
0035C1
016680
1A3C30
740B00
922B00
5A7900
ENDCHAR
STARTCHAR Emacron
ENCODING 274
SWIDTH 511 0
DWIDTH 4 0
BBX 5 7 0 0
BITMAP
008810
069930
0A0000
0B4300
2A5300
550000
8A9200
ENDCHAR
STARTCHAR emacron
ENCODING 275
SWIDTH 493 0
DWIDTH 4 0
BBX 4 6 0 0
BITMAP
0265
0273
1A49
7994
9300
4A82
ENDCHAR
STARTCHAR Ebreve
ENCODING 276
SWIDTH 511 0
DWIDTH 4 0
BBX 5 8 0 0
BITMAP
001010
007810
069930
0A0000
0B4300
2A5300
550000
8A9200
ENDCHAR
STARTCHAR ebreve
ENCODING 277
SWIDTH 493 0
DWIDTH 4 0
BBX 4 6 0 0
BITMAP
0387
0161
1A49
7994
9300
4A82
ENDCHAR
STARTCHAR Edotaccent
ENCODING 278
SWIDTH 511 0
DWIDTH 4 0
BBX 5 7 0 0
BITMAP
003400
069930
0A0000
0B4300
2A5300
550000
8A9200
ENDCHAR
STARTCHAR edotaccent
ENCODING 279
SWIDTH 493 0
DWIDTH 4 0
BBX 4 6 0 0
BITMAP
0070
0151
1A49
7994
9300
4A82
ENDCHAR
STARTCHAR Eogonek
ENCODING 280
SWIDTH 511 0
DWIDTH 4 0
BBX 5 8 0 -2
BITMAP
069930
0A0000
0B4300
2A5300
550000
8A9200
016000
027000
ENDCHAR
STARTCHAR eogonek
ENCODING 281
SWIDTH 493 0
DWIDTH 4 0
BBX 4 7 0 -2
BITMAP
0151
1A49
7994
9300
4A92
0440
0250
ENDCHAR
STARTCHAR Ecaron
ENCODING 282
SWIDTH 511 0
DWIDTH 4 0
BBX 5 8 0 0
BITMAP
003220
006700
069930
0A0000
0B4300
2A5300
550000
8A9200
ENDCHAR
STARTCHAR ecaron
ENCODING 283
SWIDTH 493 0
DWIDTH 4 0
BBX 4 7 0 0
BITMAP
0101
02A6
0171
1A49
7994
9300
4A82
ENDCHAR
STARTCHAR Gcircumflex
ENCODING 284
SWIDTH 676 0
DWIDTH 5 0
BBX 6 9 0 -1
BITMAP
000510
004560
008992
0A3000
280000
5508C0
5600A0
0A9A60
001000
ENDCHAR
STARTCHAR gcircumflex
ENCODING 285
SWIDTH 500 0
DWIDTH 4 0
BBX 6 9 -1 -2
BITMAP
000100
003960
004551
039590
055650
038500
09A810
650740
398800
ENDCHAR
STARTCHAR Gbreve
ENCODING 286
SWIDTH 676 0
DWIDTH 5 0
BBX 6 9 0 -1
BITMAP
001010
003850
008992
0A3000
280000
5508C0
5600A0
0A9A60
001000
ENDCHAR
STARTCHAR gbreve
ENCODING 287
SWIDTH 500 0
DWIDTH 4 0
BBX 6 8 -1 -2
BITMAP
004760
002641
039590
055650
038500
09A810
650740
398800
ENDCHAR
STARTCHAR Gdot
ENCODING 288
SWIDTH 676 0
DWIDTH 5 0
BBX 6 9 0 -1
BITMAP
000100
000600
008992
0A3000
280000
5508C0
5600A0
0A9A60
001000
ENDCHAR
STARTCHAR gdot
ENCODING 289
SWIDTH 500 0
DWIDTH 4 0
BBX 6 8 -1 -2
BITMAP
000610
002541
039590
055650
038500
09A810
650740
398800
ENDCHAR
STARTCHAR Gcommaaccent
ENCODING 290
SWIDTH 676 0
DWIDTH 5 0
BBX 6 8 0 -2
BITMAP
008992
0A3000
280000
5508C0
5600A0
0A9A60
005000
015000
ENDCHAR
STARTCHAR gcommaaccent
ENCODING 291
SWIDTH 500 0
DWIDTH 4 0
BBX 6 9 -1 -2
BITMAP
000010
000450
002641
039590
055650
038500
09A810
650740
398800
ENDCHAR
STARTCHAR Hcircumflex
ENCODING 292
SWIDTH 678 0
DWIDTH 5 0
BBX 6 8 0 0
BITMAP
000510
004560
061034
0A0073
0B44B0
2A55B0
550280
820550
ENDCHAR
STARTCHAR hcircumflex
ENCODING 293
SWIDTH 577 0
DWIDTH 5 0
BBX 5 8 0 0
BITMAP
003700
015410
091000
0A3400
1D5A10
480910
730A00
A01900
ENDCHAR
STARTCHAR Hbar
ENCODING 294
SWIDTH 678 0
DWIDTH 5 0
BBX 6 6 0 0
BITMAP
061034
4D98B9
0B44B0
2A55B0
550290
820560
ENDCHAR
STARTCHAR hbar
ENCODING 295
SWIDTH 577 0
DWIDTH 5 0
BBX 5 7 0 0
BITMAP
010000
1B6200
1A4400
1C6B10
480910
730A00
901900
ENDCHAR
STARTCHAR Itilde
ENCODING 296
SWIDTH 272 0
DWIDTH 2 0
BBX 4 8 0 0
BITMAP
0201
3792
0610
0A00
0A00
2800
5500
8200
ENDCHAR
STARTCHAR itilde
ENCODING 297
SWIDTH 253 0
DWIDTH 2 0
BBX 3 6 0 0
BITMAP
5980
1310
1900
4600
7300
9000
ENDCHAR
STARTCHAR Imacron
ENCODING 298
SWIDTH 272 0
DWIDTH 2 0
BBX 3 7 0 0
BITMAP
1880
0610
0A00
0A00
2800
5500
8200
ENDCHAR
STARTCHAR imacron
ENCODING 299
SWIDTH 253 0
DWIDTH 2 0
BBX 3 6 0 0
BITMAP
3640
1510
1900
4600
7300
9000
ENDCHAR
STARTCHAR Ibreve
ENCODING 300
SWIDTH 272 0
DWIDTH 2 0
BBX 4 8 0 0
BITMAP
0111
0880
0610
0A00
0A00
2800
5500
8200
ENDCHAR
STARTCHAR ibreve
ENCODING 301
SWIDTH 253 0
DWIDTH 2 0
BBX 3 6 0 0
BITMAP
4770
0400
1900
4600
7300
9000
ENDCHAR
STARTCHAR Iogonek
ENCODING 302
SWIDTH 272 0
DWIDTH 2 0
BBX 4 8 -1 -2
BITMAP
0061
00A0
00A0
0280
0550
0820
1600
2600
ENDCHAR
STARTCHAR iogonek
ENCODING 303
SWIDTH 253 0
DWIDTH 2 0
BBX 4 8 -1 -2
BITMAP
0071
0030
0190
0460
0730
0900
2500
3500
ENDCHAR
STARTCHAR Idotaccent
ENCODING 304
SWIDTH 272 0
DWIDTH 2 0
BBX 3 8 0 0
BITMAP
0010
0240
0610
0A00
0A00
2800
5500
8200
ENDCHAR
STARTCHAR dotlessi
ENCODING 305
SWIDTH 253 0
DWIDTH 2 0
BBX 2 5 0 0
BITMAP
03
19
46
73
90
ENDCHAR
STARTCHAR IJ
ENCODING 306
SWIDTH 540 0
DWIDTH 4 0
BBX 5 8 0 -2
BITMAP
061430
0A0820
0A0A00
280A00
552800
826400
02B100
073000
ENDCHAR
STARTCHAR ij
ENCODING 307
SWIDTH 507 0
DWIDTH 4 0
BBX 5 8 0 -2
BITMAP
071610
030300
190900
463700
736400
909100
00A000
095000
ENDCHAR
STARTCHAR Jcircumflex
ENCODING 308
SWIDTH 267 0
DWIDTH 2 0
BBX 5 10 -2 -2
BITMAP
000240
001670
000610
000A00
000A00
002800
005500
008200
13B000
272000
ENDCHAR
STARTCHAR jcircumflex
ENCODING 309
SWIDTH 253 0
DWIDTH 2 0
BBX 4 9 -1 -2
BITMAP
0010
0396
0131
0190
0460
0730
0900
0A00
9500
ENDCHAR
STARTCHAR Kcommaaccent
ENCODING 310
SWIDTH 557 0
DWIDTH 4 0
BBX 5 8 0 -2
BITMAP
061180
0A1A20
0BA200
2BA100
555600
820B00
032000
060000
ENDCHAR
STARTCHAR kcommaaccent
ENCODING 311
SWIDTH 487 0
DWIDTH 4 0
BBX 4 9 0 -2
BITMAP
0100
0910
0A03
1965
4B70
75A0
A083
0500
0600
ENDCHAR
STARTCHAR kgreenlandic
ENCODING 312
SWIDTH 487 0
DWIDTH 4 0
BBX 4 5 0 0
BITMAP
0303
1965
4B70
75A0
A083
ENDCHAR
STARTCHAR Lacute
ENCODING 313
SWIDTH 474 0
DWIDTH 4 0
BBX 4 8 0 0
BITMAP
0041
0160
0610
0A00
0A00
2800
5500
8A92
ENDCHAR
STARTCHAR lacute
ENCODING 314
SWIDTH 253 0
DWIDTH 2 0
BBX 4 8 0 0
BITMAP
0071
0330
0910
0A00
1900
4600
7300
A000
ENDCHAR
STARTCHAR Lcommaaccent
ENCODING 315
SWIDTH 474 0
DWIDTH 4 0
BBX 4 8 0 -2
BITMAP
0610
0A00
0A00
2800
5500
8A92
0220
0600
ENDCHAR
STARTCHAR lcommaaccent
ENCODING 316
SWIDTH 253 0
DWIDTH 2 0
BBX 4 9 -1 -2
BITMAP
0010
0091
00A0
0190
0460
0730
0A00
0500
2300
ENDCHAR
STARTCHAR Lcaron
ENCODING 317
SWIDTH 474 0
DWIDTH 4 0
BBX 4 6 0 0
BITMAP
0616
0A04
0A00
2800
5500
8A92
ENDCHAR
STARTCHAR lcaron
ENCODING 318
SWIDTH 253 0
DWIDTH 2 0
BBX 4 7 0 0
BITMAP
0101
0973
0A10
1900
4600
7300
A000
ENDCHAR
STARTCHAR Ldot
ENCODING 319
SWIDTH 474 0
DWIDTH 4 0
BBX 4 6 0 0
BITMAP
0610
0A00
0A01
2823
5500
8A92
ENDCHAR
STARTCHAR ldot
ENCODING 320
SWIDTH 283 0
DWIDTH 2 0
BBX 3 7 0 0
BITMAP
0100
0910
0A00
1930
4640
7300
A000
ENDCHAR
STARTCHAR Lslash
ENCODING 321
SWIDTH 474 0
DWIDTH 4 0
BBX 4 6 0 0
BITMAP
0610
0A00
0B40
6B10
6500
9A92
ENDCHAR
STARTCHAR lslash
ENCODING 322
SWIDTH 250 0
DWIDTH 2 0
BBX 3 7 0 0
BITMAP
0100
0910
0A00
1C10
9600
7300
A000
ENDCHAR
STARTCHAR Nacute
ENCODING 323
SWIDTH 702 0
DWIDTH 6 0
BBX 6 8 0 0
BITMAP
000050
000520
064016
099046
0A8173
283790
540A90
810780
ENDCHAR
STARTCHAR nacute
ENCODING 324
SWIDTH 577 0
DWIDTH 5 0
BBX 5 7 0 0
BITMAP
000100
002800
024400
1C5A20
480910
730A00
901900
ENDCHAR
STARTCHAR Ncommaaccent
ENCODING 325
SWIDTH 702 0
DWIDTH 6 0
BBX 6 8 0 -2
BITMAP
064016
099046
0A8173
283790
540A90
810780
004000
042000
ENDCHAR
STARTCHAR ncommaaccent
ENCODING 326
SWIDTH 577 0
DWIDTH 5 0
BBX 5 7 0 -2
BITMAP
023400
1C5A20
480910
730A00
901900
040000
060000
ENDCHAR
STARTCHAR Ncaron
ENCODING 327
SWIDTH 702 0
DWIDTH 6 0
BBX 6 8 0 0
BITMAP
002140
001A30
064016
099046
0A8173
283790
540A90
810780
ENDCHAR
STARTCHAR ncaron
ENCODING 328
SWIDTH 577 0
DWIDTH 5 0
BBX 5 7 0 0
BITMAP
000100
009800
024400
1C5A20
480910
730A00
901900
ENDCHAR
STARTCHAR napostrophe
ENCODING 329
SWIDTH 645 0
DWIDTH 5 0
BBX 5 6 0 0
BITMAP
080000
561410
2794A0
0A1190
0A0460
280830
ENDCHAR
STARTCHAR Eng
ENCODING 330
SWIDTH 702 0
DWIDTH 6 0
BBX 6 8 0 -2
BITMAP
064016
099046
0A8173
2837A0
540990
810680
002840
005500
ENDCHAR
STARTCHAR eng
ENCODING 331
SWIDTH 577 0
DWIDTH 5 0
BBX 5 7 0 -2
BITMAP
023400
1C5A20
480910
730A00
901900
004600
03A100
ENDCHAR
STARTCHAR Omacron
ENCODING 332
SWIDTH 720 0
DWIDTH 6 0
BBX 6 8 0 -1
BITMAP
004860
018970
0A2075
380037
650056
5600B2
0A9A50
001000
ENDCHAR
STARTCHAR omacron
ENCODING 333
SWIDTH 561 0
DWIDTH 4 0
BBX 5 6 0 0
BITMAP
026500
027300
1A4B00
730910
920B00
4A9400
ENDCHAR
STARTCHAR Obreve
ENCODING 334
SWIDTH 720 0
DWIDTH 6 0
BBX 6 9 0 -1
BITMAP
001010
004840
018970
0A2075
380037
650056
5600B2
0A9A50
001000
ENDCHAR
STARTCHAR obreve
ENCODING 335
SWIDTH 561 0
DWIDTH 4 0
BBX 5 6 0 0
BITMAP
038700
016100
1A4B00
730910
920B00
4A9400
ENDCHAR
STARTCHAR Ohungarumlaut
ENCODING 336
SWIDTH 720 0
DWIDTH 6 0
BBX 6 9 0 -1
BITMAP
000423
001561
018970
0A2075
380037
650056
5600B2
0A9A50
001000
ENDCHAR
STARTCHAR ohungarumlaut
ENCODING 337
SWIDTH 561 0
DWIDTH 4 0
BBX 5 7 0 0
BITMAP
001110
018720
025200
1A4B00
730910
920B00
4A9400
ENDCHAR
STARTCHAR OE
ENCODING 338
SWIDTH 854 0
DWIDTH 7 0
BBX 8 7 0 -1
BITMAP
0189A991
0A20A000
3803A420
65067420
56091000
0A9D9900
00100000
ENDCHAR
STARTCHAR oe
ENCODING 339
SWIDTH 863 0
DWIDTH 7 0
BBX 7 5 0 0
BITMAP
01411510
1A4A9490
74099940
910C3000
4A979810
ENDCHAR
STARTCHAR Racute
ENCODING 340
SWIDTH 568 0
DWIDTH 5 0
BBX 5 8 0 0
BITMAP
000410
002600
069910
0A0470
0A0750
2CC600
553700
820B00
ENDCHAR
STARTCHAR racute
ENCODING 341
SWIDTH 395 0
DWIDTH 3 0
BBX 4 7 0 0
BITMAP
0001
0083
0242
1C61
4800
7300
9000
ENDCHAR
STARTCHAR Rcommaaccent
ENCODING 342
SWIDTH 568 0
DWIDTH 5 0
BBX 5 8 0 -2
BITMAP
069910
0A0470
0A0750
2CC600
553700
820B00
023000
050000
ENDCHAR
STARTCHAR rcommaaccent
ENCODING 343
SWIDTH 395 0
DWIDTH 3 0
BBX 5 7 -1 -2
BITMAP
002320
01C610
048000
073000
090000
050000
330000
ENDCHAR
STARTCHAR Rcaron
ENCODING 344
SWIDTH 568 0
DWIDTH 5 0
BBX 5 8 0 0
BITMAP
003220
006700
069910
0A0470
0A0750
2CC600
553700
820B00
ENDCHAR
STARTCHAR rcaron
ENCODING 345
SWIDTH 395 0
DWIDTH 3 0
BBX 4 7 0 0
BITMAP
0101
0693
0352
1C61
4800
7300
9000
ENDCHAR
STARTCHAR Sacute
ENCODING 346
SWIDTH 501 0
DWIDTH 4 0
BBX 4 9 0 -1
BITMAP
0005
0035
0699
1A00
0B20
02A3
0038
88A2
0100
ENDCHAR
STARTCHAR sacute
ENCODING 347
SWIDTH 428 0
DWIDTH 3 0
BBX 4 8 0 -1
BITMAP
0001
0082
0450
5851
3A10
02A0
8880
0100
ENDCHAR
STARTCHAR Scircumflex
ENCODING 348
SWIDTH 501 0
DWIDTH 4 0
BBX 4 9 0 -1
BITMAP
0033
0267
0699
1A00
0B20
02A3
0038
88A2
0100
ENDCHAR
STARTCHAR scircumflex
ENCODING 349
SWIDTH 428 0
DWIDTH 3 0
BBX 4 8 0 -1
BITMAP
0010
06A1
0551
5851
3A10
02A0
8880
0100
ENDCHAR
STARTCHAR Scedilla
ENCODING 350
SWIDTH 501 0
DWIDTH 4 0
BBX 4 8 0 -2
BITMAP
0699
1A00
0B20
02A3
0038
88A2
0900
2800
ENDCHAR
STARTCHAR scedilla
ENCODING 351
SWIDTH 428 0
DWIDTH 3 0
BBX 4 7 0 -2
BITMAP
0440
5851
3A10
02A0
8880
1800
4700
ENDCHAR
STARTCHAR Scaron
ENCODING 352
SWIDTH 501 0
DWIDTH 4 0
BBX 4 9 0 -1
BITMAP
0224
00A4
0699
1A00
0B20
02A3
0038
88A2
0100
ENDCHAR
STARTCHAR scaron
ENCODING 353
SWIDTH 428 0
DWIDTH 3 0
BBX 4 8 0 -1
BITMAP
0101
0882
0550
5851
3A10
02A0
8880
0100
ENDCHAR
STARTCHAR Tcedilla
ENCODING 354
SWIDTH 498 0
DWIDTH 4 0
BBX 5 8 0 -2
BITMAP
29A960
00A000
01A000
047000
073000
0A0000
080000
380000
ENDCHAR
STARTCHAR tcedilla
ENCODING 355
SWIDTH 324 0
DWIDTH 3 0
BBX 3 8 0 -2
BITMAP
0200
2B30
3A30
4600
7300
6910
3600
5600
ENDCHAR
STARTCHAR Tcaron
ENCODING 356
SWIDTH 498 0
DWIDTH 4 0
BBX 5 8 0 0
BITMAP
003310
008600
29A960
00A000
01A000
047000
073000
0A0000
ENDCHAR
STARTCHAR tcaron
ENCODING 357
SWIDTH 324 0
DWIDTH 3 0
BBX 4 7 0 0
BITMAP
0001
0226
2B50
3A30
4600
7300
6910
ENDCHAR
STARTCHAR Tbar
ENCODING 358
SWIDTH 498 0
DWIDTH 4 0
BBX 5 6 0 0
BITMAP
29A960
00A000
13B200
189300
073000
0A0000
ENDCHAR
STARTCHAR tbar
ENCODING 359
SWIDTH 324 0
DWIDTH 3 0
BBX 3 6 0 0
BITMAP
0200
2B30
3A30
8B30
7300
6910
ENDCHAR
STARTCHAR Utilde
ENCODING 360
SWIDTH 675 0
DWIDTH 5 0
BBX 6 9 0 -1
BITMAP
001110
006870
071035
0A0074
0A00A1
3700A0
550280
1B8A10
001000
ENDCHAR
STARTCHAR utilde
ENCODING 361
SWIDTH 577 0
DWIDTH 5 0
BBX 5 6 0 0
BITMAP
039820
040210
190730
460A00
731B00
698900
ENDCHAR
STARTCHAR Umacron
ENCODING 362
SWIDTH 675 0
DWIDTH 5 0
BBX 6 8 0 -1
BITMAP
004850
071035
0A0074
0A00A1
3700A0
550280
1B8A10
001000
ENDCHAR
STARTCHAR umacron
ENCODING 363
SWIDTH 577 0
DWIDTH 5 0
BBX 5 6 0 0
BITMAP
016600
032310
190730
460A00
731B00
698900
ENDCHAR
STARTCHAR Ubreve
ENCODING 364
SWIDTH 675 0
DWIDTH 5 0
BBX 6 9 0 -1
BITMAP
001010
003850
071035
0A0074
0A00A1
3700A0
550280
1B8A10
001000
ENDCHAR
STARTCHAR ubreve
ENCODING 365
SWIDTH 577 0
DWIDTH 5 0
BBX 5 6 0 0
BITMAP
018800
031210
190730
460A00
731B00
698900
ENDCHAR
STARTCHAR Uring
ENCODING 366
SWIDTH 675 0
DWIDTH 5 0
BBX 6 9 0 -1
BITMAP
001730
002730
071035
0A0074
0A00A1
3700A0
550280
1B8A10
001000
ENDCHAR
STARTCHAR uring
ENCODING 367
SWIDTH 577 0
DWIDTH 5 0
BBX 5 7 0 0
BITMAP
004300
008600
031210
190730
460A00
731B00
698900
ENDCHAR
STARTCHAR Uhungarumlaut
ENCODING 368
SWIDTH 675 0
DWIDTH 5 0
BBX 6 9 0 -1
BITMAP
000432
002560
071035
0A0074
0A00A1
3700A0
550280
1B8A10
001000
ENDCHAR
STARTCHAR uhungarumlaut
ENCODING 369
SWIDTH 577 0
DWIDTH 5 0
BBX 5 7 0 0
BITMAP
001110
008630
030210
190730
460A00
731B00
698900
ENDCHAR
STARTCHAR Uogonek
ENCODING 370
SWIDTH 675 0
DWIDTH 5 0
BBX 6 8 0 -2
BITMAP
071035
0A0074
0A00A1
3700A0
550280
1B8A10
008000
008000
ENDCHAR
STARTCHAR uogonek
ENCODING 371
SWIDTH 577 0
DWIDTH 5 0
BBX 5 7 0 -2
BITMAP
030110
190730
460A00
731B00
698900
007100
007100
ENDCHAR
STARTCHAR Wcircumflex
ENCODING 372
SWIDTH 852 0
DWIDTH 7 0
BBX 8 8 0 0
BITMAP
00016000
00066200
16046044
190980A0
19369370
0A909810
0B709800
0D10B200
ENDCHAR
STARTCHAR wcircumflex
ENCODING 373
SWIDTH 716 0
DWIDTH 6 0
BBX 6 7 0 0
BITMAP
000100
005A20
202213
827819
738873
792890
690B40
ENDCHAR
STARTCHAR Ycircumflex
ENCODING 374
SWIDTH 502 0
DWIDTH 4 0
BBX 5 8 0 0
BITMAP
004200
035700
250260
090A10
097400
068000
073000
0A0000
ENDCHAR
STARTCHAR ycircumflex
ENCODING 375
SWIDTH 461 0
DWIDTH 4 0
BBX 5 9 -1 -2
BITMAP
000100
006A20
021040
072190
054820
038800
01D100
037000
690000
ENDCHAR
STARTCHAR Ydieresis
ENCODING 376
SWIDTH 502 0
DWIDTH 4 0
BBX 5 8 0 0
BITMAP
001100
023500
250260
090A10
097400
068000
073000
0A0000
ENDCHAR
STARTCHAR Zacute
ENCODING 377
SWIDTH 530 0
DWIDTH 4 0
BBX 5 8 0 0
BITMAP
000410
002600
089A50
000A10
009300
065000
380000
D99500
ENDCHAR
STARTCHAR zacute
ENCODING 378
SWIDTH 443 0
DWIDTH 4 0
BBX 4 7 0 0
BITMAP
0001
0073
0452
03A3
0650
3800
D750
ENDCHAR
STARTCHAR Zdotaccent
ENCODING 379
SWIDTH 530 0
DWIDTH 4 0
BBX 5 8 0 0
BITMAP
000100
003300
089A50
000A10
009300
065000
380000
D99500
ENDCHAR
STARTCHAR zdotaccent
ENCODING 380
SWIDTH 443 0
DWIDTH 4 0
BBX 4 6 0 0
BITMAP
0070
0442
03A3
0650
3800
D750
ENDCHAR
STARTCHAR Zcaron
ENCODING 381
SWIDTH 530 0
DWIDTH 4 0
BBX 5 8 0 0
BITMAP
003210
007700
089A50
000A10
009300
065000
380000
D99500
ENDCHAR
STARTCHAR zcaron
ENCODING 382
SWIDTH 443 0
DWIDTH 4 0
BBX 4 7 0 0
BITMAP
0101
0693
0462
03A3
0650
3800
D750
ENDCHAR
STARTCHAR longs
ENCODING 383
SWIDTH 274 0
DWIDTH 2 0
BBX 5 9 -1 -2
BITMAP
000100
007820
00A000
019000
046000
073000
0A0000
0A0000
950000
ENDCHAR
STARTCHAR florin
ENCODING 402
SWIDTH 550 0
DWIDTH 4 0
BBX 5 8 0 -2
BITMAP
004920
00A000
05C400
037000
063000
090000
0A0000
950000
ENDCHAR
STARTCHAR Ohorn
ENCODING 416
SWIDTH 713 0
DWIDTH 6 0
BBX 7 8 0 -1
BITMAP
00000010
01897560
0A207800
38003700
65005600
5600B200
0A9A5000
00100000
ENDCHAR
STARTCHAR ohorn
ENCODING 417
SWIDTH 561 0
DWIDTH 4 0
BBX 6 5 0 0
BITMAP
014191
1A4C40
730910
920B00
4A9400
ENDCHAR
STARTCHAR Uhorn
ENCODING 431
SWIDTH 722 0
DWIDTH 6 0
BBX 7 8 0 -1
BITMAP
00000010
071037A0
0A007700
0A00A100
3700A000
55028000
1B8A1000
00100000
ENDCHAR
STARTCHAR uhorn
ENCODING 432
SWIDTH 617 0
DWIDTH 5 0
BBX 6 5 0 0
BITMAP
030139
190791
460A00
731B00
698900
ENDCHAR
STARTCHAR uni01F0
ENCODING 496
SWIDTH 253 0
DWIDTH 2 0
BBX 4 9 -1 -2
BITMAP
0101
02A6
0040
0190
0460
0730
0900
0A00
9500
ENDCHAR
STARTCHAR Aringacute
ENCODING 506
SWIDTH 555 0
DWIDTH 4 0
BBX 6 8 -1 0
BITMAP
000071
000450
000770
001B80
008390
02C6B0
0933A0
3800A0
ENDCHAR
STARTCHAR aringacute
ENCODING 507
SWIDTH 564 0
DWIDTH 5 0
BBX 5 8 0 0
BITMAP
000710
005300
007700
017210
1B4B30
740B00
922B00
5A7800
ENDCHAR
STARTCHAR AEacute
ENCODING 508
SWIDTH 816 0
DWIDTH 7 0
BBX 8 8 -1 0
BITMAP
00000050
00000440
0001AA97
00087600
00387741
00C7C441
0853B000
3902D960
ENDCHAR
STARTCHAR aeacute
ENCODING 509
SWIDTH 814 0
DWIDTH 7 0
BBX 7 8 0 -1
BITMAP
00001000
00019000
01433400
1B4D7840
740D7910
924C1000
699C8700
00001000
ENDCHAR
STARTCHAR Oslashacute
ENCODING 510
SWIDTH 720 0
DWIDTH 6 0
BBX 6 9 0 -1
BITMAP
000150
000620
018986
0A21D5
380957
658356
5B60B2
3D9A50
101000
ENDCHAR
STARTCHAR oslashacute
ENCODING 511
SWIDTH 561 0
DWIDTH 4 0
BBX 5 8 0 -1
BITMAP
000100
004600
016410
1A5E00
739A10
892A00
7B9400
100000
ENDCHAR
STARTCHAR Scommaaccent
ENCODING 536
SWIDTH 501 0
DWIDTH 4 0
BBX 4 8 0 -2
BITMAP
0699
1A00
0B20
02A3
0038
88A2
0600
1400
ENDCHAR
STARTCHAR scommaaccent
ENCODING 537
SWIDTH 428 0
DWIDTH 3 0
BBX 4 7 0 -2
BITMAP
0440
5851
3A10
02A0
8880
1400
5100
ENDCHAR
STARTCHAR Tcommaaccent
ENCODING 538
SWIDTH 498 0
DWIDTH 4 0
BBX 5 8 0 -2
BITMAP
29A960
00A000
01A000
047000
073000
0A0000
050000
330000
ENDCHAR
STARTCHAR tcommaaccent
ENCODING 539
SWIDTH 324 0
DWIDTH 3 0
BBX 3 8 0 -2
BITMAP
0200
2B30
3A30
4600
7300
6910
2300
5000
ENDCHAR
STARTCHAR dotlessj
ENCODING 567
SWIDTH 253 0
DWIDTH 2 0
BBX 3 7 -1 -2
BITMAP
0030
0190
0460
0730
0900
0A00
9500
ENDCHAR
STARTCHAR uni02BC
ENCODING 700
SWIDTH 169 0
DWIDTH 1 0
BBX 2 3 0 3
BITMAP
08
37
20
ENDCHAR
STARTCHAR circumflex
ENCODING 710
SWIDTH 554 0
DWIDTH 4 0
BBX 3 3 1 4
BITMAP
0110
1880
1010
ENDCHAR
STARTCHAR caron
ENCODING 711
SWIDTH 554 0
DWIDTH 4 0
BBX 2 2 2 4
BITMAP
98
10
ENDCHAR
STARTCHAR macron
ENCODING 713
SWIDTH 535 0
DWIDTH 4 0
BBX 3 2 1 4
BITMAP
2650
1220
ENDCHAR
STARTCHAR breve
ENCODING 728
SWIDTH 554 0
DWIDTH 4 0
BBX 3 2 1 4
BITMAP
1980
0100
ENDCHAR
STARTCHAR dotaccent
ENCODING 729
SWIDTH 243 0
DWIDTH 2 0
BBX 1 1 1 5
BITMAP
70
ENDCHAR
STARTCHAR ring
ENCODING 730
SWIDTH 577 0
DWIDTH 5 0
BBX 2 3 2 4
BITMAP
34
77
01
ENDCHAR
STARTCHAR ogonek
ENCODING 731
SWIDTH 182 0
DWIDTH 1 0
BBX 2 2 -1 -2
BITMAP
43
44
ENDCHAR
STARTCHAR tilde
ENCODING 732
SWIDTH 554 0
DWIDTH 4 0
BBX 4 2 1 4
BITMAP
5981
1010
ENDCHAR
STARTCHAR hungarumlaut
ENCODING 733
SWIDTH 554 0
DWIDTH 4 0
BBX 4 3 1 4
BITMAP
0111
2881
1010
ENDCHAR
STARTCHAR uni02F3
ENCODING 755
SWIDTH 333 0
DWIDTH 3 0
BBX 3 3 -1 -3
BITMAP
0610
3750
0100
ENDCHAR
STARTCHAR uni0300
ENCODING 768
SWIDTH 0 0
DWIDTH 0 0
BBX 2 3 -3 4
BITMAP
10
73
01
ENDCHAR
STARTCHAR uni0301
ENCODING 769
SWIDTH 0 0
DWIDTH 0 0
BBX 2 3 -2 4
BITMAP
01
82
10
ENDCHAR
STARTCHAR uni0303
ENCODING 771
SWIDTH 0 0
DWIDTH 0 0
BBX 4 2 -4 4
BITMAP
1984
1010
ENDCHAR
STARTCHAR hook
ENCODING 777
SWIDTH 0 0
DWIDTH 0 0
BBX 2 3 -3 4
BITMAP
26
18
11
ENDCHAR
STARTCHAR uni030F
ENCODING 783
SWIDTH 0 0
DWIDTH 0 0
BBX 3 3 -4 4
BITMAP
1100
9560
0110
ENDCHAR
STARTCHAR dotbelow
ENCODING 803
SWIDTH 0 0
DWIDTH 0 0
BBX 2 2 -4 -2
BITMAP
13
12
ENDCHAR
STARTCHAR tonos
ENCODING 900
SWIDTH 562 0
DWIDTH 5 0
BBX 2 3 2 4
BITMAP
05
45
10
ENDCHAR
STARTCHAR dieresistonos
ENCODING 901
SWIDTH 562 0
DWIDTH 5 0
BBX 3 2 1 5
BITMAP
0070
2670
ENDCHAR
STARTCHAR Alphatonos
ENCODING 902
SWIDTH 555 0
DWIDTH 4 0
BBX 5 6 -1 0
BITMAP
01A640
032A70
008390
02C6B0
0943A0
3800A0
ENDCHAR
STARTCHAR anoteleia
ENCODING 903
SWIDTH 252 0
DWIDTH 2 0
BBX 2 2 0 2
BITMAP
13
35
ENDCHAR
STARTCHAR Epsilontonos
ENCODING 904
SWIDTH 567 0
DWIDTH 5 0
BBX 5 6 0 0
BITMAP
47A980
446000
077410
0A5510
0A0000
1D9700
ENDCHAR
STARTCHAR Etatonos
ENCODING 905
SWIDTH 753 0
DWIDTH 6 0
BBX 6 6 0 0
BITMAP
467007
42800A
058459
086586
0A0072
0A00A0
ENDCHAR
STARTCHAR Iotatonos
ENCODING 906
SWIDTH 363 0
DWIDTH 3 0
BBX 3 6 0 0
BITMAP
3870
41A0
0370
0640
0910
0A00
ENDCHAR
STARTCHAR Omicrontonos
ENCODING 908
SWIDTH 756 0
DWIDTH 6 0
BBX 6 6 0 0
BITMAP
386991
475039
0B000B
19001A
0B0075
07A980
ENDCHAR
STARTCHAR Upsilontonos
ENCODING 910
SWIDTH 640 0
DWIDTH 5 0
BBX 6 6 0 0
BITMAP
476016
40A091
009650
005A00
006400
009100
ENDCHAR
STARTCHAR Omegatonos
ENCODING 911
SWIDTH 782 0
DWIDTH 6 0
BBX 6 6 0 0
BITMAP
296992
47601A
0B000B
0B001A
0A1083
5B79C5
ENDCHAR
STARTCHAR iotadieresistonos
ENCODING 912
SWIDTH 305 0
DWIDTH 2 0
BBX 3 7 0 0
BITMAP
0260
4560
0300
1900
4600
7200
7800
ENDCHAR
STARTCHAR Alpha
ENCODING 913
SWIDTH 555 0
DWIDTH 4 0
BBX 5 6 -1 0
BITMAP
000640
001A70
008390
02C6B0
0943A0
3800A0
ENDCHAR
STARTCHAR Beta
ENCODING 914
SWIDTH 598 0
DWIDTH 5 0
BBX 5 6 0 0
BITMAP
069930
0A01A0
0B4750
2A5910
550740
8A9900
ENDCHAR
STARTCHAR Gamma
ENCODING 915
SWIDTH 476 0
DWIDTH 4 0
BBX 5 6 0 0
BITMAP
069930
0A0000
0A0000
280000
550000
820000
ENDCHAR
STARTCHAR uni0394
ENCODING 916
SWIDTH 558 0
DWIDTH 4 0
BBX 5 6 -1 0
BITMAP
000540
001A70
007390
0190A0
0820A0
1D99C0
ENDCHAR
STARTCHAR Epsilon
ENCODING 917
SWIDTH 511 0
DWIDTH 4 0
BBX 5 6 0 0
BITMAP
069930
0A0000
0B4300
2A5300
550000
8A9200
ENDCHAR
STARTCHAR Zeta
ENCODING 918
SWIDTH 530 0
DWIDTH 4 0
BBX 5 6 0 0
BITMAP
089A50
000A10
009300
065000
380000
D99500
ENDCHAR
STARTCHAR Eta
ENCODING 919
SWIDTH 678 0
DWIDTH 5 0
BBX 6 6 0 0
BITMAP
061034
0A0073
0B44B0
2A55B0
550280
820550
ENDCHAR
STARTCHAR Theta
ENCODING 920
SWIDTH 720 0
DWIDTH 6 0
BBX 6 7 0 -1
BITMAP
018970
0A2075
383347
656656
5600B2
0A9A50
001000
ENDCHAR
STARTCHAR Iota
ENCODING 921
SWIDTH 272 0
DWIDTH 2 0
BBX 3 6 0 0
BITMAP
0610
0A00
0A00
2800
5500
8200
ENDCHAR
STARTCHAR Kappa
ENCODING 922
SWIDTH 557 0
DWIDTH 4 0
BBX 5 6 0 0
BITMAP
061180
0A1A20
0BA200
2BA100
555600
820B00
ENDCHAR
STARTCHAR Lambda
ENCODING 923
SWIDTH 558 0
DWIDTH 4 0
BBX 5 6 -1 0
BITMAP
000540
001A80
008290
0290A0
0920A0
380090
ENDCHAR
STARTCHAR Mu
ENCODING 924
SWIDTH 836 0
DWIDTH 7 0
BBX 7 6 0 0
BITMAP
06600570
09901B70
09907840
27927910
54891A00
81661900
ENDCHAR
STARTCHAR Nu
ENCODING 925
SWIDTH 702 0
DWIDTH 6 0
BBX 6 6 0 0
BITMAP
064016
099046
0A8173
283790
540A90
810780
ENDCHAR
STARTCHAR Xi
ENCODING 926
SWIDTH 517 0
DWIDTH 4 0
BBX 5 6 0 0
BITMAP
079930
000000
044200
044200
000000
999400
ENDCHAR
STARTCHAR Omicron
ENCODING 927
SWIDTH 720 0
DWIDTH 6 0
BBX 6 7 0 -1
BITMAP
018970
0A2075
380037
650056
5600B2
0A9A50
001000
ENDCHAR
STARTCHAR Pi
ENCODING 928
SWIDTH 679 0
DWIDTH 5 0
BBX 6 6 0 0
BITMAP
0699A4
0A0073
0A00A0
2800A0
550190
820560
ENDCHAR
STARTCHAR Rho
ENCODING 929
SWIDTH 565 0
DWIDTH 5 0
BBX 5 6 0 0
BITMAP
069810
0A0470
0A0650
2C8600
550000
820000
ENDCHAR
STARTCHAR Sigma
ENCODING 931
SWIDTH 520 0
DWIDTH 4 0
BBX 5 6 0 0
BITMAP
0A9940
091000
037000
056000
380000
D99500
ENDCHAR
STARTCHAR Tau
ENCODING 932
SWIDTH 498 0
DWIDTH 4 0
BBX 5 6 0 0
BITMAP
29A960
00A000
01A000
047000
073000
0A0000
ENDCHAR
STARTCHAR Upsilon
ENCODING 933
SWIDTH 502 0
DWIDTH 4 0
BBX 5 6 0 0
BITMAP
250260
090A10
097400
068000
073000
0A0000
ENDCHAR
STARTCHAR Phi
ENCODING 934
SWIDTH 744 0
DWIDTH 6 0
BBX 6 7 0 -1
BITMAP
000810
079DA4
38190A
554628
2BA9A1
01B200
001000
ENDCHAR
STARTCHAR Chi
ENCODING 935
SWIDTH 519 0
DWIDTH 4 0
BBX 6 6 -1 0
BITMAP
007026
009191
004C20
007B00
047730
290280
ENDCHAR
STARTCHAR Psi
ENCODING 936
SWIDTH 734 0
DWIDTH 6 0
BBX 7 6 0 0
BITMAP
07070620
190A0A00
37190A00
1B8AA400
01A51000
00A00000
ENDCHAR
STARTCHAR uni03A9
ENCODING 937
SWIDTH 732 0
DWIDTH 6 0
BBX 6 6 0 0
BITMAP
018970
0B2065
480038
560065
2901A0
9D3DA2
ENDCHAR
STARTCHAR Iotadieresis
ENCODING 938
SWIDTH 272 0
DWIDTH 2 0
BBX 3 8 0 0
BITMAP
0110
0550
0610
0A00
0A00
2800
5500
8200
ENDCHAR
STARTCHAR Upsilondieresis
ENCODING 939
SWIDTH 502 0
DWIDTH 4 0
BBX 5 8 0 0
BITMAP
001100
023500
250260
090A10
097400
068000
073000
0A0000
ENDCHAR
STARTCHAR alphatonos
ENCODING 940
SWIDTH 568 0
DWIDTH 5 0
BBX 5 7 0 0
BITMAP
000500
004600
016120
1B4C40
740B00
922B00
5A7B10
ENDCHAR
STARTCHAR epsilontonos
ENCODING 941
SWIDTH 444 0
DWIDTH 4 0
BBX 4 8 0 -1
BITMAP
0023
0082
0262
1A43
1B50
9310
8880
0100
ENDCHAR
STARTCHAR etatonos
ENCODING 942
SWIDTH 577 0
DWIDTH 5 0
BBX 5 9 0 -2
BITMAP
000500
004600
024400
1C5A20
480910
730A00
901900
004600
006300
ENDCHAR
STARTCHAR iotatonos
ENCODING 943
SWIDTH 305 0
DWIDTH 2 0
BBX 3 7 0 0
BITMAP
0140
0630
0400
1900
4600
7200
7800
ENDCHAR
STARTCHAR upsilondieresistonos
ENCODING 944
SWIDTH 576 0
DWIDTH 5 0
BBX 5 7 0 0
BITMAP
001700
036700
030210
190640
450820
730A00
3A9500
ENDCHAR
STARTCHAR alpha
ENCODING 945
SWIDTH 568 0
DWIDTH 5 0
BBX 5 5 0 0
BITMAP
014120
1B4C40
740B00
922B00
5A7B10
ENDCHAR
STARTCHAR beta
ENCODING 946
SWIDTH 577 0
DWIDTH 5 0
BBX 6 9 -1 -2
BITMAP
000010
0049A4
00A047
019681
046290
073091
0A8880
0A0000
180000
ENDCHAR
STARTCHAR gamma
ENCODING 947
SWIDTH 458 0
DWIDTH 4 0
BBX 4 7 0 -2
BITMAP
2003
7229
5482
3880
0D10
3700
8200
ENDCHAR
STARTCHAR delta
ENCODING 948
SWIDTH 553 0
DWIDTH 4 0
BBX 5 7 0 0
BITMAP
001100
03A830
037000
05A600
650A00
A00A00
599400
ENDCHAR
STARTCHAR epsilon
ENCODING 949
SWIDTH 444 0
DWIDTH 4 0
BBX 4 6 0 -1
BITMAP
0252
1A43
1B50
9310
8880
0100
ENDCHAR
STARTCHAR zeta
ENCODING 950
SWIDTH 453 0
DWIDTH 4 0
BBX 5 9 0 -2
BITMAP
001100
038C10
019100
091000
550000
820000
4A3000
01A000
024000
ENDCHAR
STARTCHAR eta
ENCODING 951
SWIDTH 577 0
DWIDTH 5 0
BBX 5 7 0 -2
BITMAP
023400
1C5A20
480910
730A00
901900
004600
006300
ENDCHAR
STARTCHAR theta
ENCODING 952
SWIDTH 542 0
DWIDTH 4 0
BBX 5 7 0 0
BITMAP
001100
068B10
190720
5A6B10
842B00
912800
599100
ENDCHAR
STARTCHAR iota
ENCODING 953
SWIDTH 305 0
DWIDTH 2 0
BBX 2 5 0 0
BITMAP
03
19
46
72
78
ENDCHAR
STARTCHAR kappa
ENCODING 954
SWIDTH 487 0
DWIDTH 4 0
BBX 4 5 0 0
BITMAP
0303
1965
4B70
75A0
A083
ENDCHAR
STARTCHAR lambda
ENCODING 955
SWIDTH 482 0
DWIDTH 4 0
BBX 5 7 -1 0
BITMAP
001000
019500
001800
006900
018900
082900
380840
ENDCHAR
STARTCHAR uni03BC
ENCODING 956
SWIDTH 583 0
DWIDTH 5 0
BBX 6 7 -1 -2
BITMAP
003012
019064
046091
0731B0
099790
090000
180000
ENDCHAR
STARTCHAR nu
ENCODING 957
SWIDTH 488 0
DWIDTH 4 0
BBX 4 5 0 0
BITMAP
2003
820A
6446
46A1
2D30
ENDCHAR
STARTCHAR xi
ENCODING 958
SWIDTH 444 0
DWIDTH 4 0
BBX 4 9 0 -2
BITMAP
0111
05B6
0900
0782
4820
9100
4A20
01A0
0240
ENDCHAR
STARTCHAR omicron
ENCODING 959
SWIDTH 561 0
DWIDTH 4 0
BBX 5 5 0 0
BITMAP
015100
1A4B00
730910
920B00
4A9400
ENDCHAR
STARTCHAR pi
ENCODING 960
SWIDTH 600 0
DWIDTH 5 0
BBX 5 5 0 0
BITMAP
144440
3B4B40
280A00
551900
822B00
ENDCHAR
STARTCHAR rho
ENCODING 961
SWIDTH 570 0
DWIDTH 5 0
BBX 6 7 -1 -2
BITMAP
001520
00A4A1
036082
0730A0
098960
0A0000
180000
ENDCHAR
STARTCHAR sigma1
ENCODING 962
SWIDTH 453 0
DWIDTH 4 0
BBX 4 7 0 -2
BITMAP
0152
1A43
7300
9200
3A30
01A0
0250
ENDCHAR
STARTCHAR sigma
ENCODING 963
SWIDTH 581 0
DWIDTH 5 0
BBX 5 5 0 0
BITMAP
013430
1A5A30
730A00
910A00
4A9400
ENDCHAR
STARTCHAR tau
ENCODING 964
SWIDTH 417 0
DWIDTH 3 0
BBX 4 5 0 0
BITMAP
1442
3A52
0A00
0A00
0B50
ENDCHAR
STARTCHAR upsilon
ENCODING 965
SWIDTH 576 0
DWIDTH 5 0
BBX 5 5 0 0
BITMAP
030210
190640
450820
730A00
3A9500
ENDCHAR
STARTCHAR phi
ENCODING 966
SWIDTH 669 0
DWIDTH 5 0
BBX 5 7 0 -2
BITMAP
010420
1A57B0
7391A0
92A1A0
3ADA20
046000
063000
ENDCHAR
STARTCHAR chi
ENCODING 967
SWIDTH 502 0
DWIDTH 4 0
BBX 6 7 -1 -2
BITMAP
021021
02A190
009820
009600
02C400
0A4600
731A20
ENDCHAR
STARTCHAR psi
ENCODING 968
SWIDTH 713 0
DWIDTH 6 0
BBX 6 9 0 -2
BITMAP
000100
000A00
030A12
193755
466464
6491A1
2AD940
019000
036000
ENDCHAR
STARTCHAR omega
ENCODING 969
SWIDTH 729 0
DWIDTH 6 0
BBX 6 5 0 0
BITMAP
030011
190046
644346
918273
699990
ENDCHAR
STARTCHAR iotadieresis
ENCODING 970
SWIDTH 305 0
DWIDTH 2 0
BBX 3 6 0 0
BITMAP
4260
0300
1900
4600
7200
7800
ENDCHAR
STARTCHAR upsilondieresis
ENCODING 971
SWIDTH 576 0
DWIDTH 5 0
BBX 5 6 0 0
BITMAP
024600
030210
190640
450820
730A00
3A9500
ENDCHAR
STARTCHAR omicrontonos
ENCODING 972
SWIDTH 561 0
DWIDTH 4 0
BBX 5 7 0 0
BITMAP
000500
004500
016100
1A4B00
730910
920B00
4A9400
ENDCHAR
STARTCHAR upsilontonos
ENCODING 973
SWIDTH 576 0
DWIDTH 5 0
BBX 5 7 0 0
BITMAP
000500
005400
031210
190640
450820
730A00
3A9500
ENDCHAR
STARTCHAR omegatonos
ENCODING 974
SWIDTH 729 0
DWIDTH 6 0
BBX 6 7 0 0
BITMAP
000230
000810
030111
190046
644346
918273
699990
ENDCHAR
STARTCHAR uni03D1
ENCODING 977
SWIDTH 569 0
DWIDTH 5 0
BBX 5 8 0 -1
BITMAP
002000
058A00
083720
427B60
650A00
912800
789100
010000
ENDCHAR
STARTCHAR uni03D2
ENCODING 978
SWIDTH 509 0
DWIDTH 4 0
BBX 5 6 0 0
BITMAP
250370
091A00
097200
068000
073000
0A0000
ENDCHAR
STARTCHAR uni03D6
ENCODING 982
SWIDTH 791 0
DWIDTH 6 0
BBX 7 5 0 0
BITMAP
14444420
2B445A20
28122800
55555600
3B9AA100
ENDCHAR
STARTCHAR uni0400
ENCODING 1024
SWIDTH 511 0
DWIDTH 4 0
BBX 5 8 0 0
BITMAP
004000
003400
069930
0A0000
0B4300
2A5300
550000
8A9200
ENDCHAR
STARTCHAR afii10023
ENCODING 1025
SWIDTH 511 0
DWIDTH 4 0
BBX 5 8 0 0
BITMAP
001100
005410
069930
0A0000
0B4300
2A5300
550000
8A9200
ENDCHAR
STARTCHAR afii10051
ENCODING 1026
SWIDTH 666 0
DWIDTH 5 0
BBX 5 6 0 0
BITMAP
29A930
028000
05A720
0933A0
0A00A0
0A3A40
ENDCHAR
STARTCHAR afii10052
ENCODING 1027
SWIDTH 476 0
DWIDTH 4 0
BBX 5 8 0 0
BITMAP
000510
002500
069930
0A0000
0A0000
280000
550000
820000
ENDCHAR
STARTCHAR afii10053
ENCODING 1028
SWIDTH 584 0
DWIDTH 5 0
BBX 5 7 0 -1
BITMAP
008980
0A3000
2B4400
584400
560000
0A9900
001000
ENDCHAR
STARTCHAR afii10054
ENCODING 1029
SWIDTH 501 0
DWIDTH 4 0
BBX 4 7 0 -1
BITMAP
0699
1A00
0B20
02A3
0038
88A2
0100
ENDCHAR
STARTCHAR afii10055
ENCODING 1030
SWIDTH 272 0
DWIDTH 2 0
BBX 3 6 0 0
BITMAP
0610
0A00
0A00
2800
5500
8200
ENDCHAR
STARTCHAR afii10056
ENCODING 1031
SWIDTH 272 0
DWIDTH 2 0
BBX 3 8 0 0
BITMAP
0110
0550
0610
0A00
0A00
2800
5500
8200
ENDCHAR
STARTCHAR afii10057
ENCODING 1032
SWIDTH 267 0
DWIDTH 2 0
BBX 5 8 -2 -2
BITMAP
000610
000A00
000A00
002800
005500
008200
13B000
272000
ENDCHAR
STARTCHAR afii10058
ENCODING 1033
SWIDTH 889 0
DWIDTH 7 0
BBX 8 6 -1 0
BITMAP
00079A00
000A0A00
00372A30
00735887
00A08229
2A50B892
ENDCHAR
STARTCHAR afii10059
ENCODING 1034
SWIDTH 901 0
DWIDTH 7 0
BBX 7 6 0 0
BITMAP
06107000
0A00A000
0B44B300
2A589780
550731A0
820A9930
ENDCHAR
STARTCHAR afii10060
ENCODING 1035
SWIDTH 666 0
DWIDTH 5 0
BBX 5 6 0 0
BITMAP
29A930
028000
05A720
0933A0
0A0090
0A0370
ENDCHAR
STARTCHAR afii10061
ENCODING 1036
SWIDTH 559 0
DWIDTH 4 0
BBX 5 8 0 0
BITMAP
000320
000700
061180
0A1920
0B9200
2B8000
558300
821A00
ENDCHAR
STARTCHAR uni040D
ENCODING 1037
SWIDTH 696 0
DWIDTH 6 0
BBX 6 8 0 0
BITMAP
002300
000700
061056
0902B5
091982
279290
5A4090
870280
ENDCHAR
STARTCHAR afii10062
ENCODING 1038
SWIDTH 571 0
DWIDTH 5 0
BBX 6 9 0 -1
BITMAP
012130
019830
170071
0A0380
082A10
03A500
02B000
9A1000
100000
ENDCHAR
STARTCHAR afii10145
ENCODING 1039
SWIDTH 679 0
DWIDTH 5 0
BBX 6 8 0 -2
BITMAP
062034
0A0073
0A00A0
2800A0
550190
8A9A60
028000
023000
ENDCHAR
STARTCHAR afii10017
ENCODING 1040
SWIDTH 555 0
DWIDTH 4 0
BBX 5 6 -1 0
BITMAP
000640
001A70
008390
02C6B0
0943A0
3800A0
ENDCHAR
STARTCHAR afii10018
ENCODING 1041
SWIDTH 563 0
DWIDTH 5 0
BBX 5 6 0 0
BITMAP
069930
0A0000
0B4100
2A5B00
550A00
8A9600
ENDCHAR
STARTCHAR afii10019
ENCODING 1042
SWIDTH 598 0
DWIDTH 5 0
BBX 5 6 0 0
BITMAP
069930
0A01A0
0B4750
2A5910
550740
8A9900
ENDCHAR
STARTCHAR afii10020
ENCODING 1043
SWIDTH 476 0
DWIDTH 4 0
BBX 5 6 0 0
BITMAP
069930
0A0000
0A0000
280000
550000
820000
ENDCHAR
STARTCHAR afii10021
ENCODING 1044
SWIDTH 621 0
DWIDTH 5 0
BBX 6 8 -1 -2
BITMAP
000599
000A1A
003837
009164
047091
3DA9D5
720045
400031
ENDCHAR
STARTCHAR afii10022
ENCODING 1045
SWIDTH 511 0
DWIDTH 4 0
BBX 5 6 0 0
BITMAP
069930
0A0000
0B4300
2A5300
550000
8A9200
ENDCHAR
STARTCHAR afii10024
ENCODING 1046
SWIDTH 775 0
DWIDTH 6 0
BBX 8 6 -1 0
BITMAP
00806226
0083A2A1
001ABA10
003BB800
02A55A10
1A182380
ENDCHAR
STARTCHAR afii10025
ENCODING 1047
SWIDTH 532 0
DWIDTH 4 0
BBX 5 7 0 -1
BITMAP
089800
010920
035800
057600
000B00
989400
010000
ENDCHAR
STARTCHAR afii10026
ENCODING 1048
SWIDTH 696 0
DWIDTH 6 0
BBX 6 6 0 0
BITMAP
061056
0902B5
091982
279290
5A4090
870280
ENDCHAR
STARTCHAR afii10027
ENCODING 1049
SWIDTH 696 0
DWIDTH 6 0
BBX 6 8 0 0
BITMAP
003030
005870
061056
0902B5
091982
279290
5A4090
870280
ENDCHAR
STARTCHAR afii10028
ENCODING 1050
SWIDTH 559 0
DWIDTH 4 0
BBX 5 6 0 0
BITMAP
061180
0A1920
0B9200
2B8000
558300
821A00
ENDCHAR
STARTCHAR afii10029
ENCODING 1051
SWIDTH 644 0
DWIDTH 5 0
BBX 7 6 -1 0
BITMAP
00079A10
000A0A00
00370A00
00732800
00A06400
2A509100
ENDCHAR
STARTCHAR afii10030
ENCODING 1052
SWIDTH 836 0
DWIDTH 7 0
BBX 7 6 0 0
BITMAP
06600570
09901B70
09907840
27927910
54891A00
81661900
ENDCHAR
STARTCHAR afii10031
ENCODING 1053
SWIDTH 678 0
DWIDTH 5 0
BBX 6 6 0 0
BITMAP
061034
0A0073
0B44B0
2A55B0
550280
820550
ENDCHAR
STARTCHAR afii10032
ENCODING 1054
SWIDTH 720 0
DWIDTH 6 0
BBX 6 7 0 -1
BITMAP
018970
0A2075
380037
650056
5600B2
0A9A50
001000
ENDCHAR
STARTCHAR afii10033
ENCODING 1055
SWIDTH 679 0
DWIDTH 5 0
BBX 6 6 0 0
BITMAP
0699A4
0A0073
0A00A0
2800A0
550190
820560
ENDCHAR
STARTCHAR afii10034
ENCODING 1056
SWIDTH 565 0
DWIDTH 5 0
BBX 5 6 0 0
BITMAP
069810
0A0470
0A0650
2C8600
550000
820000
ENDCHAR
STARTCHAR afii10035
ENCODING 1057
SWIDTH 584 0
DWIDTH 5 0
BBX 5 7 0 -1
BITMAP
008980
0A3000
280000
550000
560000
0A9900
001000
ENDCHAR
STARTCHAR afii10036
ENCODING 1058
SWIDTH 498 0
DWIDTH 4 0
BBX 5 6 0 0
BITMAP
29A960
00A000
01A000
047000
073000
0A0000
ENDCHAR
STARTCHAR afii10037
ENCODING 1059
SWIDTH 571 0
DWIDTH 5 0
BBX 6 7 0 -1
BITMAP
170071
0A0380
082A10
03A500
02B000
9A1000
100000
ENDCHAR
STARTCHAR afii10038
ENCODING 1060
SWIDTH 744 0
DWIDTH 6 0
BBX 6 7 0 -1
BITMAP
000810
079DA4
38190A
554628
2BA9A1
01B200
001000
ENDCHAR
STARTCHAR afii10039
ENCODING 1061
SWIDTH 519 0
DWIDTH 4 0
BBX 6 6 -1 0
BITMAP
007026
009191
004C20
007B00
047730
290280
ENDCHAR
STARTCHAR afii10040
ENCODING 1062
SWIDTH 665 0
DWIDTH 5 0
BBX 6 8 0 -2
BITMAP
061043
0A0091
0A00A0
2800A0
550370
9A9B90
000090
000140
ENDCHAR
STARTCHAR afii10041
ENCODING 1063
SWIDTH 639 0
DWIDTH 5 0
BBX 5 6 1 0
BITMAP
610610
A00A00
A00A00
B9A700
006400
009100
ENDCHAR
STARTCHAR afii10042
ENCODING 1064
SWIDTH 955 0
DWIDTH 8 0
BBX 8 6 0 0
BITMAP
06107017
0A00A046
0A037073
280640A0
550910A0
9A9D9990
ENDCHAR
STARTCHAR afii10043
ENCODING 1065
SWIDTH 957 0
DWIDTH 8 0
BBX 8 8 0 -2
BITMAP
06107017
0A00A046
0A037073
280640A0
550910A0
9A9D99D2
00000090
00000050
ENDCHAR
STARTCHAR afii10044
ENCODING 1066
SWIDTH 625 0
DWIDTH 5 0
BBX 5 6 0 0
BITMAP
298000
028000
058200
095950
0A0470
0D8910
ENDCHAR
STARTCHAR afii10045
ENCODING 1067
SWIDTH 786 0
DWIDTH 6 0
BBX 7 6 0 0
BITMAP
06200430
0A000910
0B410A00
2A5B0900
550A3700
8A957300
ENDCHAR
STARTCHAR afii10046
ENCODING 1068
SWIDTH 554 0
DWIDTH 4 0
BBX 4 6 0 0
BITMAP
0620
0A00
0B41
2A5B
550A
8A95
ENDCHAR
STARTCHAR afii10047
ENCODING 1069
SWIDTH 584 0
DWIDTH 5 0
BBX 5 7 0 -1
BITMAP
099700
000840
034860
034950
000B10
98A400
010000
ENDCHAR
STARTCHAR afii10048
ENCODING 1070
SWIDTH 979 0
DWIDTH 8 0
BBX 8 6 0 0
BITMAP
06107980
0A084066
0B4B0028
2A690047
551A0092
82089960
ENDCHAR
STARTCHAR afii10049
ENCODING 1071
SWIDTH 568 0
DWIDTH 5 0
BBX 6 6 -1 0
BITMAP
003996
00B055
00B182
008AC0
0390A0
1B1370
ENDCHAR
STARTCHAR afii10065
ENCODING 1072
SWIDTH 564 0
DWIDTH 5 0
BBX 5 5 0 0
BITMAP
014110
1B4B30
740B00
922B00
5A7800
ENDCHAR
STARTCHAR afii10066
ENCODING 1073
SWIDTH 541 0
DWIDTH 4 0
BBX 5 6 0 0
BITMAP
029840
0A1000
5A9800
830A00
910A00
4AA400
ENDCHAR
STARTCHAR afii10067
ENCODING 1074
SWIDTH 538 0
DWIDTH 4 0
BBX 4 5 0 0
BITMAP
0152
2A4B
8878
9339
4A86
ENDCHAR
STARTCHAR afii10068
ENCODING 1075
SWIDTH 457 0
DWIDTH 4 0
BBX 4 6 0 -1
BITMAP
0450
1575
0591
8300
8870
0100
ENDCHAR
STARTCHAR afii10069
ENCODING 1076
SWIDTH 562 0
DWIDTH 5 0
BBX 5 7 0 0
BITMAP
002000
047A00
001820
1A7C30
640A10
921A00
5AA200
ENDCHAR
STARTCHAR afii10070
ENCODING 1077
SWIDTH 493 0
DWIDTH 4 0
BBX 4 5 0 0
BITMAP
0151
1A49
7994
9300
4A82
ENDCHAR
STARTCHAR afii10072
ENCODING 1078
SWIDTH 833 0
DWIDTH 7 0
BBX 8 6 -1 -1
BITMAP
02402024
01859393
004ACB20
00758B00
18845691
00000010
ENDCHAR
STARTCHAR afii10073
ENCODING 1079
SWIDTH 436 0
DWIDTH 3 0
BBX 4 6 0 -1
BITMAP
0440
2493
0781
01A0
9880
0100
ENDCHAR
STARTCHAR afii10074
ENCODING 1080
SWIDTH 577 0
DWIDTH 5 0
BBX 5 5 0 0
BITMAP
030110
190730
460A00
731B00
698900
ENDCHAR
STARTCHAR afii10075
ENCODING 1081
SWIDTH 577 0
DWIDTH 5 0
BBX 5 6 0 0
BITMAP
058930
032210
190730
460A00
731B00
698900
ENDCHAR
STARTCHAR afii10076
ENCODING 1082
SWIDTH 477 0
DWIDTH 4 0
BBX 4 5 0 0
BITMAP
0303
1966
4B60
7780
9093
ENDCHAR
STARTCHAR afii10077
ENCODING 1083
SWIDTH 537 0
DWIDTH 4 0
BBX 5 5 -1 0
BITMAP
000340
0057B0
00A0A0
037370
3A1640
ENDCHAR
STARTCHAR afii10078
ENCODING 1084
SWIDTH 689 0
DWIDTH 6 0
BBX 6 5 0 0
BITMAP
030021
1E01D2
4A27A0
757690
90B270
ENDCHAR
STARTCHAR afii10079
ENCODING 1085
SWIDTH 599 0
DWIDTH 5 0
BBX 5 5 0 0
BITMAP
030120
190460
4B7B30
741A00
900A00
ENDCHAR
STARTCHAR afii10080
ENCODING 1086
SWIDTH 561 0
DWIDTH 4 0
BBX 5 5 0 0
BITMAP
015100
1A4B00
730910
920B00
4A9400
ENDCHAR
STARTCHAR afii10081
ENCODING 1087
SWIDTH 577 0
DWIDTH 5 0
BBX 5 5 0 0
BITMAP
023400
1C5A20
480910
730A00
901900
ENDCHAR
STARTCHAR afii10082
ENCODING 1088
SWIDTH 577 0
DWIDTH 5 0
BBX 6 7 -1 -2
BITMAP
002330
01C5A2
048083
0750A0
098960
0A0000
180000
ENDCHAR
STARTCHAR afii10083
ENCODING 1089
SWIDTH 450 0
DWIDTH 4 0
BBX 4 5 0 0
BITMAP
0152
1B43
7400
9200
4A80
ENDCHAR
STARTCHAR afii10084
ENCODING 1090
SWIDTH 872 0
DWIDTH 7 0
BBX 7 5 0 0
BITMAP
02321510
1C5A7670
480B1460
730A0730
90370A00
ENDCHAR
STARTCHAR afii10085
ENCODING 1091
SWIDTH 461 0
DWIDTH 4 0
BBX 5 7 -1 -2
BITMAP
020030
072190
054820
038800
01D100
037000
690000
ENDCHAR
STARTCHAR afii10086
ENCODING 1092
SWIDTH 663 0
DWIDTH 5 0
BBX 5 9 0 -2
BITMAP
000100
000900
016900
1A97A0
7381B0
9291A0
3AC910
036000
063000
ENDCHAR
STARTCHAR afii10087
ENCODING 1093
SWIDTH 478 0
DWIDTH 4 0
BBX 5 5 -1 0
BITMAP
011030
019560
009800
029800
1A1910
ENDCHAR
STARTCHAR afii10088
ENCODING 1094
SWIDTH 595 0
DWIDTH 5 0
BBX 5 7 0 -2
BITMAP
030110
190730
460A00
731B00
697B20
000910
000500
ENDCHAR
STARTCHAR afii10089
ENCODING 1095
SWIDTH 555 0
DWIDTH 4 0
BBX 5 5 0 0
BITMAP
020210
460A10
564C00
174900
004600
ENDCHAR
STARTCHAR afii10090
ENCODING 1096
SWIDTH 872 0
DWIDTH 7 0
BBX 7 5 0 0
BITMAP
03021030
19091180
460A0550
722A0A20
697A8B00
ENDCHAR
STARTCHAR afii10091
ENCODING 1097
SWIDTH 890 0
DWIDTH 7 0
BBX 7 7 0 -2
BITMAP
03021030
19091180
460A0550
732A0A20
696A8A50
00000460
00000320
ENDCHAR
STARTCHAR afii10092
ENCODING 1098
SWIDTH 591 0
DWIDTH 5 0
BBX 5 6 0 -1
BITMAP
242000
384000
098600
0A1830
088A10
001000
ENDCHAR
STARTCHAR afii10093
ENCODING 1099
SWIDTH 721 0
DWIDTH 6 0
BBX 6 5 0 0
BITMAP
030012
190055
4A7182
7447A0
4AA3A0
ENDCHAR
STARTCHAR afii10094
ENCODING 1100
SWIDTH 519 0
DWIDTH 4 0
BBX 4 5 0 0
BITMAP
0300
1900
4A72
7439
4A94
ENDCHAR
STARTCHAR afii10095
ENCODING 1101
SWIDTH 456 0
DWIDTH 4 0
BBX 4 5 0 0
BITMAP
1520
24A1
27B4
01A1
8870
ENDCHAR
STARTCHAR afii10096
ENCODING 1102
SWIDTH 780 0
DWIDTH 6 0
BBX 6 5 0 0
BITMAP
030240
192959
4BB20B
74A019
9059A2
ENDCHAR
STARTCHAR afii10097
ENCODING 1103
SWIDTH 526 0
DWIDTH 4 0
BBX 5 5 -1 0
BITMAP
002440
02A5B0
039590
029860
1B1730
ENDCHAR
STARTCHAR uni0450
ENCODING 1104
SWIDTH 493 0
DWIDTH 4 0
BBX 4 7 0 0
BITMAP
0110
0280
0161
1A49
7994
9300
4A82
ENDCHAR
STARTCHAR afii10071
ENCODING 1105
SWIDTH 493 0
DWIDTH 4 0
BBX 4 6 0 0
BITMAP
0336
0151
1A49
7994
9300
4A82
ENDCHAR
STARTCHAR afii10099
ENCODING 1106
SWIDTH 577 0
DWIDTH 5 0
BBX 5 9 0 -2
BITMAP
010000
1B6200
1B3200
1C7B10
480910
730A00
901900
004600
03A100
ENDCHAR
STARTCHAR afii10100
ENCODING 1107
SWIDTH 457 0
DWIDTH 4 0
BBX 4 8 0 -1
BITMAP
0001
0064
0460
1575
0591
8300
8870
0100
ENDCHAR
STARTCHAR afii10101
ENCODING 1108
SWIDTH 450 0
DWIDTH 4 0
BBX 4 5 0 0
BITMAP
0152
1A43
7A70
9310
4A80
ENDCHAR
STARTCHAR afii10102
ENCODING 1109
SWIDTH 428 0
DWIDTH 3 0
BBX 4 6 0 -1
BITMAP
0440
5851
3A10
02A0
8880
0100
ENDCHAR
STARTCHAR afii10103
ENCODING 1110
SWIDTH 253 0
DWIDTH 2 0
BBX 3 6 0 0
BITMAP
0710
0300
1900
4600
7300
9000
ENDCHAR
STARTCHAR afii10104
ENCODING 1111
SWIDTH 253 0
DWIDTH 2 0
BBX 3 6 0 0
BITMAP
3360
0300
1900
4600
7300
9000
ENDCHAR
STARTCHAR afii10105
ENCODING 1112
SWIDTH 253 0
DWIDTH 2 0
BBX 4 8 -1 -2
BITMAP
0071
0030
0190
0460
0730
0900
0A00
9500
ENDCHAR
STARTCHAR afii10106
ENCODING 1113
SWIDTH 762 0
DWIDTH 6 0
BBX 7 5 -1 0
BITMAP
00033000
0067A000
00A3B710
03765380
3A13AA40
ENDCHAR
STARTCHAR afii10107
ENCODING 1114
SWIDTH 812 0
DWIDTH 7 0
BBX 6 6 0 -1
BITMAP
030210
190910
4B7C74
741A1B
A00A89
000010
ENDCHAR
STARTCHAR afii10108
ENCODING 1115
SWIDTH 577 0
DWIDTH 5 0
BBX 5 7 0 0
BITMAP
010000
1B6200
1A4400
1C6B10
480910
730A00
901900
ENDCHAR
STARTCHAR afii10109
ENCODING 1116
SWIDTH 477 0
DWIDTH 4 0
BBX 4 7 0 0
BITMAP
0001
0046
0313
1966
4B60
7780
9093
ENDCHAR
STARTCHAR uni045D
ENCODING 1117
SWIDTH 577 0
DWIDTH 5 0
BBX 5 7 0 0
BITMAP
001000
009000
031110
190730
460A00
731B00
698900
ENDCHAR
STARTCHAR afii10110
ENCODING 1118
SWIDTH 461 0
DWIDTH 4 0
BBX 5 9 -1 -2
BITMAP
001010
00A690
021230
072190
054820
038800
01D100
037000
690000
ENDCHAR
STARTCHAR afii10193
ENCODING 1119
SWIDTH 577 0
DWIDTH 5 0
BBX 5 7 0 -2
BITMAP
030110
190730
460A00
731B00
698900
052000
090000
ENDCHAR
STARTCHAR uni0460
ENCODING 1120
SWIDTH 953 0
DWIDTH 8 0
BBX 8 6 0 0
BITMAP
01991990
0A200065
29000064
56041092
550A11A0
1B8A9A20
ENDCHAR
STARTCHAR uni0461
ENCODING 1121
SWIDTH 717 0
DWIDTH 6 0
BBX 6 5 0 0
BITMAP
202103
827309
646555
46B7A0
2D2D30
ENDCHAR
STARTCHAR uni0462
ENCODING 1122
SWIDTH 619 0
DWIDTH 5 0
BBX 5 7 0 0
BITMAP
001000
00A000
3BC900
067200
095940
0A0560
1D9910
ENDCHAR
STARTCHAR uni0463
ENCODING 1123
SWIDTH 551 0
DWIDTH 4 0
BBX 4 6 0 0
BITMAP
0100
2A50
3B40
1C73
381A
1B87
ENDCHAR
STARTCHAR uni0464
ENCODING 1124
SWIDTH 860 0
DWIDTH 7 0
BBX 8 6 0 0
BITMAP
06106991
0A076000
0B4C4400
2A7A5500
55290000
82089920
ENDCHAR
STARTCHAR uni0465
ENCODING 1125
SWIDTH 687 0
DWIDTH 6 0
BBX 6 5 0 0
BITMAP
030152
192A42
4BB960
74A210
906970
ENDCHAR
STARTCHAR uni0466
ENCODING 1126
SWIDTH 601 0
DWIDTH 5 0
BBX 6 6 -1 0
BITMAP
000350
000990
0068A0
01ABB0
082973
383655
ENDCHAR
STARTCHAR uni0467
ENCODING 1127
SWIDTH 528 0
DWIDTH 4 0
BBX 5 5 -1 0
BITMAP
000400
005C20
00CA40
078770
288290
ENDCHAR
STARTCHAR uni0468
ENCODING 1128
SWIDTH 840 0
DWIDTH 7 0
BBX 7 6 0 0
BITMAP
06204500
0A009900
0B497A00
2A6ABB00
55928810
86745640
ENDCHAR
STARTCHAR uni0469
ENCODING 1129
SWIDTH 721 0
DWIDTH 6 0
BBX 6 5 0 0
BITMAP
030220
190990
4B9AB0
75A990
A83972
ENDCHAR
STARTCHAR uni046A
ENCODING 1130
SWIDTH 660 0
DWIDTH 5 0
BBX 7 6 -1 0
BITMAP
00799A40
00652900
001BB100
02AB7800
092A0A00
291A0A00
ENDCHAR
STARTCHAR uni046B
ENCODING 1131
SWIDTH 603 0
DWIDTH 5 0
BBX 6 5 -1 0
BITMAP
004443
00B5B3
009C70
093891
384573
ENDCHAR
STARTCHAR uni046C
ENCODING 1132
SWIDTH 915 0
DWIDTH 7 0
BBX 8 6 0 0
BITMAP
061799A4
0A065290
0B44CB10
2A6BB680
5592A0A0
8391A0A0
ENDCHAR
STARTCHAR uni046D
ENCODING 1133
SWIDTH 800 0
DWIDTH 6 0
BBX 7 5 0 0
BITMAP
03244410
193A6B10
4B7CC200
75A73900
A8390A00
ENDCHAR
STARTCHAR uni046E
ENCODING 1134
SWIDTH 532 0
DWIDTH 4 0
BBX 6 9 -1 -2
BITMAP
001681
008B90
001092
003580
005760
0000B0
047A40
3A3100
178800
ENDCHAR
STARTCHAR uni046F
ENCODING 1135
SWIDTH 446 0
DWIDTH 4 0
BBX 5 8 -1 -2
BITMAP
002120
009B10
014840
007910
001A00
047800
493100
056400
ENDCHAR
STARTCHAR uni0470
ENCODING 1136
SWIDTH 734 0
DWIDTH 6 0
BBX 7 6 0 0
BITMAP
07070620
190A0A00
37190A00
1B8AA400
01A51000
00A00000
ENDCHAR
STARTCHAR uni0471
ENCODING 1137
SWIDTH 713 0
DWIDTH 6 0
BBX 6 9 0 -2
BITMAP
000100
000A00
030A12
193755
466464
6491A1
2AD940
019000
036000
ENDCHAR
STARTCHAR uni0472
ENCODING 1138
SWIDTH 720 0
DWIDTH 6 0
BBX 6 7 0 -1
BITMAP
018970
0A2075
3A3367
696696
5600B2
0A9A50
001000
ENDCHAR
STARTCHAR uni0473
ENCODING 1139
SWIDTH 561 0
DWIDTH 4 0
BBX 5 5 0 0
BITMAP
015100
1A4B00
797C10
931B00
4A9400
ENDCHAR
STARTCHAR uni0474
ENCODING 1140
SWIDTH 559 0
DWIDTH 4 0
BBX 6 6 0 0
BITMAP
250083
280640
090A00
0A6500
09A000
0A5000
ENDCHAR
STARTCHAR uni0475
ENCODING 1141
SWIDTH 439 0
DWIDTH 4 0
BBX 5 5 0 0
BITMAP
300310
823800
639000
577000
3D1000
ENDCHAR
STARTCHAR uni0476
ENCODING 1142
SWIDTH 559 0
DWIDTH 4 0
BBX 6 8 0 0
BITMAP
053300
034700
250083
280640
090A00
0A6500
09A000
0A5000
ENDCHAR
STARTCHAR uni0477
ENCODING 1143
SWIDTH 439 0
DWIDTH 4 0
BBX 5 7 0 0
BITMAP
111000
27A000
311310
823800
639000
577000
3D1000
ENDCHAR
STARTCHAR uni0478
ENCODING 1144
SWIDTH 1184 0
DWIDTH 9 0
BBX 10 8 0 -2
BITMAP
0189700000
0A20753003
380037A046
65005691A0
5600B26750
0A9A504B00
0010007400
0000087000
ENDCHAR
STARTCHAR uni0479
ENCODING 1145
SWIDTH 1003 0
DWIDTH 8 0
BBX 9 7 0 -2
BITMAP
0151120110
1A4B270910
7309193700
920B099000
4A940A6000
00000A0000
0003930000
ENDCHAR
STARTCHAR uni047A
ENCODING 1146
SWIDTH 738 0
DWIDTH 6 0
BBX 6 8 0 -1
BITMAP
000100
018E90
0B2267
38001A
650038
470093
0ACA60
005000
ENDCHAR
STARTCHAR uni047B
ENCODING 1147
SWIDTH 578 0
DWIDTH 5 0
BBX 5 6 0 -1
BITMAP
019200
1A6B10
730730
920A00
4BA500
022000
ENDCHAR
STARTCHAR uni047C
ENCODING 1148
SWIDTH 953 0
DWIDTH 8 0
BBX 8 10 0 -1
BITMAP
00002000
00039830
00005100
01991990
0A200065
29000064
56000092
550001A0
1B8A9A20
00001000
ENDCHAR
STARTCHAR uni047D
ENCODING 1149
SWIDTH 758 0
DWIDTH 6 0
BBX 6 7 0 0
BITMAP
004972
000710
024151
2A4159
73001A
910047
4A98A1
ENDCHAR
STARTCHAR uni047E
ENCODING 1150
SWIDTH 953 0
DWIDTH 8 0
BBX 8 7 0 0
BITMAP
00077710
01991990
0A200065
29000064
56041092
550A11A0
1B8A9A20
ENDCHAR
STARTCHAR uni047F
ENCODING 1151
SWIDTH 717 0
DWIDTH 6 0
BBX 6 6 0 0
BITMAP
036760
212103
827309
646555
46B7A0
2D2D30
ENDCHAR
STARTCHAR uni0480
ENCODING 1152
SWIDTH 584 0
DWIDTH 5 0
BBX 5 8 0 -2
BITMAP
008980
0A3000
280000
550000
560000
0A9200
00A100
009000
ENDCHAR
STARTCHAR uni0481
ENCODING 1153
SWIDTH 450 0
DWIDTH 4 0
BBX 4 7 0 -2
BITMAP
0152
1B43
7400
9200
4A60
0280
0540
ENDCHAR
STARTCHAR uni0482
ENCODING 1154
SWIDTH 608 0
DWIDTH 5 0
BBX 5 5 0 0
BITMAP
021900
01AA00
43A330
0AA100
081200
ENDCHAR
STARTCHAR uni0483
ENCODING 1155
SWIDTH 560 0
DWIDTH 4 0
BBX 4 2 1 4
BITMAP
3572
4110
ENDCHAR
STARTCHAR uni0484
ENCODING 1156
SWIDTH 580 0
DWIDTH 5 0
BBX 4 2 1 4
BITMAP
3773
1001
ENDCHAR
STARTCHAR uni0485
ENCODING 1157
SWIDTH 580 0
DWIDTH 5 0
BBX 2 2 2 5
BITMAP
11
53
ENDCHAR
STARTCHAR uni0486
ENCODING 1158
SWIDTH 580 0
DWIDTH 5 0
BBX 2 2 2 5
BITMAP
11
35
ENDCHAR
STARTCHAR uni0488
ENCODING 1160
SWIDTH 988 0
DWIDTH 8 0
BBX 8 8 0 -2
BITMAP
00043000
05111240
01100120
44000043
11000011
06200350
00143110
00011000
ENDCHAR
STARTCHAR uni0489
ENCODING 1161
SWIDTH 956 0
DWIDTH 8 0
BBX 8 8 0 -2
BITMAP
00042000
06040340
02100300
63000061
02000012
03300500
04052230
00030000
ENDCHAR
STARTCHAR uni048A
ENCODING 1162
SWIDTH 703 0
DWIDTH 6 0
BBX 6 10 0 -2
BITMAP
003030
005870
061056
0902B5
091982
279290
5A4090
8702C1
000180
000320
ENDCHAR
STARTCHAR uni048B
ENCODING 1163
SWIDTH 579 0
DWIDTH 5 0
BBX 5 8 0 -2
BITMAP
048930
032210
190730
460A00
731B00
698D10
000800
001300
ENDCHAR
STARTCHAR uni048C
ENCODING 1164
SWIDTH 553 0
DWIDTH 4 0
BBX 4 6 0 0
BITMAP
0610
2D92
0B41
2A6A
550B
8A94
ENDCHAR
STARTCHAR uni048D
ENCODING 1165
SWIDTH 519 0
DWIDTH 4 0
BBX 4 7 0 0
BITMAP
0100
1A20
2C50
1900
4A72
7439
4A94
ENDCHAR
STARTCHAR uni048E
ENCODING 1166
SWIDTH 565 0
DWIDTH 5 0
BBX 5 6 0 0
BITMAP
069810
0A0470
0A4850
2C9A00
550200
820000
ENDCHAR
STARTCHAR uni048F
ENCODING 1167
SWIDTH 577 0
DWIDTH 5 0
BBX 6 7 -1 -2
BITMAP
002330
01C5A2
048083
0752B0
098D60
0A0320
180000
ENDCHAR
STARTCHAR afii10050
ENCODING 1168
SWIDTH 476 0
DWIDTH 4 0
BBX 5 7 0 0
BITMAP
000170
069A50
0A0000
0A0000
280000
550000
820000
ENDCHAR
STARTCHAR afii10098
ENCODING 1169
SWIDTH 382 0
DWIDTH 3 0
BBX 4 6 0 0
BITMAP
0015
0476
1A31
4600
7300
9000
ENDCHAR
STARTCHAR uni0492
ENCODING 1170
SWIDTH 471 0
DWIDTH 4 0
BBX 5 6 0 0
BITMAP
069930
0A0000
1B2000
6B6000
550000
820000
ENDCHAR
STARTCHAR uni0493
ENCODING 1171
SWIDTH 382 0
DWIDTH 3 0
BBX 4 5 0 0
BITMAP
0441
1B41
7A20
8400
9000
ENDCHAR
STARTCHAR uni0494
ENCODING 1172
SWIDTH 603 0
DWIDTH 5 0
BBX 5 8 0 -2
BITMAP
069930
0A0000
0A1000
2B8800
550A10
820A10
001B00
49A300
ENDCHAR
STARTCHAR uni0495
ENCODING 1173
SWIDTH 491 0
DWIDTH 4 0
BBX 4 7 0 -2
BITMAP
0442
1B41
4B40
7493
9055
0082
4970
ENDCHAR
STARTCHAR uni0496
ENCODING 1174
SWIDTH 821 0
DWIDTH 7 0
BBX 8 8 -1 -2
BITMAP
00806226
0083A2A1
001ABA10
003BB800
02A55A10
1A1823B1
00000090
00000050
ENDCHAR
STARTCHAR uni0497
ENCODING 1175
SWIDTH 837 0
DWIDTH 7 0
BBX 8 7 -1 -2
BITMAP
02402024
01859393
004ACB20
00758B00
18845692
00000091
00000050
ENDCHAR
STARTCHAR uni0498
ENCODING 1176
SWIDTH 532 0
DWIDTH 4 0
BBX 5 8 0 -2
BITMAP
089800
010920
035800
057600
000B00
989400
071000
270000
ENDCHAR
STARTCHAR uni0499
ENCODING 1177
SWIDTH 436 0
DWIDTH 3 0
BBX 4 7 0 -2
BITMAP
0440
2493
0781
01A0
9880
0800
4500
ENDCHAR
STARTCHAR uni049A
ENCODING 1178
SWIDTH 600 0
DWIDTH 5 0
BBX 5 8 0 -2
BITMAP
061180
0A1920
0B9200
2B8000
558300
921B30
000720
000400
ENDCHAR
STARTCHAR uni049B
ENCODING 1179
SWIDTH 520 0
DWIDTH 4 0
BBX 4 7 0 -2
BITMAP
0303
1965
4C50
7770
9086
0018
0023
ENDCHAR
STARTCHAR uni049C
ENCODING 1180
SWIDTH 559 0
DWIDTH 4 0
BBX 5 6 0 0
BITMAP
061180
0A6A20
0BB200
2CD000
589500
920A00
ENDCHAR
STARTCHAR uni049D
ENCODING 1181
SWIDTH 475 0
DWIDTH 4 0
BBX 4 5 0 0
BITMAP
0303
19C6
4C60
7A60
A592
ENDCHAR
STARTCHAR uni049E
ENCODING 1182
SWIDTH 557 0
DWIDTH 4 0
BBX 5 6 0 0
BITMAP
061170
2D7910
0BA100
2BA100
554600
820B00
ENDCHAR
STARTCHAR uni049F
ENCODING 1183
SWIDTH 478 0
DWIDTH 4 0
BBX 4 7 0 0
BITMAP
0100
1B60
1B23
1965
4B70
75A0
A083
ENDCHAR
STARTCHAR uni04A0
ENCODING 1184
SWIDTH 631 0
DWIDTH 5 0
BBX 6 6 0 0
BITMAP
298044
028480
059800
08A200
0A1A00
0A0560
ENDCHAR
STARTCHAR uni04A1
ENCODING 1185
SWIDTH 560 0
DWIDTH 4 0
BBX 5 5 0 0
BITMAP
342030
395920
09A200
0A8200
091A00
ENDCHAR
STARTCHAR uni04A2
ENCODING 1186
SWIDTH 676 0
DWIDTH 5 0
BBX 6 8 0 -2
BITMAP
061034
0A0073
0B44B0
2A55B0
550280
8205B0
000090
000040
ENDCHAR
STARTCHAR uni04A3
ENCODING 1187
SWIDTH 599 0
DWIDTH 5 0
BBX 5 7 0 -2
BITMAP
030120
190460
4B7B20
741A00
900C20
000910
000500
ENDCHAR
STARTCHAR uni04A4
ENCODING 1188
SWIDTH 754 0
DWIDTH 6 0
BBX 7 6 0 0
BITMAP
06103A60
0A007300
0B44B000
2A55B000
55028000
82055000
ENDCHAR
STARTCHAR uni04A5
ENCODING 1189
SWIDTH 687 0
DWIDTH 6 0
BBX 6 5 0 0
BITMAP
030144
190483
4B7B20
741A00
900A00
ENDCHAR
STARTCHAR uni04A6
ENCODING 1190
SWIDTH 996 0
DWIDTH 8 0
BBX 8 8 0 -2
BITMAP
0699A300
0A009100
0A00B100
2800C8A0
55037074
82064074
000000B1
00039A40
ENDCHAR
STARTCHAR uni04A7
ENCODING 1191
SWIDTH 817 0
DWIDTH 7 0
BBX 6 7 0 -2
BITMAP
044410
1A4930
460A72
730A2B
90190A
00001A
0007A3
ENDCHAR
STARTCHAR uni04A8
ENCODING 1192
SWIDTH 720 0
DWIDTH 6 0
BBX 6 7 0 -1
BITMAP
018930
0A2491
371A46
654656
4756A1
0A9E90
001140
ENDCHAR
STARTCHAR uni04A9
ENCODING 1193
SWIDTH 599 0
DWIDTH 5 0
BBX 5 6 0 -1
BITMAP
015100
2A5600
83A750
92B830
3ADB10
000300
ENDCHAR
STARTCHAR uni04AA
ENCODING 1194
SWIDTH 584 0
DWIDTH 5 0
BBX 5 8 0 -2
BITMAP
008980
0A3000
280000
550000
560000
0A9900
008000
036000
ENDCHAR
STARTCHAR uni04AB
ENCODING 1195
SWIDTH 450 0
DWIDTH 4 0
BBX 4 7 0 -2
BITMAP
0152
1B43
7400
9200
4A80
0620
1710
ENDCHAR
STARTCHAR uni04AC
ENCODING 1196
SWIDTH 498 0
DWIDTH 4 0
BBX 5 8 0 -2
BITMAP
29A960
00A000
01A000
047000
073000
0A6000
036000
032000
ENDCHAR
STARTCHAR uni04AD
ENCODING 1197
SWIDTH 884 0
DWIDTH 7 0
BBX 7 7 0 -2
BITMAP
02321510
1C5A7670
480B1460
730A0730
90370850
00000370
00000320
ENDCHAR
STARTCHAR uni04AE
ENCODING 1198
SWIDTH 502 0
DWIDTH 4 0
BBX 5 6 0 0
BITMAP
250260
090A10
097400
068000
073000
0A0000
ENDCHAR
STARTCHAR uni04AF
ENCODING 1199
SWIDTH 461 0
DWIDTH 4 0
BBX 4 7 0 -2
BITMAP
2003
8229
6492
4870
2D10
2800
5400
ENDCHAR
STARTCHAR uni04B0
ENCODING 1200
SWIDTH 502 0
DWIDTH 4 0
BBX 5 6 0 0
BITMAP
250260
090A10
097400
068000
5CA300
0A0000
ENDCHAR
STARTCHAR uni04B1
ENCODING 1201
SWIDTH 461 0
DWIDTH 4 0
BBX 4 7 0 -2
BITMAP
2003
8229
6492
4870
2D00
9B40
5400
ENDCHAR
STARTCHAR uni04B2
ENCODING 1202
SWIDTH 568 0
DWIDTH 5 0
BBX 6 8 -1 -2
BITMAP
007026
009191
004C20
007B00
047730
2902C1
000090
000050
ENDCHAR
STARTCHAR uni04B3
ENCODING 1203
SWIDTH 520 0
DWIDTH 4 0
BBX 5 7 0 -2
BITMAP
020310
0A3800
05A000
099000
926700
001800
002300
ENDCHAR
STARTCHAR uni04B4
ENCODING 1204
SWIDTH 776 0
DWIDTH 6 0
BBX 7 8 0 -2
BITMAP
29A96620
00A00A00
01900A00
04602800
07305500
0AA9C800
00001800
00002300
ENDCHAR
STARTCHAR uni04B5
ENCODING 1205
SWIDTH 657 0
DWIDTH 5 0
BBX 5 7 0 -2
BITMAP
244230
3A62A0
0A0190
0A0760
0B8980
000190
000140
ENDCHAR
STARTCHAR uni04B6
ENCODING 1206
SWIDTH 636 0
DWIDTH 5 0
BBX 5 8 1 -2
BITMAP
610610
A00A00
A00A00
B9A700
006400
009600
003700
002200
ENDCHAR
STARTCHAR uni04B7
ENCODING 1207
SWIDTH 543 0
DWIDTH 4 0
BBX 5 7 0 -2
BITMAP
020210
460A10
564C00
174900
004B00
000A00
001400
ENDCHAR
STARTCHAR uni04B8
ENCODING 1208
SWIDTH 639 0
DWIDTH 5 0
BBX 5 6 1 0
BITMAP
610610
A00A00
A62A00
BCA700
086400
019100
ENDCHAR
STARTCHAR uni04B9
ENCODING 1209
SWIDTH 554 0
DWIDTH 4 0
BBX 5 5 0 0
BITMAP
020210
461A10
579B00
1A6900
034600
ENDCHAR
STARTCHAR uni04BA
ENCODING 1210
SWIDTH 639 0
DWIDTH 5 0
BBX 5 6 0 0
BITMAP
061000
0A0000
0C8A20
290370
550550
920920
ENDCHAR
STARTCHAR uni04BB
ENCODING 1211
SWIDTH 576 0
DWIDTH 5 0
BBX 4 5 0 0
BITMAP
0300
1A00
4986
770A
A119
ENDCHAR
STARTCHAR uni04BC
ENCODING 1212
SWIDTH 765 0
DWIDTH 6 0
BBX 6 7 0 -1
BITMAP
001997
00A20B
697479
1B7530
083000
02B891
000100
ENDCHAR
STARTCHAR uni04BD
ENCODING 1213
SWIDTH 592 0
DWIDTH 5 0
BBX 5 6 0 -1
BITMAP
002510
239670
9B8A20
0B1000
079800
001000
ENDCHAR
STARTCHAR uni04BE
ENCODING 1214
SWIDTH 765 0
DWIDTH 6 0
BBX 6 8 0 -2
BITMAP
001997
00A20B
697479
1B7520
083000
02B891
001900
002300
ENDCHAR
STARTCHAR uni04BF
ENCODING 1215
SWIDTH 592 0
DWIDTH 5 0
BBX 5 7 0 -2
BITMAP
002510
239670
9B8A20
0B1000
079800
00A000
005000
ENDCHAR
STARTCHAR uni04C0
ENCODING 1216
SWIDTH 272 0
DWIDTH 2 0
BBX 3 6 0 0
BITMAP
0610
0A00
0A00
2800
5500
8200
ENDCHAR
STARTCHAR uni04C1
ENCODING 1217
SWIDTH 775 0
DWIDTH 6 0
BBX 8 8 -1 0
BITMAP
00012130
00019920
00806226
0083A2A1
001ABA10
003BB800
02A55A10
1A182380
ENDCHAR
STARTCHAR uni04C2
ENCODING 1218
SWIDTH 833 0
DWIDTH 7 0
BBX 8 7 -1 -1
BITMAP
00049940
02404124
01859393
004ACB20
00758B00
18845691
00000010
ENDCHAR
STARTCHAR uni04C3
ENCODING 1219
SWIDTH 628 0
DWIDTH 5 0
BBX 5 8 0 -2
BITMAP
061180
0A1920
0B9100
2C9A00
550740
820650
000B10
29A500
ENDCHAR
STARTCHAR uni04C4
ENCODING 1220
SWIDTH 514 0
DWIDTH 4 0
BBX 4 7 0 -2
BITMAP
0303
1965
4C90
7475
9028
0065
3990
ENDCHAR
STARTCHAR uni04C5
ENCODING 1221
SWIDTH 649 0
DWIDTH 5 0
BBX 7 8 -1 -2
BITMAP
00079A10
000A0A00
00370A00
00732800
00A06400
2A509700
00005400
00005000
ENDCHAR
STARTCHAR uni04C6
ENCODING 1222
SWIDTH 536 0
DWIDTH 4 0
BBX 5 7 -1 -2
BITMAP
000340
0057B0
00A0A0
037370
3A1690
000260
000410
ENDCHAR
STARTCHAR uni04C7
ENCODING 1223
SWIDTH 678 0
DWIDTH 5 0
BBX 6 8 0 -2
BITMAP
061034
0A0073
0B44B0
2A55B0
550290
820550
000A10
29A500
ENDCHAR
STARTCHAR uni04C8
ENCODING 1224
SWIDTH 599 0
DWIDTH 5 0
BBX 5 7 0 -2
BITMAP
030120
190460
4B7B30
741A00
900A00
003700
19A100
ENDCHAR
STARTCHAR uni04C9
ENCODING 1225
SWIDTH 684 0
DWIDTH 5 0
BBX 6 8 0 -2
BITMAP
061034
0A0073
0B44B0
2A55B0
550280
8205B0
000280
000410
ENDCHAR
STARTCHAR uni04CA
ENCODING 1226
SWIDTH 599 0
DWIDTH 5 0
BBX 5 7 0 -2
BITMAP
030120
190460
4B7B30
741A00
900C20
000800
000400
ENDCHAR
STARTCHAR uni04CB
ENCODING 1227
SWIDTH 639 0
DWIDTH 5 0
BBX 5 8 1 -2
BITMAP
610610
A00A00
A00A00
B9A700
006400
02C100
073000
040000
ENDCHAR
STARTCHAR uni04CC
ENCODING 1228
SWIDTH 578 0
DWIDTH 5 0
BBX 5 7 0 -2
BITMAP
030110
190730
293D00
065A00
006900
00A000
005000
ENDCHAR
STARTCHAR uni04CD
ENCODING 1229
SWIDTH 841 0
DWIDTH 7 0
BBX 7 8 0 -2
BITMAP
06600570
09901B70
09907840
27927910
54891A00
81661D20
00000900
00002400
ENDCHAR
STARTCHAR uni04CE
ENCODING 1230
SWIDTH 688 0
DWIDTH 6 0
BBX 6 7 0 -2
BITMAP
030021
1E01D2
4A27A0
757690
90B2C0
000080
000220
ENDCHAR
STARTCHAR uni04CF
ENCODING 1231
SWIDTH 272 0
DWIDTH 2 0
BBX 3 6 0 0
BITMAP
0610
0A00
0A00
2800
5500
8200
ENDCHAR
STARTCHAR uni04D0
ENCODING 1232
SWIDTH 555 0
DWIDTH 4 0
BBX 6 8 -1 0
BITMAP
001304
000983
000640
001A70
008390
02C6B0
0943A0
3800A0
ENDCHAR
STARTCHAR uni04D1
ENCODING 1233
SWIDTH 564 0
DWIDTH 5 0
BBX 5 6 0 0
BITMAP
039940
016210
1B4B30
740B00
922B00
5A7800
ENDCHAR
STARTCHAR uni04D2
ENCODING 1234
SWIDTH 555 0
DWIDTH 4 0
BBX 6 8 -1 0
BITMAP
000110
000541
000640
001A70
008390
02C6B0
0943A0
3800A0
ENDCHAR
STARTCHAR uni04D3
ENCODING 1235
SWIDTH 564 0
DWIDTH 5 0
BBX 5 6 0 0
BITMAP
024600
014110
1B4B30
740B00
922B00
5A7800
ENDCHAR
STARTCHAR uni04D4
ENCODING 1236
SWIDTH 816 0
DWIDTH 7 0
BBX 8 6 -1 0
BITMAP
0001AA97
00087600
00387741
00C7C441
0853B000
3902D960
ENDCHAR
STARTCHAR uni04D5
ENCODING 1237
SWIDTH 814 0
DWIDTH 7 0
BBX 7 6 0 -1
BITMAP
01422400
1B4D7840
740D7910
924C1000
699C8700
00001000
ENDCHAR
STARTCHAR uni04D6
ENCODING 1238
SWIDTH 511 0
DWIDTH 4 0
BBX 5 8 0 0
BITMAP
012030
019830
069930
0A0000
0B4300
2A5300
550000
8A9200
ENDCHAR
STARTCHAR uni04D7
ENCODING 1239
SWIDTH 493 0
DWIDTH 4 0
BBX 4 7 0 0
BITMAP
0100
086A
0172
1A49
7994
9300
4A82
ENDCHAR
STARTCHAR uni04D8
ENCODING 1240
SWIDTH 661 0
DWIDTH 5 0
BBX 5 6 0 0
BITMAP
069930
0101B0
0001B0
2A98C0
920570
6A9800
ENDCHAR
STARTCHAR uni04D9
ENCODING 1241
SWIDTH 493 0
DWIDTH 4 0
BBX 4 6 0 -1
BITMAP
0440
2475
0378
8584
9890
0100
ENDCHAR
STARTCHAR uni04DA
ENCODING 1242
SWIDTH 661 0
DWIDTH 5 0
BBX 5 8 0 0
BITMAP
001010
005230
069930
0101B0
0001B0
2A98C0
920570
6A9800
ENDCHAR
STARTCHAR uni04DB
ENCODING 1243
SWIDTH 493 0
DWIDTH 4 0
BBX 4 7 0 -1
BITMAP
0624
0440
2475
0378
8584
9890
0100
ENDCHAR
STARTCHAR uni04DC
ENCODING 1244
SWIDTH 775 0
DWIDTH 6 0
BBX 8 8 -1 0
BITMAP
00001100
00005410
00806226
0083A2A1
001ABA10
003BB800
02A55A10
1A182380
ENDCHAR
STARTCHAR uni04DD
ENCODING 1245
SWIDTH 833 0
DWIDTH 7 0
BBX 8 7 -1 -1
BITMAP
00006600
02402024
01859393
004ACB20
00758B00
18845691
00000010
ENDCHAR
STARTCHAR uni04DE
ENCODING 1246
SWIDTH 532 0
DWIDTH 4 0
BBX 5 9 0 -1
BITMAP
001100
014500
089800
010920
035800
057600
000B00
989400
010000
ENDCHAR
STARTCHAR uni04DF
ENCODING 1247
SWIDTH 436 0
DWIDTH 3 0
BBX 4 7 0 -1
BITMAP
0633
0440
2493
0781
01A0
9880
0100
ENDCHAR
STARTCHAR uni04E0
ENCODING 1248
SWIDTH 525 0
DWIDTH 4 0
BBX 5 7 0 -1
BITMAP
089A30
004700
058000
038700
001A00
889300
010000
ENDCHAR
STARTCHAR uni04E1
ENCODING 1249
SWIDTH 456 0
DWIDTH 4 0
BBX 5 7 -1 -2
BITMAP
014420
024B30
007400
02A400
000A00
000A00
589200
ENDCHAR
STARTCHAR uni04E2
ENCODING 1250
SWIDTH 696 0
DWIDTH 6 0
BBX 6 7 0 0
BITMAP
003860
061056
0902B5
091982
279290
5A4090
870280
ENDCHAR
STARTCHAR uni04E3
ENCODING 1251
SWIDTH 577 0
DWIDTH 5 0
BBX 5 6 0 0
BITMAP
016600
032310
190730
460A00
731B00
698900
ENDCHAR
STARTCHAR uni04E4
ENCODING 1252
SWIDTH 696 0
DWIDTH 6 0
BBX 6 8 0 0
BITMAP
000010
003250
061056
0902B5
091982
279290
5A4090
870280
ENDCHAR
STARTCHAR uni04E5
ENCODING 1253
SWIDTH 577 0
DWIDTH 5 0
BBX 5 6 0 0
BITMAP
014600
030110
190730
460A00
731B00
698900
ENDCHAR
STARTCHAR uni04E6
ENCODING 1254
SWIDTH 720 0
DWIDTH 6 0
BBX 6 9 0 -1
BITMAP
000010
003250
018970
0A2075
380037
650056
5600B2
0A9A50
001000
ENDCHAR
STARTCHAR uni04E7
ENCODING 1255
SWIDTH 561 0
DWIDTH 4 0
BBX 5 6 0 0
BITMAP
023600
015100
1A4B00
730910
920B00
4A9400
ENDCHAR
STARTCHAR uni04E8
ENCODING 1256
SWIDTH 720 0
DWIDTH 6 0
BBX 6 7 0 -1
BITMAP
018970
0A2075
3A3367
696696
5600B2
0A9A50
001000
ENDCHAR
STARTCHAR uni04E9
ENCODING 1257
SWIDTH 561 0
DWIDTH 4 0
BBX 5 5 0 0
BITMAP
015100
1A4B00
797C10
931B00
4A9400
ENDCHAR
STARTCHAR uni04EA
ENCODING 1258
SWIDTH 720 0
DWIDTH 6 0
BBX 6 9 0 -1
BITMAP
000010
003250
018970
0A2075
3A3367
696696
5600B2
0A9A50
001000
ENDCHAR
STARTCHAR uni04EB
ENCODING 1259
SWIDTH 561 0
DWIDTH 4 0
BBX 5 6 0 0
BITMAP
023600
015100
1A4B00
797C10
931B00
4A9400
ENDCHAR
STARTCHAR uni04EC
ENCODING 1260
SWIDTH 584 0
DWIDTH 5 0
BBX 5 9 0 -1
BITMAP
001100
023500
099700
000840
034860
034950
000B10
98A400
010000
ENDCHAR
STARTCHAR uni04ED
ENCODING 1261
SWIDTH 456 0
DWIDTH 4 0
BBX 4 6 0 0
BITMAP
0642
1520
24A1
27B4
01A1
8870
ENDCHAR
STARTCHAR uni04EE
ENCODING 1262
SWIDTH 571 0
DWIDTH 5 0
BBX 6 8 0 -1
BITMAP
008810
170071
0A0380
082A10
03A500
02B000
9A1000
100000
ENDCHAR
STARTCHAR uni04EF
ENCODING 1263
SWIDTH 461 0
DWIDTH 4 0
BBX 5 8 -1 -2
BITMAP
005620
022240
072190
054820
038800
01D100
037000
690000
ENDCHAR
STARTCHAR uni04F0
ENCODING 1264
SWIDTH 571 0
DWIDTH 5 0
BBX 6 9 0 -1
BITMAP
001100
005410
170071
0A0380
082A10
03A500
02B000
9A1000
100000
ENDCHAR
STARTCHAR uni04F1
ENCODING 1265
SWIDTH 461 0
DWIDTH 4 0
BBX 5 8 -1 -2
BITMAP
006240
020030
072190
054820
038800
01D100
037000
690000
ENDCHAR
STARTCHAR uni04F2
ENCODING 1266
SWIDTH 571 0
DWIDTH 5 0
BBX 6 9 0 -1
BITMAP
001350
006430
170071
0A0380
082A10
03A500
02B000
9A1000
100000
ENDCHAR
STARTCHAR uni04F3
ENCODING 1267
SWIDTH 461 0
DWIDTH 4 0
BBX 5 9 -1 -2
BITMAP
000110
004680
021130
072190
054820
038800
01D100
037000
690000
ENDCHAR
STARTCHAR uni04F4
ENCODING 1268
SWIDTH 639 0
DWIDTH 5 0
BBX 5 8 1 0
BITMAP
010100
052300
610610
A00A00
A00A00
B9A700
006400
009100
ENDCHAR
STARTCHAR uni04F5
ENCODING 1269
SWIDTH 555 0
DWIDTH 4 0
BBX 5 6 0 0
BITMAP
033600
020210
460A10
564C00
174900
004600
ENDCHAR
STARTCHAR uni04F6
ENCODING 1270
SWIDTH 476 0
DWIDTH 4 0
BBX 5 8 0 -2
BITMAP
069930
0A0000
0A0000
280000
550000
870000
280000
230000
ENDCHAR
STARTCHAR uni04F7
ENCODING 1271
SWIDTH 382 0
DWIDTH 3 0
BBX 4 7 0 -2
BITMAP
0441
1B41
4600
7300
A500
5500
4100
ENDCHAR
STARTCHAR uni04F8
ENCODING 1272
SWIDTH 786 0
DWIDTH 6 0
BBX 7 8 0 0
BITMAP
00011000
00055000
06200430
0A000910
0B410A00
2A5B0900
550A3700
8A957300
ENDCHAR
STARTCHAR uni04F9
ENCODING 1273
SWIDTH 721 0
DWIDTH 6 0
BBX 6 6 0 0
BITMAP
006240
030012
190055
4A7182
7447A0
4AA3A0
ENDCHAR
STARTCHAR uni04FA
ENCODING 1274
SWIDTH 471 0
DWIDTH 4 0
BBX 5 8 0 -2
BITMAP
069930
0A0000
1B2000
6B6000
550000
860000
370000
610000
ENDCHAR
STARTCHAR uni04FB
ENCODING 1275
SWIDTH 382 0
DWIDTH 3 0
BBX 4 7 0 -2
BITMAP
0441
1B41
7A20
8400
A400
4500
7000
ENDCHAR
STARTCHAR uni04FC
ENCODING 1276
SWIDTH 508 0
DWIDTH 4 0
BBX 6 8 -1 -2
BITMAP
007026
009191
004C20
007B00
047730
2902B0
000090
000430
ENDCHAR
STARTCHAR uni04FD
ENCODING 1277
SWIDTH 469 0
DWIDTH 4 0
BBX 5 7 -1 -2
BITMAP
011030
019560
009800
029800
1A1940
000540
000700
ENDCHAR
STARTCHAR uni04FE
ENCODING 1278
SWIDTH 519 0
DWIDTH 4 0
BBX 6 6 -1 0
BITMAP
007026
009191
028D70
01AC30
047730
290280
ENDCHAR
STARTCHAR uni04FF
ENCODING 1279
SWIDTH 478 0
DWIDTH 4 0
BBX 5 5 -1 0
BITMAP
011030
019560
04CC30
029800
1A1910
ENDCHAR
STARTCHAR uni0500
ENCODING 1280
SWIDTH 565 0
DWIDTH 5 0
BBX 5 6 0 0
BITMAP
000250
000550
014A10
495B00
920A00
4AA700
ENDCHAR
STARTCHAR uni0501
ENCODING 1281
SWIDTH 577 0
DWIDTH 5 0
BBX 5 7 0 0
BITMAP
000010
000090
014460
1A4C30
740B00
922B00
5A7900
ENDCHAR
STARTCHAR uni0502
ENCODING 1282
SWIDTH 831 0
DWIDTH 7 0
BBX 7 6 0 0
BITMAP
00016000
00055000
013A2210
3A5C0910
830A0A00
5B9A9600
ENDCHAR
STARTCHAR uni0503
ENCODING 1283
SWIDTH 850 0
DWIDTH 7 0
BBX 7 7 0 0
BITMAP
00001000
00019000
01446000
1A4C3000
740A0520
922B0910
5A898800
ENDCHAR
STARTCHAR uni0504
ENCODING 1284
SWIDTH 837 0
DWIDTH 7 0
BBX 6 7 1 -1
BITMAP
798000
109200
358021
576082
00A0A0
00B970
000100
ENDCHAR
STARTCHAR uni0505
ENCODING 1285
SWIDTH 743 0
DWIDTH 6 0
BBX 6 6 0 -1
BITMAP
143000
24A200
089034
01A072
008890
000100
ENDCHAR
STARTCHAR uni0506
ENCODING 1286
SWIDTH 569 0
DWIDTH 5 0
BBX 4 8 1 -2
BITMAP
7980
1092
3580
5670
00A0
03C1
00A0
0050
ENDCHAR
STARTCHAR uni0507
ENCODING 1287
SWIDTH 470 0
DWIDTH 4 0
BBX 4 7 0 -2
BITMAP
1430
24A2
0890
01A0
00C2
0082
0050
ENDCHAR
STARTCHAR uni0508
ENCODING 1288
SWIDTH 895 0
DWIDTH 7 0
BBX 8 7 -1 -1
BITMAP
00079A00
000A0A00
00372803
00735518
00A08255
2A505AA1
00000100
ENDCHAR
STARTCHAR uni0509
ENCODING 1289
SWIDTH 806 0
DWIDTH 6 0
BBX 7 5 -1 0
BITMAP
00034000
0057B000
00A0A070
03737090
3A11B940
ENDCHAR
STARTCHAR uni050A
ENCODING 1290
SWIDTH 953 0
DWIDTH 8 0
BBX 8 6 0 0
BITMAP
06103400
0A007300
0B44B021
2A55B091
550190A0
8201BA60
ENDCHAR
STARTCHAR uni050B
ENCODING 1291
SWIDTH 867 0
DWIDTH 7 0
BBX 7 6 0 -1
BITMAP
03012000
19046000
4B7B3340
741A0820
90088900
00001000
ENDCHAR
STARTCHAR uni050C
ENCODING 1292
SWIDTH 695 0
DWIDTH 6 0
BBX 6 7 0 -1
BITMAP
008992
0A3000
380000
6508C3
5600B0
0A9A40
001000
ENDCHAR
STARTCHAR uni050D
ENCODING 1293
SWIDTH 588 0
DWIDTH 5 0
BBX 5 5 0 0
BITMAP
014400
1A4410
732410
923A20
3A8700
ENDCHAR
STARTCHAR uni050E
ENCODING 1294
SWIDTH 658 0
DWIDTH 5 0
BBX 5 6 0 0
BITMAP
29A960
00A000
019030
046090
063370
04AB10
ENDCHAR
STARTCHAR uni050F
ENCODING 1295
SWIDTH 586 0
DWIDTH 5 0
BBX 5 5 0 0
BITMAP
244200
3A5200
0A0610
0A0A00
0A8700
ENDCHAR
STARTCHAR uni0510
ENCODING 1296
SWIDTH 539 0
DWIDTH 4 0
BBX 5 7 0 -1
BITMAP
029930
0A1010
075200
296300
740000
3B8700
001000
ENDCHAR
STARTCHAR uni0511
ENCODING 1297
SWIDTH 444 0
DWIDTH 4 0
BBX 4 6 0 -1
BITMAP
0252
1A43
1B50
9310
8880
0100
ENDCHAR
STARTCHAR uni0512
ENCODING 1298
SWIDTH 633 0
DWIDTH 5 0
BBX 7 8 -1 -2
BITMAP
00079A10
000A0A00
00370A00
00732800
00A06400
2A509600
00003600
00006100
ENDCHAR
STARTCHAR uni0513
ENCODING 1299
SWIDTH 526 0
DWIDTH 4 0
BBX 5 7 -1 -2
BITMAP
000340
0057B0
00A090
037370
3A1680
000180
000620
ENDCHAR
STARTCHAR uni1E00
ENCODING 7680
SWIDTH 555 0
DWIDTH 4 0
BBX 5 9 -1 -3
BITMAP
000640
001A70
008390
02C6B0
0943A0
3800A0
006200
017600
001000
ENDCHAR
STARTCHAR uni1E01
ENCODING 7681
SWIDTH 564 0
DWIDTH 5 0
BBX 5 8 0 -3
BITMAP
014110
1B4B30
740B00
922B00
5A7800
052000
086000
010000
ENDCHAR
STARTCHAR uni1E3E
ENCODING 7742
SWIDTH 836 0
DWIDTH 7 0
BBX 7 8 0 0
BITMAP
00003200
00017000
06600570
09901B70
09907840
27927910
54891A00
81661900
ENDCHAR
STARTCHAR uni1E3F
ENCODING 7743
SWIDTH 872 0
DWIDTH 7 0
BBX 7 7 0 0
BITMAP
00001100
00019100
02331510
1C5A7670
480B1460
730A0730
90370A00
ENDCHAR
STARTCHAR Wgrave
ENCODING 7808
SWIDTH 852 0
DWIDTH 7 0
BBX 8 8 0 0
BITMAP
00040000
00035000
16046044
190980A0
19369370
0A909810
0B709800
0D10B200
ENDCHAR
STARTCHAR wgrave
ENCODING 7809
SWIDTH 716 0
DWIDTH 6 0
BBX 6 7 0 0
BITMAP
001000
004500
201303
827819
738873
792890
690B40
ENDCHAR
STARTCHAR Wacute
ENCODING 7810
SWIDTH 852 0
DWIDTH 7 0
BBX 8 8 0 0
BITMAP
00002300
00007000
16046044
190980A0
19369370
0A909810
0B709800
0D10B200
ENDCHAR
STARTCHAR wacute
ENCODING 7811
SWIDTH 716 0
DWIDTH 6 0
BBX 6 7 0 0
BITMAP
000010
000730
201403
827819
738873
792890
690B40
ENDCHAR
STARTCHAR Wdieresis
ENCODING 7812
SWIDTH 852 0
DWIDTH 7 0
BBX 8 8 0 0
BITMAP
00010000
00053200
16046044
190980A0
19369370
0A909810
0B709800
0D10B200
ENDCHAR
STARTCHAR wdieresis
ENCODING 7813
SWIDTH 716 0
DWIDTH 6 0
BBX 6 6 0 0
BITMAP
006230
201203
827819
738873
792890
690B40
ENDCHAR
STARTCHAR uni1EA0
ENCODING 7840
SWIDTH 555 0
DWIDTH 4 0
BBX 5 8 -1 -2
BITMAP
000640
001A70
008390
02C6B0
0943A0
3800A0
004100
003000
ENDCHAR
STARTCHAR uni1EA1
ENCODING 7841
SWIDTH 564 0
DWIDTH 5 0
BBX 5 7 0 -2
BITMAP
014110
1B4B30
740B00
922B00
5A7800
040000
030000
ENDCHAR
STARTCHAR uni1EA2
ENCODING 7842
SWIDTH 555 0
DWIDTH 4 0
BBX 5 8 -1 0
BITMAP
000180
000270
000640
001A70
008390
02C6B0
0943A0
3800A0
ENDCHAR
STARTCHAR uni1EA3
ENCODING 7843
SWIDTH 564 0
DWIDTH 5 0
BBX 5 7 0 0
BITMAP
003400
003600
016110
1B4B30
740B00
922B00
5A7800
ENDCHAR
STARTCHAR uni1EA4
ENCODING 7844
SWIDTH 555 0
DWIDTH 4 0
BBX 7 8 -1 0
BITMAP
00013710
00066100
00064000
001A7000
00839000
02C6B000
0943A000
3800A000
ENDCHAR
STARTCHAR uni1EA5
ENCODING 7845
SWIDTH 564 0
DWIDTH 5 0
BBX 5 7 0 0
BITMAP
000050
018820
025210
1B4B30
740B00
922B00
5A7800
ENDCHAR
STARTCHAR uni1EA6
ENCODING 7846
SWIDTH 555 0
DWIDTH 4 0
BBX 5 8 -1 0
BITMAP
005230
000660
000640
001A70
008390
02C6B0
0943A0
3800A0
ENDCHAR
STARTCHAR uni1EA7
ENCODING 7847
SWIDTH 564 0
DWIDTH 5 0
BBX 5 7 0 0
BITMAP
040000
038700
025210
1B4B30
740B00
922B00
5A7800
ENDCHAR
STARTCHAR uni1EA8
ENCODING 7848
SWIDTH 555 0
DWIDTH 4 0
BBX 6 9 -1 0
BITMAP
000002
000138
000660
000640
001A70
008390
02C6B0
0943A0
3800A0
ENDCHAR
STARTCHAR uni1EA9
ENCODING 7849
SWIDTH 564 0
DWIDTH 5 0
BBX 5 7 0 0
BITMAP
000170
018710
025210
1B4B30
740B00
922B00
5A7800
ENDCHAR
STARTCHAR uni1EAA
ENCODING 7850
SWIDTH 555 0
DWIDTH 4 0
BBX 6 9 -1 0
BITMAP
000333
000583
000660
000640
001A70
008390
02C6B0
0943A0
3800A0
ENDCHAR
STARTCHAR uni1EAB
ENCODING 7851
SWIDTH 564 0
DWIDTH 5 0
BBX 5 7 0 0
BITMAP
017730
018700
025210
1B4B30
740B00
922B00
5A7800
ENDCHAR
STARTCHAR uni1EAC
ENCODING 7852
SWIDTH 555 0
DWIDTH 4 0
BBX 6 10 -1 -2
BITMAP
000250
000771
000640
001A70
008390
02C6B0
0943A0
3800A0
004100
003000
ENDCHAR
STARTCHAR uni1EAD
ENCODING 7853
SWIDTH 564 0
DWIDTH 5 0
BBX 5 9 0 -2
BITMAP
001100
018800
025210
1B4B30
740B00
922B00
5A7800
040000
030000
ENDCHAR
STARTCHAR uni1EAE
ENCODING 7854
SWIDTH 555 0
DWIDTH 4 0
BBX 6 8 -1 0
BITMAP
000171
000880
000640
001A70
008390
02C6B0
0943A0
3800A0
ENDCHAR
STARTCHAR uni1EAF
ENCODING 7855
SWIDTH 564 0
DWIDTH 5 0
BBX 5 7 0 0
BITMAP
000700
019800
016210
1B4B30
740B00
922B00
5A7800
ENDCHAR
STARTCHAR uni1EB0
ENCODING 7856
SWIDTH 555 0
DWIDTH 4 0
BBX 6 9 -1 0
BITMAP
000100
000531
000880
000640
001A70
008390
02C6B0
0943A0
3800A0
ENDCHAR
STARTCHAR uni1EB1
ENCODING 7857
SWIDTH 564 0
DWIDTH 5 0
BBX 5 7 0 0
BITMAP
005000
018800
016210
1B4B30
740B00
922B00
5A7800
ENDCHAR
STARTCHAR uni1EB2
ENCODING 7858
SWIDTH 555 0
DWIDTH 4 0
BBX 6 9 -1 0
BITMAP
000130
000261
000880
000640
001A70
008390
02C6B0
0943A0
3800A0
ENDCHAR
STARTCHAR uni1EB3
ENCODING 7859
SWIDTH 564 0
DWIDTH 5 0
BBX 5 7 0 0
BITMAP
003700
019800
016210
1B4B30
740B00
922B00
5A7800
ENDCHAR
STARTCHAR uni1EB4
ENCODING 7860
SWIDTH 555 0
DWIDTH 4 0
BBX 6 9 -1 0
BITMAP
000423
000563
000880
000640
001A70
008390
02C6B0
0943A0
3800A0
ENDCHAR
STARTCHAR uni1EB5
ENCODING 7861
SWIDTH 564 0
DWIDTH 5 0
BBX 5 7 0 0
BITMAP
018830
018700
016210
1B4B30
740B00
922B00
5A7800
ENDCHAR
STARTCHAR uni1EB6
ENCODING 7862
SWIDTH 555 0
DWIDTH 4 0
BBX 6 10 -1 -2
BITMAP
000111
000781
000640
001A70
008390
02C6B0
0943A0
3800A0
004100
003000
ENDCHAR
STARTCHAR uni1EB7
ENCODING 7863
SWIDTH 564 0
DWIDTH 5 0
BBX 5 8 0 -2
BITMAP
019800
015210
1B4B30
740B00
922B00
5A7800
040000
030000
ENDCHAR
STARTCHAR uni1EB8
ENCODING 7864
SWIDTH 511 0
DWIDTH 4 0
BBX 5 8 0 -2
BITMAP
069930
0A0000
0B4300
2A5300
550000
8A9200
040000
030000
ENDCHAR
STARTCHAR uni1EB9
ENCODING 7865
SWIDTH 493 0
DWIDTH 4 0
BBX 4 7 0 -2
BITMAP
0151
1A49
7994
9300
4A82
0500
0300
ENDCHAR
STARTCHAR uni1EBA
ENCODING 7866
SWIDTH 511 0
DWIDTH 4 0
BBX 5 8 0 0
BITMAP
002800
003600
069930
0A0000
0B4300
2A5300
550000
8A9200
ENDCHAR
STARTCHAR uni1EBB
ENCODING 7867
SWIDTH 493 0
DWIDTH 4 0
BBX 4 7 0 0
BITMAP
0043
0055
0171
1A49
7994
9300
4A82
ENDCHAR
STARTCHAR uni1EBC
ENCODING 7868
SWIDTH 511 0
DWIDTH 4 0
BBX 5 8 0 0
BITMAP
002010
028930
069930
0A0000
0B4300
2A5300
550000
8A9200
ENDCHAR
STARTCHAR uni1EBD
ENCODING 7869
SWIDTH 493 0
DWIDTH 4 0
BBX 4 6 0 0
BITMAP
0697
0252
1A49
7994
9300
4A82
ENDCHAR
STARTCHAR uni1EBE
ENCODING 7870
SWIDTH 511 0
DWIDTH 4 0
BBX 6 8 0 0
BITMAP
001371
006610
069930
0A0000
0B4300
2A5300
550000
8A9200
ENDCHAR
STARTCHAR uni1EBF
ENCODING 7871
SWIDTH 493 0
DWIDTH 4 0
BBX 5 7 0 0
BITMAP
000050
028710
025200
1A4900
799400
930000
4A8200
ENDCHAR
STARTCHAR uni1EC0
ENCODING 7872
SWIDTH 511 0
DWIDTH 4 0
BBX 5 8 0 0
BITMAP
052300
006600
069930
0A0000
0B4300
2A5300
550000
8A9200
ENDCHAR
STARTCHAR uni1EC1
ENCODING 7873
SWIDTH 493 0
DWIDTH 4 0
BBX 4 7 0 0
BITMAP
0400
0485
0252
1A49
7994
9300
4A82
ENDCHAR
STARTCHAR uni1EC2
ENCODING 7874
SWIDTH 511 0
DWIDTH 4 0
BBX 5 9 0 0
BITMAP
000020
001380
006600
069930
0A0000
0B4300
2A5300
550000
8A9200
ENDCHAR
STARTCHAR uni1EC3
ENCODING 7875
SWIDTH 493 0
DWIDTH 4 0
BBX 5 7 0 0
BITMAP
000260
028710
025200
1A4900
799400
930000
4A8200
ENDCHAR
STARTCHAR uni1EC4
ENCODING 7876
SWIDTH 511 0
DWIDTH 4 0
BBX 5 9 0 0
BITMAP
003330
005830
006600
069930
0A0000
0B4300
2A5300
550000
8A9200
ENDCHAR
STARTCHAR uni1EC5
ENCODING 7877
SWIDTH 493 0
DWIDTH 4 0
BBX 5 7 0 0
BITMAP
037820
028500
025200
1A4900
799400
930000
4A8200
ENDCHAR
STARTCHAR uni1EC6
ENCODING 7878
SWIDTH 511 0
DWIDTH 4 0
BBX 5 10 0 -2
BITMAP
001500
007710
069930
0A0000
0B4300
2A5300
550000
8A9200
040000
030000
ENDCHAR
STARTCHAR uni1EC7
ENCODING 7879
SWIDTH 493 0
DWIDTH 4 0
BBX 4 9 0 -2
BITMAP
0010
0296
0252
1A49
7994
9300
4A82
0500
0300
ENDCHAR
STARTCHAR uni1EC8
ENCODING 7880
SWIDTH 272 0
DWIDTH 2 0
BBX 3 8 0 0
BITMAP
0280
0360
0610
0A00
0A00
2800
5500
8200
ENDCHAR
STARTCHAR uni1EC9
ENCODING 7881
SWIDTH 253 0
DWIDTH 2 0
BBX 3 7 0 0
BITMAP
0430
0450
0500
1900
4600
7300
9000
ENDCHAR
STARTCHAR uni1ECA
ENCODING 7882
SWIDTH 272 0
DWIDTH 2 0
BBX 3 8 0 -2
BITMAP
0610
0A00
0A00
2800
5500
8200
4000
3000
ENDCHAR
STARTCHAR uni1ECB
ENCODING 7883
SWIDTH 253 0
DWIDTH 2 0
BBX 3 8 0 -2
BITMAP
0710
0300
1900
4600
7300
9000
4000
3000
ENDCHAR
STARTCHAR uni1ECC
ENCODING 7884
SWIDTH 720 0
DWIDTH 6 0
BBX 6 8 0 -2
BITMAP
018970
0A2075
380037
650056
5600B2
0A9A50
004000
003000
ENDCHAR
STARTCHAR uni1ECD
ENCODING 7885
SWIDTH 561 0
DWIDTH 4 0
BBX 5 7 0 -2
BITMAP
015100
1A4B00
730910
920B00
4A9400
041000
030000
ENDCHAR
STARTCHAR uni1ECE
ENCODING 7886
SWIDTH 720 0
DWIDTH 6 0
BBX 6 9 0 -1
BITMAP
000470
000630
018970
0A2075
380037
650056
5600B2
0A9A50
001000
ENDCHAR
STARTCHAR uni1ECF
ENCODING 7887
SWIDTH 561 0
DWIDTH 4 0
BBX 5 7 0 0
BITMAP
004400
004600
016100
1A4B00
730910
920B00
4A9400
ENDCHAR
STARTCHAR uni1ED0
ENCODING 7888
SWIDTH 720 0
DWIDTH 6 0
BBX 6 9 0 -1
BITMAP
000336
003550
018970
0A2075
380037
650056
5600B2
0A9A50
001000
ENDCHAR
STARTCHAR uni1ED1
ENCODING 7889
SWIDTH 561 0
DWIDTH 4 0
BBX 5 7 0 0
BITMAP
000050
018720
025200
1A4B00
730910
920B00
4A9400
ENDCHAR
STARTCHAR uni1ED2
ENCODING 7890
SWIDTH 720 0
DWIDTH 6 0
BBX 6 9 0 -1
BITMAP
016310
003540
018970
0A2075
380037
650056
5600B2
0A9A50
001000
ENDCHAR
STARTCHAR uni1ED3
ENCODING 7891
SWIDTH 561 0
DWIDTH 4 0
BBX 5 7 0 0
BITMAP
040000
048600
025200
1A4B00
730910
920B00
4A9400
ENDCHAR
STARTCHAR uni1ED4
ENCODING 7892
SWIDTH 720 0
DWIDTH 6 0
BBX 6 10 0 -1
BITMAP
000011
000345
003540
018970
0A2075
380037
650056
5600B2
0A9A50
001000
ENDCHAR
STARTCHAR uni1ED5
ENCODING 7893
SWIDTH 561 0
DWIDTH 4 0
BBX 5 7 0 0
BITMAP
000260
018710
025200
1A4B00
730910
920B00
4A9400
ENDCHAR
STARTCHAR uni1ED6
ENCODING 7894
SWIDTH 720 0
DWIDTH 6 0
BBX 6 10 0 -1
BITMAP
001521
003660
003540
018970
0A2075
380037
650056
5600B2
0A9A50
001000
ENDCHAR
STARTCHAR uni1ED7
ENCODING 7895
SWIDTH 561 0
DWIDTH 4 0
BBX 5 7 0 0
BITMAP
027720
018600
025200
1A4B00
730910
920B00
4A9400
ENDCHAR
STARTCHAR uni1ED8
ENCODING 7896
SWIDTH 720 0
DWIDTH 6 0
BBX 6 10 0 -2
BITMAP
000510
004560
018970
0A2075
380037
650056
5600B2
0A9A50
004000
003000
ENDCHAR
STARTCHAR uni1ED9
ENCODING 7897
SWIDTH 561 0
DWIDTH 4 0
BBX 5 9 0 -2
BITMAP
001000
018800
025200
1A4B00
730910
920B00
4A9400
041000
030000
ENDCHAR
STARTCHAR uni1EDA
ENCODING 7898
SWIDTH 713 0
DWIDTH 6 0
BBX 7 9 0 -1
BITMAP
00015000
00062010
01897560
0A207800
38003700
65005600
5600B200
0A9A5000
00100000
ENDCHAR
STARTCHAR uni1EDB
ENCODING 7899
SWIDTH 561 0
DWIDTH 4 0
BBX 6 7 0 0
BITMAP
000100
004600
016191
1A4C40
730910
920B00
4A9400
ENDCHAR
STARTCHAR uni1EDC
ENCODING 7900
SWIDTH 713 0
DWIDTH 6 0
BBX 7 9 0 -1
BITMAP
00230000
00070010
01897560
0A207800
38003700
65005600
5600B200
0A9A5000
00100000
ENDCHAR
STARTCHAR uni1EDD
ENCODING 7901
SWIDTH 561 0
DWIDTH 4 0
BBX 6 7 0 0
BITMAP
001000
009000
015191
1A4C40
730910
920B00
4A9400
ENDCHAR
STARTCHAR uni1EDE
ENCODING 7902
SWIDTH 713 0
DWIDTH 6 0
BBX 7 9 0 -1
BITMAP
00047000
00063010
01897560
0A207800
38003700
65005600
5600B200
0A9A5000
00100000
ENDCHAR
STARTCHAR uni1EDF
ENCODING 7903
SWIDTH 561 0
DWIDTH 4 0
BBX 6 7 0 0
BITMAP
004400
004600
016191
1A4C40
730910
920B00
4A9400
ENDCHAR
STARTCHAR uni1EE0
ENCODING 7904
SWIDTH 713 0
DWIDTH 6 0
BBX 7 9 0 -1
BITMAP
00111000
00687010
01897560
0A207800
38003700
65005600
5600B200
0A9A5000
00100000
ENDCHAR
STARTCHAR uni1EE1
ENCODING 7905
SWIDTH 561 0
DWIDTH 4 0
BBX 6 6 0 0
BITMAP
049810
025291
1A4C40
730910
920B00
4A9400
ENDCHAR
STARTCHAR uni1EE2
ENCODING 7906
SWIDTH 713 0
DWIDTH 6 0
BBX 7 9 0 -2
BITMAP
00000010
01897560
0A207800
38003700
65005600
5600B200
0A9A5000
00400000
00300000
ENDCHAR
STARTCHAR uni1EE3
ENCODING 7907
SWIDTH 561 0
DWIDTH 4 0
BBX 6 7 0 -2
BITMAP
014191
1A4C40
730910
920B00
4A9400
041000
030000
ENDCHAR
STARTCHAR uni1EE4
ENCODING 7908
SWIDTH 675 0
DWIDTH 5 0
BBX 6 8 0 -2
BITMAP
071035
0A0074
0A00A1
3700A0
550280
1B8A10
014000
012000
ENDCHAR
STARTCHAR uni1EE5
ENCODING 7909
SWIDTH 577 0
DWIDTH 5 0
BBX 5 7 0 -2
BITMAP
030110
190730
460A00
731B00
698900
031000
021000
ENDCHAR
STARTCHAR uni1EE6
ENCODING 7910
SWIDTH 675 0
DWIDTH 5 0
BBX 6 9 0 -1
BITMAP
000550
000720
071035
0A0074
0A00A1
3700A0
550280
1B8A10
001000
ENDCHAR
STARTCHAR uni1EE7
ENCODING 7911
SWIDTH 577 0
DWIDTH 5 0
BBX 5 7 0 0
BITMAP
003400
003600
032110
190730
460A00
731B00
698900
ENDCHAR
STARTCHAR uni1EE8
ENCODING 7912
SWIDTH 722 0
DWIDTH 6 0
BBX 7 9 0 -1
BITMAP
00015000
00062010
071037A0
0A007700
0A00A100
3700A000
55028000
1B8A1000
00100000
ENDCHAR
STARTCHAR uni1EE9
ENCODING 7913
SWIDTH 617 0
DWIDTH 5 0
BBX 6 7 0 0
BITMAP
000100
003700
031139
190791
460A00
731B00
698900
ENDCHAR
STARTCHAR uni1EEA
ENCODING 7914
SWIDTH 722 0
DWIDTH 6 0
BBX 7 9 0 -1
BITMAP
00320000
00160010
071037A0
0A007700
0A00A100
3700A000
55028000
1B8A1000
00100000
ENDCHAR
STARTCHAR uni1EEB
ENCODING 7915
SWIDTH 617 0
DWIDTH 5 0
BBX 6 7 0 0
BITMAP
001000
009000
031139
190791
460A00
731B00
698900
ENDCHAR
STARTCHAR uni1EEC
ENCODING 7916
SWIDTH 722 0
DWIDTH 6 0
BBX 7 9 0 -1
BITMAP
00055000
00072010
071037A0
0A007700
0A00A100
3700A000
55028000
1B8A1000
00100000
ENDCHAR
STARTCHAR uni1EED
ENCODING 7917
SWIDTH 617 0
DWIDTH 5 0
BBX 6 7 0 0
BITMAP
003500
003700
032139
190791
460A00
731B00
698900
ENDCHAR
STARTCHAR uni1EEE
ENCODING 7918
SWIDTH 722 0
DWIDTH 6 0
BBX 7 9 0 -1
BITMAP
00111000
00687010
071037A0
0A007700
0A00A100
3700A000
55028000
1B8A1000
00100000
ENDCHAR
STARTCHAR uni1EEF
ENCODING 7919
SWIDTH 617 0
DWIDTH 5 0
BBX 6 6 0 0
BITMAP
039820
040239
190791
460A00
731B00
698900
ENDCHAR
STARTCHAR uni1EF0
ENCODING 7920
SWIDTH 722 0
DWIDTH 6 0
BBX 7 9 0 -2
BITMAP
00000010
071037A0
0A007700
0A00A100
3700A000
55028000
1B8A1000
01400000
01200000
ENDCHAR
STARTCHAR uni1EF1
ENCODING 7921
SWIDTH 617 0
DWIDTH 5 0
BBX 6 7 0 -2
BITMAP
030139
190791
460A00
731B00
698900
031000
021000
ENDCHAR
STARTCHAR Ygrave
ENCODING 7922
SWIDTH 502 0
DWIDTH 4 0
BBX 5 8 0 0
BITMAP
014000
007000
250260
090A10
097400
068000
073000
0A0000
ENDCHAR
STARTCHAR ygrave
ENCODING 7923
SWIDTH 461 0
DWIDTH 4 0
BBX 5 9 -1 -2
BITMAP
001000
005500
020130
072190
054820
038800
01D100
037000
690000
ENDCHAR
STARTCHAR uni1EF4
ENCODING 7924
SWIDTH 502 0
DWIDTH 4 0
BBX 5 8 0 -2
BITMAP
250260
090A10
097400
068000
073000
0A0000
040000
030000
ENDCHAR
STARTCHAR uni1EF5
ENCODING 7925
SWIDTH 461 0
DWIDTH 4 0
BBX 5 7 -1 -2
BITMAP
020030
072190
054820
038800
01D100
037400
690300
ENDCHAR
STARTCHAR uni1EF6
ENCODING 7926
SWIDTH 502 0
DWIDTH 4 0
BBX 5 8 0 0
BITMAP
004700
006300
250260
090A10
097400
068000
073000
0A0000
ENDCHAR
STARTCHAR uni1EF7
ENCODING 7927
SWIDTH 461 0
DWIDTH 4 0
BBX 5 9 -1 -2
BITMAP
000610
000820
020230
072190
054820
038800
01D100
037000
690000
ENDCHAR
STARTCHAR uni1EF8
ENCODING 7928
SWIDTH 502 0
DWIDTH 4 0
BBX 5 8 0 0
BITMAP
002010
057810
250260
090A10
097400
068000
073000
0A0000
ENDCHAR
STARTCHAR uni1EF9
ENCODING 7929
SWIDTH 461 0
DWIDTH 4 0
BBX 5 8 -1 -2
BITMAP
008860
031130
072190
054820
038800
01D100
037000
690000
ENDCHAR
STARTCHAR uni1F4D
ENCODING 8013
SWIDTH 778 0
DWIDTH 6 0
BBX 7 6 -1 0
BITMAP
34659920
455801B0
00A000B0
00A000B0
00B00480
005A9910
ENDCHAR
STARTCHAR uni2000
ENCODING 8192
SWIDTH 500 0
DWIDTH 4 0
BBX 1 1 0 0
BITMAP
00
ENDCHAR
STARTCHAR uni2001
ENCODING 8193
SWIDTH 1000 0
DWIDTH 8 0
BBX 1 1 0 0
BITMAP
00
ENDCHAR
STARTCHAR uni2002
ENCODING 8194
SWIDTH 500 0
DWIDTH 4 0
BBX 1 1 0 0
BITMAP
00
ENDCHAR
STARTCHAR uni2003
ENCODING 8195
SWIDTH 1000 0
DWIDTH 8 0
BBX 1 1 0 0
BITMAP
00
ENDCHAR
STARTCHAR uni2004
ENCODING 8196
SWIDTH 333 0
DWIDTH 3 0
BBX 1 1 0 0
BITMAP
00
ENDCHAR
STARTCHAR uni2005
ENCODING 8197
SWIDTH 250 0
DWIDTH 2 0
BBX 1 1 0 0
BITMAP
00
ENDCHAR
STARTCHAR uni2006
ENCODING 8198
SWIDTH 166 0
DWIDTH 1 0
BBX 1 1 0 0
BITMAP
00
ENDCHAR
STARTCHAR uni2007
ENCODING 8199
SWIDTH 559 0
DWIDTH 4 0
BBX 1 1 0 0
BITMAP
00
ENDCHAR
STARTCHAR uni2008
ENCODING 8200
SWIDTH 266 0
DWIDTH 2 0
BBX 1 1 0 0
BITMAP
00
ENDCHAR
STARTCHAR uni2009
ENCODING 8201
SWIDTH 200 0
DWIDTH 2 0
BBX 1 1 0 0
BITMAP
00
ENDCHAR
STARTCHAR uni200A
ENCODING 8202
SWIDTH 100 0
DWIDTH 1 0
BBX 1 1 0 0
BITMAP
00
ENDCHAR
STARTCHAR uni200B
ENCODING 8203
SWIDTH 0 0
DWIDTH 0 0
BBX 1 1 0 0
BITMAP
00
ENDCHAR
STARTCHAR endash
ENCODING 8211
SWIDTH 479 0
DWIDTH 4 0
BBX 4 2 0 1
BITMAP
5773
2331
ENDCHAR
STARTCHAR emdash
ENCODING 8212
SWIDTH 959 0
DWIDTH 8 0
BBX 8 2 0 1
BITMAP
57777772
23333331
ENDCHAR
STARTCHAR afii00208
ENCODING 8213
SWIDTH 959 0
DWIDTH 8 0
BBX 8 2 0 1
BITMAP
57777772
23333331
ENDCHAR
STARTCHAR underscoredbl
ENCODING 8215
SWIDTH 394 0
DWIDTH 3 0
BBX 4 2 -1 -2
BITMAP
4885
6883
ENDCHAR
STARTCHAR quoteleft
ENCODING 8216
SWIDTH 169 0
DWIDTH 1 0
BBX 2 3 0 3
BITMAP
06
38
21
ENDCHAR
STARTCHAR quoteright
ENCODING 8217
SWIDTH 169 0
DWIDTH 1 0
BBX 2 3 0 3
BITMAP
08
37
20
ENDCHAR
STARTCHAR quotesinglbase
ENCODING 8218
SWIDTH 240 0
DWIDTH 2 0
BBX 3 2 -1 -1
BITMAP
0A10
3600
ENDCHAR
STARTCHAR quotereversed
ENCODING 8219
SWIDTH 169 0
DWIDTH 1 0
BBX 2 3 0 3
BITMAP
17
09
02
ENDCHAR
STARTCHAR quotedblleft
ENCODING 8220
SWIDTH 351 0
DWIDTH 3 0
BBX 4 3 0 3
BITMAP
0634
38A1
2130
ENDCHAR
STARTCHAR quotedblright
ENCODING 8221
SWIDTH 351 0
DWIDTH 3 0
BBX 4 3 0 3
BITMAP
0854
3790
2020
ENDCHAR
STARTCHAR quotedblbase
ENCODING 8222
SWIDTH 418 0
DWIDTH 3 0
BBX 4 2 -1 -1
BITMAP
0A56
3690
ENDCHAR
STARTCHAR dagger
ENCODING 8224
SWIDTH 465 0
DWIDTH 4 0
BBX 4 7 0 0
BITMAP
0010
00A0
18B6
0251
0530
0900
0B00
ENDCHAR
STARTCHAR daggerdbl
ENCODING 8225
SWIDTH 476 0
DWIDTH 4 0
BBX 4 7 0 0
BITMAP
0010
0090
09B8
0270
0440
6B82
0A00
ENDCHAR
STARTCHAR bullet
ENCODING 8226
SWIDTH 377 0
DWIDTH 3 0
BBX 3 2 0 2
BITMAP
1C60
2F50
ENDCHAR
STARTCHAR ellipsis
ENCODING 8230
SWIDTH 763 0
DWIDTH 6 0
BBX 6 1 0 0
BITMAP
A19192
ENDCHAR
STARTCHAR perthousand
ENCODING 8240
SWIDTH 1117 0
DWIDTH 9 0
BBX 9 6 0 0
BITMAP
0780250000
2671800000
5487751720
2987798280
0186288260
0815959910
ENDCHAR
STARTCHAR minute
ENCODING 8242
SWIDTH 216 0
DWIDTH 2 0
BBX 1 3 1 3
BITMAP
70
80
20
ENDCHAR
STARTCHAR second
ENCODING 8243
SWIDTH 386 0
DWIDTH 3 0
BBX 3 3 1 3
BITMAP
7620
8800
2200
ENDCHAR
STARTCHAR guilsinglleft
ENCODING 8249
SWIDTH 283 0
DWIDTH 2 0
BBX 2 4 0 0
BITMAP
05
65
54
04
ENDCHAR
STARTCHAR guilsinglright
ENCODING 8250
SWIDTH 283 0
DWIDTH 2 0
BBX 2 4 0 0
BITMAP
32
09
47
40
ENDCHAR
STARTCHAR exclamdbl
ENCODING 8252
SWIDTH 479 0
DWIDTH 4 0
BBX 5 6 0 0
BITMAP
080710
290B00
450900
712600
302100
A09100
ENDCHAR
STARTCHAR fraction
ENCODING 8260
SWIDTH 130 0
DWIDTH 1 0
BBX 5 6 -2 0
BITMAP
000060
000720
005400
027000
080000
720000
ENDCHAR
STARTCHAR zerosuperior
ENCODING 8304
SWIDTH 350 0
DWIDTH 3 0
BBX 3 4 0 2
BITMAP
0770
4480
6280
2840
ENDCHAR
STARTCHAR foursuperior
ENCODING 8308
SWIDTH 350 0
DWIDTH 3 0
BBX 3 4 0 2
BITMAP
0170
0780
6990
0320
ENDCHAR
STARTCHAR fivesuperior
ENCODING 8309
SWIDTH 350 0
DWIDTH 3 0
BBX 3 4 0 2
BITMAP
0770
1A20
0190
3740
ENDCHAR
STARTCHAR sixsuperior
ENCODING 8310
SWIDTH 350 0
DWIDTH 3 0
BBX 3 4 0 2
BITMAP
0570
1A30
4480
1850
ENDCHAR
STARTCHAR sevensuperior
ENCODING 8311
SWIDTH 350 0
DWIDTH 3 0
BBX 4 4 0 2
BITMAP
0791
0180
0810
1500
ENDCHAR
STARTCHAR eightsuperior
ENCODING 8312
SWIDTH 350 0
DWIDTH 3 0
BBX 3 4 0 2
BITMAP
0770
0970
4580
3750
ENDCHAR
STARTCHAR ninesuperior
ENCODING 8313
SWIDTH 350 0
DWIDTH 3 0
BBX 3 4 0 2
BITMAP
0770
2690
0690
3720
ENDCHAR
STARTCHAR nsuperior
ENCODING 8319
SWIDTH 368 0
DWIDTH 3 0
BBX 3 3 0 3
BITMAP
0770
1760
3360
ENDCHAR
STARTCHAR franc
ENCODING 8355
SWIDTH 550 0
DWIDTH 4 0
BBX 5 6 0 0
BITMAP
02A950
063000
091000
0B9800
6C5000
460000
ENDCHAR
STARTCHAR afii08941
ENCODING 8356
SWIDTH 550 0
DWIDTH 4 0
BBX 5 6 0 0
BITMAP
008940
055000
3B8300
3C5100
4A3100
CA9600
ENDCHAR
STARTCHAR peseta
ENCODING 8359
SWIDTH 725 0
DWIDTH 6 0
BBX 6 6 0 0
BITMAP
079400
0A0B10
191BB3
4B83A2
730280
9003A1
ENDCHAR
STARTCHAR uni20AB
ENCODING 8363
SWIDTH 577 0
DWIDTH 5 0
BBX 6 9 0 -2
BITMAP
000010
0035C1
016680
1A3C30
740B00
922B00
5A7900
454100
444100
ENDCHAR
STARTCHAR Euro
ENCODING 8364
SWIDTH 550 0
DWIDTH 4 0
BBX 5 6 0 0
BITMAP
006970
056000
4D8400
5C7000
1A0000
089600
ENDCHAR
STARTCHAR afii61248
ENCODING 8453
SWIDTH 777 0
DWIDTH 6 0
BBX 5 6 1 0
BITMAP
461240
800800
847100
056730
278080
807830
ENDCHAR
STARTCHAR afii61289
ENCODING 8467
SWIDTH 500 0
DWIDTH 4 0
BBX 4 6 0 0
BITMAP
0481
0843
0971
2C20
0901
0695
ENDCHAR
STARTCHAR afii61352
ENCODING 8470
SWIDTH 950 0
DWIDTH 8 0
BBX 8 6 0 0
BITMAP
07306100
0A809000
18A09581
46847844
723B4881
900E2860
ENDCHAR
STARTCHAR uni2120
ENCODING 8480
SWIDTH 762 0
DWIDTH 6 0
BBX 6 4 0 2
BITMAP
465354
567685
488665
111001
ENDCHAR
STARTCHAR trademark
ENCODING 8482
SWIDTH 749 0
DWIDTH 6 0
BBX 6 4 0 2
BITMAP
386626
074A67
074777
010011
ENDCHAR
STARTCHAR Omega
ENCODING 8486
SWIDTH 732 0
DWIDTH 6 0
BBX 6 6 0 0
BITMAP
018970
0B2065
480038
560065
2901A0
9D3DA2
ENDCHAR
STARTCHAR estimated
ENCODING 8494
SWIDTH 619 0
DWIDTH 5 0
BBX 5 6 0 -1
BITMAP
014100
171620
795780
660000
174620
001000
ENDCHAR
STARTCHAR oneeighth
ENCODING 8539
SWIDTH 752 0
DWIDTH 6 0
BBX 6 6 0 0
BITMAP
181060
180540
082753
068458
072494
440874
ENDCHAR
STARTCHAR threeeighths
ENCODING 8540
SWIDTH 812 0
DWIDTH 7 0
BBX 7 6 0 0
BITMAP
07601500
04608100
03765600
47768620
01818900
08128900
ENDCHAR
STARTCHAR fiveeighths
ENCODING 8541
SWIDTH 818 0
DWIDTH 7 0
BBX 7 6 0 0
BITMAP
08601500
39108000
02875600
48658620
01808900
08129900
ENDCHAR
STARTCHAR seveneighths
ENCODING 8542
SWIDTH 750 0
DWIDTH 6 0
BBX 6 6 0 0
BITMAP
179060
036540
082753
348458
072493
540874
ENDCHAR
STARTCHAR partialdiff
ENCODING 8706
SWIDTH 581 0
DWIDTH 5 0
BBX 5 6 0 0
BITMAP
048700
000820
089B40
560920
830A00
4A9300
ENDCHAR
STARTCHAR Delta
ENCODING 8710
SWIDTH 558 0
DWIDTH 4 0
BBX 5 6 -1 0
BITMAP
000540
001A70
007390
0190A0
0820A0
1D99C0
ENDCHAR
STARTCHAR product
ENCODING 8719
SWIDTH 741 0
DWIDTH 6 0
BBX 5 8 1 -2
BITMAP
A99A30
900550
900550
900550
900550
900550
900550
900540
ENDCHAR
STARTCHAR summation
ENCODING 8721
SWIDTH 630 0
DWIDTH 5 0
BBX 6 8 0 -2
BITMAP
1A9991
084000
00A100
002A00
003900
00B100
084000
2D9993
ENDCHAR
STARTCHAR minus
ENCODING 8722
SWIDTH 550 0
DWIDTH 4 0
BBX 5 2 0 2
BITMAP
111100
377710
ENDCHAR
STARTCHAR radical
ENCODING 8730
SWIDTH 548 0
DWIDTH 4 0
BBX 5 7 0 0
BITMAP
000050
000080
000440
550800
091800
069300
01C000
ENDCHAR
STARTCHAR infinity
ENCODING 8734
SWIDTH 707 0
DWIDTH 6 0
BBX 6 3 0 1
BITMAP
397792
557763
052250
ENDCHAR
STARTCHAR integral
ENCODING 8747
SWIDTH 383 0
DWIDTH 3 0
BBX 4 9 0 -2
BITMAP
0010
0681
0900
0900
0900
0900
0900
0A00
7800
ENDCHAR
STARTCHAR approxequal
ENCODING 8776
SWIDTH 550 0
DWIDTH 4 0
BBX 5 4 0 1
BITMAP
010000
579820
273210
215700
ENDCHAR
STARTCHAR notequal
ENCODING 8800
SWIDTH 550 0
DWIDTH 4 0
BBX 5 5 0 0
BITMAP
003500
48C810
26A400
2A4400
020000
ENDCHAR
STARTCHAR lessequal
ENCODING 8804
SWIDTH 550 0
DWIDTH 4 0
BBX 5 5 0 0
BITMAP
001710
167100
493000
005910
488810
ENDCHAR
STARTCHAR greaterequal
ENCODING 8805
SWIDTH 550 0
DWIDTH 4 0
BBX 5 5 0 0
BITMAP
440000
048400
006910
483000
488810
ENDCHAR
STARTCHAR lozenge
ENCODING 9674
SWIDTH 583 0
DWIDTH 5 0
BBX 5 6 0 0
BITMAP
008000
067600
190910
370830
084800
01C100
ENDCHAR
STARTCHAR ff
ENCODING 64256
SWIDTH 630 0
DWIDTH 5 0
BBX 7 9 -1 -2
BITMAP
00010010
00593A70
01B46A10
02B38610
02809100
0550A000
08209000
0A046000
863A1000
ENDCHAR
STARTCHAR uniFB01
ENCODING 64257
SWIDTH 568 0
DWIDTH 5 0
BBX 6 9 -1 -2
BITMAP
000100
005946
01B421
02B282
0280A0
0550A0
082280
0A0000
860000
ENDCHAR
STARTCHAR uniFB02
ENCODING 64258
SWIDTH 568 0
DWIDTH 5 0
BBX 6 9 -1 -2
BITMAP
000101
005958
01B455
02B282
0280A0
0550A0
082270
0A0000
860000
ENDCHAR
STARTCHAR uniFB03
ENCODING 64259
SWIDTH 886 0
DWIDTH 7 0
BBX 9 9 -1 -2
BITMAP
0001001000
00593A7610
01B46A1300
02B3861A00
0280913700
0550A06400
0820909100
0A04600000
863A100000
ENDCHAR
STARTCHAR uniFB04
ENCODING 64260
SWIDTH 886 0
DWIDTH 7 0
BBX 9 9 -1 -2
BITMAP
0001001000
00593A7820
01B46A1A00
02B3861A00
0280913700
0550A06400
0820909100
0A04600000
863A100000
ENDCHAR
STARTCHAR uniFEFF
ENCODING 65279
SWIDTH 0 0
DWIDTH 0 0
BBX 1 1 0 0
BITMAP
00
ENDCHAR
STARTCHAR uniFFFC
ENCODING 65532
SWIDTH 1000 0
DWIDTH 8 0
BBX 8 8 0 -2
BITMAP
83734648
30000003
53747155
583AA275
34758543
60000005
50000004
53634635
ENDCHAR
STARTCHAR uniFFFD
ENCODING 65533
SWIDTH 1000 0
DWIDTH 8 0
BBX 8 7 0 -1
BITMAP
00099000
00888800
09EA4B90
6FFC3EF6
0BFADFB0
00B7BB00
000AA000
ENDCHAR
STARTCHAR .notdef
ENCODING -1
SWIDTH 600 0
DWIDTH 5 0
BBX 5 6 0 0
BITMAP
376800
420510
420510
420510
420510
476910
ENDCHAR
STARTCHAR null
ENCODING -1
SWIDTH 0 0
DWIDTH 0 0
BBX 1 1 0 0
BITMAP
00
ENDCHAR
STARTCHAR nonmarkingreturn
ENCODING -1
SWIDTH 509 0
DWIDTH 4 0
BBX 1 1 0 0
BITMAP
00
ENDCHAR
STARTCHAR I.alt
ENCODING -1
SWIDTH 317 0
DWIDTH 3 0
BBX 4 6 -1 0
BITMAP
0087
0081
00A0
00A0
0370
1A80
ENDCHAR
STARTCHAR Igrave.alt
ENCODING -1
SWIDTH 317 0
DWIDTH 3 0
BBX 4 8 -1 0
BITMAP
0050
0034
0087
0081
00A0
00A0
0370
1A80
ENDCHAR
STARTCHAR Iacute.alt
ENCODING -1
SWIDTH 317 0
DWIDTH 3 0
BBX 5 8 -1 0
BITMAP
000320
001700
008700
008100
00A000
00A000
037000
1A8000
ENDCHAR
STARTCHAR Icircumflex.alt
ENCODING -1
SWIDTH 317 0
DWIDTH 3 0
BBX 5 8 -1 0
BITMAP
001500
007620
008700
008100
00A000
00A000
037000
1A8000
ENDCHAR
STARTCHAR Idieresis.alt
ENCODING -1
SWIDTH 317 0
DWIDTH 3 0
BBX 5 8 -1 0
BITMAP
001000
005410
008700
008100
00A000
00A000
037000
1A8000
ENDCHAR
STARTCHAR Itilde.alt
ENCODING -1
SWIDTH 317 0
DWIDTH 3 0
BBX 5 8 -1 0
BITMAP
002010
018940
008700
008100
00A000
00A000
037000
1A8000
ENDCHAR
STARTCHAR Imacron.alt
ENCODING -1
SWIDTH 317 0
DWIDTH 3 0
BBX 5 7 -1 0
BITMAP
008820
008700
008100
00A000
00A000
037000
1A8000
ENDCHAR
STARTCHAR Ibreve.alt
ENCODING -1
SWIDTH 317 0
DWIDTH 3 0
BBX 5 8 -1 0
BITMAP
001010
007810
008700
008100
00A000
00A000
037000
1A8000
ENDCHAR
STARTCHAR Iogonek.alt
ENCODING -1
SWIDTH 317 0
DWIDTH 3 0
BBX 4 8 -1 -2
BITMAP
0087
0081
00A0
00A0
0370
1A80
0710
0710
ENDCHAR
STARTCHAR Idotaccent.alt
ENCODING -1
SWIDTH 317 0
DWIDTH 3 0
BBX 4 8 -1 0
BITMAP
0001
0015
0087
0081
00A0
00A0
0370
1A80
ENDCHAR
STARTCHAR IJ.alt
ENCODING -1
SWIDTH 583 0
DWIDTH 5 0
BBX 6 8 -1 -2
BITMAP
008707
008137
00A064
00A091
0370A0
1A8190
001750
005500
ENDCHAR
STARTCHAR Iotatonos.alt
ENCODING -1
SWIDTH 439 0
DWIDTH 4 0
BBX 4 6 0 0
BITMAP
3887
4091
00A0
0090
0370
1A80
ENDCHAR
STARTCHAR Iota.alt
ENCODING -1
SWIDTH 317 0
DWIDTH 3 0
BBX 4 6 -1 0
BITMAP
0087
0081
00A0
00A0
0370
1A80
ENDCHAR
STARTCHAR Iotadieresis.alt
ENCODING -1
SWIDTH 317 0
DWIDTH 3 0
BBX 5 8 -1 0
BITMAP
001000
005410
008700
008100
00A000
00A000
037000
1A8000
ENDCHAR
STARTCHAR afii10055.alt
ENCODING -1
SWIDTH 317 0
DWIDTH 3 0
BBX 4 6 -1 0
BITMAP
0087
0081
00A0
00A0
0370
1A80
ENDCHAR
STARTCHAR afii10056.alt
ENCODING -1
SWIDTH 317 0
DWIDTH 3 0
BBX 5 8 -1 0
BITMAP
001000
005410
008700
008100
00A000
00A000
037000
1A8000
ENDCHAR
STARTCHAR cyrillicbreve
ENCODING -1
SWIDTH 562 0
DWIDTH 5 0
BBX 4 3 1 4
BITMAP
1000
86A1
0200
ENDCHAR
STARTCHAR caroncommaaccent
ENCODING -1
SWIDTH 477 0
DWIDTH 4 0
BBX 2 2 2 4
BITMAP
81
10
ENDCHAR
STARTCHAR commaaccent
ENCODING -1
SWIDTH 477 0
DWIDTH 4 0
BBX 2 2 0 -2
BITMAP
05
33
ENDCHAR
STARTCHAR commaaccentrotate
ENCODING -1
SWIDTH 477 0
DWIDTH 4 0
BBX 1 2 2 4
BITMAP
80
10
ENDCHAR
STARTCHAR dasiaoxia
ENCODING -1
SWIDTH 418 0
DWIDTH 3 0
BBX 3 2 1 4
BITMAP
4530
6400
ENDCHAR
STARTCHAR uni04C0.alt
ENCODING -1
SWIDTH 317 0
DWIDTH 3 0
BBX 4 6 -1 0
BITMAP
0087
0081
00A0
00A0
0370
1A80
ENDCHAR
STARTCHAR uni04CF.alt
ENCODING -1
SWIDTH 317 0
DWIDTH 3 0
BBX 4 6 -1 0
BITMAP
0087
0081
00A0
00A0
0370
1A80
ENDCHAR
STARTCHAR uni1EC8.alt
ENCODING -1
SWIDTH 317 0
DWIDTH 3 0
BBX 5 8 -1 0
BITMAP
001810
001700
008700
008100
00A000
00A000
037000
1A8000
ENDCHAR
STARTCHAR uni1ECA.alt
ENCODING -1
SWIDTH 317 0
DWIDTH 3 0
BBX 4 8 -1 -2
BITMAP
0087
0081
00A0
00A0
0370
1A80
0400
0300
ENDCHAR
STARTCHAR circumflexacutecomb
ENCODING -1
SWIDTH 0 0
DWIDTH 0 0
BBX 4 3 -3 4
BITMAP
0032
6930
1000
ENDCHAR
STARTCHAR circumflexgravecomb
ENCODING -1
SWIDTH 0 0
DWIDTH 0 0
BBX 3 3 -4 4
BITMAP
4000
1890
0100
ENDCHAR
STARTCHAR circumflexhookcomb
ENCODING -1
SWIDTH 0 0
DWIDTH 0 0
BBX 3 3 -3 4
BITMAP
0070
6930
1000
ENDCHAR
STARTCHAR circumflextildecomb
ENCODING -1
SWIDTH 0 0
DWIDTH 0 0
BBX 3 3 -3 4
BITMAP
6850
6900
1000
ENDCHAR
STARTCHAR breveacutecomb
ENCODING -1
SWIDTH 0 0
DWIDTH 0 0
BBX 3 3 -3 4
BITMAP
0610
8820
1100
ENDCHAR
STARTCHAR brevegravecomb
ENCODING -1
SWIDTH 0 0
DWIDTH 0 0
BBX 3 3 -3 4
BITMAP
3200
8820
1100
ENDCHAR
STARTCHAR brevehookcomb
ENCODING -1
SWIDTH 0 0
DWIDTH 0 0
BBX 3 3 -3 4
BITMAP
0900
8920
1100
ENDCHAR
STARTCHAR brevetildecomb
ENCODING -1
SWIDTH 0 0
DWIDTH 0 0
BBX 3 3 -3 4
BITMAP
7850
8820
1100
ENDCHAR
STARTCHAR cyrillichookleft
ENCODING -1
SWIDTH 205 0
DWIDTH 2 0
BBX 2 2 -1 -2
BITMAP
08
45
ENDCHAR
STARTCHAR one.pnum
ENCODING -1
SWIDTH 375 0
DWIDTH 3 0
BBX 3 6 0 0
BITMAP
0380
3890
0460
0730
0A00
0A00
ENDCHAR
STARTCHAR zero.os
ENCODING -1
SWIDTH 554 0
DWIDTH 4 0
BBX 4 5 0 0
BITMAP
0262
2A2B
730A
920A
4A94
ENDCHAR
STARTCHAR one.os
ENCODING -1
SWIDTH 358 0
DWIDTH 3 0
BBX 3 5 0 0
BITMAP
0220
4B50
1810
0A00
0900
ENDCHAR
STARTCHAR two.os
ENCODING -1
SWIDTH 483 0
DWIDTH 4 0
BBX 5 5 -1 0
BITMAP
004610
025570
000740
018400
1DA920
ENDCHAR
STARTCHAR three.os
ENCODING -1
SWIDTH 483 0
DWIDTH 4 0
BBX 5 7 -1 -2
BITMAP
015500
043760
000740
02A700
000B00
334A00
265100
ENDCHAR
STARTCHAR four.os
ENCODING -1
SWIDTH 540 0
DWIDTH 4 0
BBX 5 7 -1 -2
BITMAP
000040
000890
007670
055640
1C8C70
000A00
000300
ENDCHAR
STARTCHAR five.os
ENCODING -1
SWIDTH 503 0
DWIDTH 4 0
BBX 5 7 -1 -2
BITMAP
004540
01A430
056100
046A30
000460
143A20
055100
ENDCHAR
STARTCHAR six.os
ENCODING -1
SWIDTH 540 0
DWIDTH 4 0
BBX 5 6 0 0
BITMAP
018920
0A2000
398300
761B00
820A00
3A9400
ENDCHAR
STARTCHAR seven.os
ENCODING -1
SWIDTH 474 0
DWIDTH 4 0
BBX 4 7 0 -2
BITMAP
4554
3367
0091
0550
1A00
7300
4000
ENDCHAR
STARTCHAR eight.os
ENCODING -1
SWIDTH 534 0
DWIDTH 4 0
BBX 5 6 0 0
BITMAP
049800
0A0820
086800
488500
A00A00
699400
ENDCHAR
STARTCHAR nine.os
ENCODING -1
SWIDTH 527 0
DWIDTH 4 0
BBX 4 7 0 -2
BITMAP
0361
4739
910A
787A
0255
34A0
5510
ENDCHAR
STARTCHAR g.alt
ENCODING -1
SWIDTH 577 0
DWIDTH 5 0
BBX 5 7 0 -2
BITMAP
015110
1A4B30
740B00
922B00
5A8900
005500
788000
ENDCHAR
STARTCHAR gcircumflex.alt
ENCODING -1
SWIDTH 577 0
DWIDTH 5 0
BBX 5 9 0 -2
BITMAP
000100
018900
025220
1A4B30
740B00
922B00
5A8900
005500
788000
ENDCHAR
STARTCHAR gbreve.alt
ENCODING -1
SWIDTH 577 0
DWIDTH 5 0
BBX 5 8 0 -2
BITMAP
019800
015210
1A4B30
740B00
922B00
5A8900
005500
788000
ENDCHAR
STARTCHAR gdot.alt
ENCODING -1
SWIDTH 577 0
DWIDTH 5 0
BBX 5 8 0 -2
BITMAP
006100
015110
1A4B30
740B00
922B00
5A8900
005500
788000
ENDCHAR
STARTCHAR gcommaaccent.alt
ENCODING -1
SWIDTH 577 0
DWIDTH 5 0
BBX 5 9 0 -2
BITMAP
000100
003500
016210
1A4B30
740B00
922B00
5A8900
005500
788000
ENDCHAR
ENDFONT
